{
	"asset":{
		"generator":"Khronos glTF Blender I/O v5.2.23 for Foundation",
		"version":"2.0"
	},
	"extensionsUsed":[
		"EXT_foundation_environment",
		"KHR_materials_transmission",
		"EXT_foundation_materials",
		"EXT_camera_lens",
		"KHR_materials_volume",
		"EXT_foundation_colormanagement"
	],
	"extensions":{
		"EXT_foundation_colormanagement":{
			"postExposure":0,
			"sdr":"SDR / ACES 1.3 / No Look",
			"hdr":"HDR / ACES 1.3 - HDR 1000 nits / No Look"
		}
	},
	"scene":0,
	"scenes":[
		{
			"extensions":{
				"EXT_foundation_environment":{
					"type":"hdri",
					"uri":"outDoor.hdr",
					"projection":"longlat",
					"strength":1
				}
			},
			"name":"Scene",
			"nodes":[
				0,
				1,
				2,
				3,
				4,
				5,
				6,
				7,
				8,
				9,
				10,
				11,
				12,
				13,
				14,
				15,
				17,
				19,
				21,
				23,
				25,
				27,
				29,
				31,
				33,
				35,
				37,
				39,
				41,
				43,
				45,
				47,
				48,
				49
			]
		}
	],
	"nodes":[
		{
			"mesh":0,
			"name":"Bishop_B1",
			"translation":[
				-0.09403245151042938,
				0.01697981357574463,
				0.21908524632453918
			]
		},
		{
			"mesh":0,
			"name":"Bishop_B2",
			"translation":[
				0.08951026201248169,
				0.01697981357574463,
				0.21954728662967682
			]
		},
		{
			"mesh":1,
			"name":"Bishop_W1",
			"translation":[
				0.090296670794487,
				0.01697981357574463,
				-0.2176361083984375
			]
		},
		{
			"mesh":1,
			"name":"Bishop_W2",
			"translation":[
				-0.09416553378105164,
				0.01697981357574463,
				-0.22063007950782776
			]
		},
		{
			"camera":0,
			"name":"Camera",
			"rotation":[
				0.04440818354487419,
				-0.3889155983924866,
				0.018772196024656296,
				0.9200109839439392
			],
			"translation":[
				-0.42630907893180847,
				0.05628424510359764,
				0.20338159799575806
			]
		},
		{
			"mesh":2,
			"name":"Castle_B1",
			"translation":[
				-0.21881157159805298,
				0.01800301857292652,
				0.21959251165390015
			]
		},
		{
			"mesh":2,
			"name":"Castle_B2",
			"translation":[
				0.22001203894615173,
				0.01800301857292652,
				0.2196142077445984
			]
		},
		{
			"mesh":3,
			"name":"Castle_W1",
			"translation":[
				0.21969175338745117,
				0.016820574179291725,
				-0.21970760822296143
			]
		},
		{
			"mesh":3,
			"name":"Castle_W2",
			"translation":[
				-0.21860846877098083,
				0.01710103079676628,
				-0.22002007067203522
			]
		},
		{
			"mesh":4,
			"name":"Chessboard"
		},
		{
			"mesh":5,
			"name":"King_B",
			"translation":[
				-0.03142297640442848,
				0.0174538753926754,
				0.22009074687957764
			]
		},
		{
			"mesh":6,
			"name":"King_W",
			"translation":[
				-0.03176186978816986,
				0.01745394617319107,
				-0.22027580440044403
			]
		},
		{
			"mesh":7,
			"name":"Knight_B1",
			"translation":[
				-0.15675804018974304,
				0.01697981357574463,
				0.22001084685325623
			]
		},
		{
			"mesh":7,
			"name":"Knight_B2",
			"translation":[
				0.1584867238998413,
				0.01697981357574463,
				0.2197423279285431
			]
		},
		{
			"mesh":8,
			"name":"Knight_W1",
			"rotation":[
				0,
				-1,
				0,
				4.371138828673793e-08
			],
			"translation":[
				0.15809699892997742,
				0.016979999840259552,
				-0.22098299860954285
			]
		},
		{
			"mesh":8,
			"name":"Knight_W2",
			"rotation":[
				0,
				-1,
				0,
				4.371138828673793e-08
			],
			"translation":[
				-0.15665100514888763,
				0.016979999840259552,
				-0.22008299827575684
			]
		},
		{
			"mesh":9,
			"name":"Pawn_Top_B1",
			"translation":[
				-0.03125,
				-0.014926999807357788,
				0.03125
			]
		},
		{
			"children":[
				16
			],
			"mesh":10,
			"name":"Pawn_Body_B1",
			"translation":[
				-0.21923202276229858,
				0.014927007257938385,
				0.15638446807861328
			]
		},
		{
			"mesh":9,
			"name":"Pawn_Top_B2",
			"translation":[
				-0.03125,
				-0.014926999807357788,
				0.03125
			]
		},
		{
			"children":[
				18
			],
			"mesh":10,
			"name":"Pawn_Body_B2",
			"translation":[
				-0.15673714876174927,
				0.014927007257938385,
				0.15617261826992035
			]
		},
		{
			"mesh":9,
			"name":"Pawn_Top_B3",
			"translation":[
				-0.03125,
				-0.014926999807357788,
				0.03125
			]
		},
		{
			"children":[
				20
			],
			"mesh":10,
			"name":"Pawn_Body_B3",
			"translation":[
				-0.09381857514381409,
				0.014927007257938385,
				0.1562785506248474
			]
		},
		{
			"mesh":9,
			"name":"Pawn_Top_B4",
			"translation":[
				-0.03125,
				-0.014926999807357788,
				0.03125
			]
		},
		{
			"children":[
				22
			],
			"mesh":10,
			"name":"Pawn_Body_B4",
			"translation":[
				-0.03132370114326477,
				0.014927007257938385,
				0.09357181191444397
			]
		},
		{
			"mesh":9,
			"name":"Pawn_Top_B5",
			"translation":[
				-0.03124999813735485,
				-0.014926999807357788,
				0.03125
			]
		},
		{
			"children":[
				24
			],
			"mesh":10,
			"name":"Pawn_Body_B5",
			"translation":[
				0.031245321035385132,
				0.014927007257938385,
				0.15634210407733917
			]
		},
		{
			"mesh":9,
			"name":"Pawn_Top_B6",
			"translation":[
				-0.03125,
				-0.014926999807357788,
				0.03125
			]
		},
		{
			"children":[
				26
			],
			"mesh":10,
			"name":"Pawn_Body_B6",
			"translation":[
				0.09381434321403503,
				0.014927007257938385,
				0.15609847009181976
			]
		},
		{
			"mesh":9,
			"name":"Pawn_Top_B7",
			"translation":[
				-0.03125,
				-0.014926999807357788,
				0.03125
			]
		},
		{
			"children":[
				28
			],
			"mesh":10,
			"name":"Pawn_Body_B7",
			"translation":[
				0.15611860156059265,
				0.014927007257938385,
				0.15625736117362976
			]
		},
		{
			"mesh":9,
			"name":"Pawn_Top_B8",
			"translation":[
				-0.03125,
				-0.014926999807357788,
				0.03125
			]
		},
		{
			"children":[
				30
			],
			"mesh":10,
			"name":"Pawn_Body_B8",
			"translation":[
				0.21876174211502075,
				0.014927007257938385,
				0.15628913044929504
			]
		},
		{
			"mesh":11,
			"name":"Pawn_Top_W1",
			"translation":[
				-0.03125,
				-0.014926999807357788,
				0.03125
			]
		},
		{
			"children":[
				32
			],
			"mesh":12,
			"name":"Pawn_Body_W1",
			"translation":[
				0.21845926344394684,
				0.014926999807357788,
				-0.15599016845226288
			]
		},
		{
			"mesh":11,
			"name":"Pawn_Top_W2",
			"translation":[
				-0.03125,
				-0.014926999807357788,
				0.03125
			]
		},
		{
			"children":[
				34
			],
			"mesh":12,
			"name":"Pawn_Body_W2",
			"translation":[
				0.15633293986320496,
				0.014926999807357788,
				-0.15608981251716614
			]
		},
		{
			"mesh":11,
			"name":"Pawn_Top_W3",
			"translation":[
				-0.03125,
				-0.014926999807357788,
				0.03125
			]
		},
		{
			"children":[
				36
			],
			"mesh":12,
			"name":"Pawn_Body_W3",
			"translation":[
				0.09358328580856323,
				0.014926999807357788,
				-0.09414908289909363
			]
		},
		{
			"mesh":11,
			"name":"Pawn_Top_W4",
			"translation":[
				-0.03124999813735485,
				-0.014926999807357788,
				0.03124999813735485
			]
		},
		{
			"children":[
				38
			],
			"mesh":12,
			"name":"Pawn_Body_W4",
			"translation":[
				0.03124999813735485,
				0.014926999807357788,
				-0.03124999813735485
			]
		},
		{
			"mesh":11,
			"name":"Pawn_Top_W5",
			"translation":[
				-0.03124999813735485,
				-0.014926999807357788,
				0.03125
			]
		},
		{
			"children":[
				40
			],
			"mesh":12,
			"name":"Pawn_Body_W5",
			"translation":[
				-0.031169699504971504,
				0.014926999807357788,
				-0.1564261019229889
			]
		},
		{
			"mesh":11,
			"name":"Pawn_Top_W6",
			"translation":[
				-0.03125,
				-0.014926999807357788,
				0.03125
			]
		},
		{
			"children":[
				42
			],
			"mesh":12,
			"name":"Pawn_Body_W6",
			"translation":[
				-0.09379050135612488,
				0.014926999807357788,
				-0.1562434285879135
			]
		},
		{
			"mesh":11,
			"name":"Pawn_Top_W7",
			"translation":[
				-0.03125,
				-0.014926999807357788,
				0.03125
			]
		},
		{
			"children":[
				44
			],
			"mesh":12,
			"name":"Pawn_Body_W7",
			"translation":[
				-0.1564229130744934,
				0.014927003532648087,
				-0.1564216911792755
			]
		},
		{
			"mesh":11,
			"name":"Pawn_Top_W8",
			"translation":[
				-0.03125,
				-0.014926999807357788,
				0.03125
			]
		},
		{
			"children":[
				46
			],
			"mesh":12,
			"name":"Pawn_Body_W8",
			"translation":[
				-0.21923202276229858,
				0.014927007257938385,
				-0.15629565715789795
			]
		},
		{
			"mesh":13,
			"name":"Queen_B",
			"translation":[
				0.030731208622455597,
				0.01762339472770691,
				0.21983970701694489
			]
		},
		{
			"mesh":14,
			"name":"Queen_W",
			"translation":[
				0.03090556710958481,
				0.01686232164502144,
				-0.22027580440044403
			]
		}
	],
	"cameras":[
		{
			"extensions":{
				"EXT_camera_lens":{
					"sensorSize":24,
					"fStop":1.7999999523162842,
					"focusDistance":0.5399999618530273,
					"apertureBlades":0,
					"apertureRotation":0,
					"apertureRatio":1
				}
			},
			"name":"Camera.001",
			"perspective":{
				"aspectRatio":1.7777777777777777,
				"yfov":0.39959652046304894,
				"zfar":1000,
				"znear":0.10000000149011612
			},
			"type":"perspective"
		}
	],
	"materials":[
		{
			"extensions":{
				"EXT_foundation_materials":{
					"shaderBlock":"principled"
				}
			},
			"name":"Bishop_Black",
			"normalTexture":{
				"index":0
			},
			"occlusionTexture":{
				"index":1
			},
			"pbrMetallicRoughness":{
				"baseColorTexture":{
					"index":2
				},
				"metallicRoughnessTexture":{
					"index":1
				}
			}
		},
		{
			"extensions":{
				"EXT_foundation_materials":{
					"shaderBlock":"principled"
				}
			},
			"name":"Bishop_White",
			"normalTexture":{
				"index":3
			},
			"occlusionTexture":{
				"index":4
			},
			"pbrMetallicRoughness":{
				"baseColorTexture":{
					"index":5
				},
				"metallicRoughnessTexture":{
					"index":4
				}
			}
		},
		{
			"extensions":{
				"EXT_foundation_materials":{
					"shaderBlock":"principled"
				}
			},
			"name":"Castle_Black",
			"normalTexture":{
				"index":6
			},
			"occlusionTexture":{
				"index":7
			},
			"pbrMetallicRoughness":{
				"baseColorTexture":{
					"index":8
				},
				"metallicRoughnessTexture":{
					"index":7
				}
			}
		},
		{
			"extensions":{
				"EXT_foundation_materials":{
					"shaderBlock":"principled"
				}
			},
			"name":"Castle_White",
			"normalTexture":{
				"index":9
			},
			"occlusionTexture":{
				"index":10
			},
			"pbrMetallicRoughness":{
				"baseColorTexture":{
					"index":11
				},
				"metallicRoughnessTexture":{
					"index":10
				}
			}
		},
		{
			"extensions":{
				"EXT_foundation_materials":{
					"shaderBlock":"principled"
				}
			},
			"name":"Chessboard",
			"normalTexture":{
				"index":12
			},
			"occlusionTexture":{
				"index":13
			},
			"pbrMetallicRoughness":{
				"baseColorTexture":{
					"index":14
				},
				"metallicRoughnessTexture":{
					"index":13
				}
			}
		},
		{
			"extensions":{
				"EXT_foundation_materials":{
					"shaderBlock":"principled"
				}
			},
			"name":"King_Black",
			"normalTexture":{
				"index":15
			},
			"occlusionTexture":{
				"index":16
			},
			"pbrMetallicRoughness":{
				"baseColorTexture":{
					"index":17
				},
				"metallicRoughnessTexture":{
					"index":16
				}
			}
		},
		{
			"extensions":{
				"EXT_foundation_materials":{
					"shaderBlock":"principled"
				}
			},
			"name":"King_White",
			"normalTexture":{
				"index":18
			},
			"occlusionTexture":{
				"index":19
			},
			"pbrMetallicRoughness":{
				"baseColorTexture":{
					"index":20
				},
				"metallicRoughnessTexture":{
					"index":19
				}
			}
		},
		{
			"extensions":{
				"EXT_foundation_materials":{
					"shaderBlock":"principled"
				}
			},
			"name":"Knight_Black",
			"normalTexture":{
				"index":21
			},
			"occlusionTexture":{
				"index":22
			},
			"pbrMetallicRoughness":{
				"baseColorTexture":{
					"index":23
				},
				"metallicRoughnessTexture":{
					"index":22
				}
			}
		},
		{
			"extensions":{
				"EXT_foundation_materials":{
					"shaderBlock":"principled"
				}
			},
			"name":"Knight_White",
			"normalTexture":{
				"index":24
			},
			"occlusionTexture":{
				"index":25
			},
			"pbrMetallicRoughness":{
				"baseColorTexture":{
					"index":26
				},
				"metallicRoughnessTexture":{
					"index":25
				}
			}
		},
		{
			"doubleSided":false,
			"extensions":{
				"KHR_materials_transmission":{
					"transmissionFactor":1
				},
				"KHR_materials_volume":{
					"attenuationColor":[
						0.800000011920929,
						0.800000011920929,
						0.800000011920929
					],
					"thicknessFactor":0.2199999988079071
				},
				"EXT_foundation_materials":{
					"shaderBlock":"principled"
				}
			},
			"name":"Pawn_Top_Black",
			"normalTexture":{
				"index":27
			},
			"pbrMetallicRoughness":{
				"baseColorFactor":[
					0.2994999885559082,
					0.5,
					0.44999998807907104,
					1
				],
				"metallicRoughnessTexture":{
					"index":28
				}
			}
		},
		{
			"extensions":{
				"EXT_foundation_materials":{
					"shaderBlock":"principled"
				}
			},
			"name":"Pawn_Body_Black",
			"normalTexture":{
				"index":29
			},
			"occlusionTexture":{
				"index":30
			},
			"pbrMetallicRoughness":{
				"baseColorTexture":{
					"index":31
				},
				"metallicRoughnessTexture":{
					"index":30
				}
			}
		},
		{
			"doubleSided":false,
			"extensions":{
				"KHR_materials_transmission":{
					"transmissionFactor":1
				},
				"KHR_materials_volume":{
					"attenuationColor":[
						0.800000011920929,
						0.800000011920929,
						0.800000011920929
					],
					"thicknessFactor":0.2199999988079071
				},
				"EXT_foundation_materials":{
					"shaderBlock":"principled"
				}
			},
			"name":"Pawn_Top_White",
			"normalTexture":{
				"index":32
			},
			"pbrMetallicRoughness":{
				"baseColorFactor":[
					1,
					1,
					0.828000009059906,
					1
				],
				"metallicRoughnessTexture":{
					"index":33
				}
			}
		},
		{
			"extensions":{
				"EXT_foundation_materials":{
					"shaderBlock":"principled"
				}
			},
			"name":"Pawn_Body_White",
			"normalTexture":{
				"index":34
			},
			"occlusionTexture":{
				"index":35
			},
			"pbrMetallicRoughness":{
				"baseColorTexture":{
					"index":36
				},
				"metallicRoughnessTexture":{
					"index":35
				}
			}
		},
		{
			"extensions":{
				"EXT_foundation_materials":{
					"shaderBlock":"principled"
				}
			},
			"name":"Queen_Black",
			"normalTexture":{
				"index":37
			},
			"occlusionTexture":{
				"index":38
			},
			"pbrMetallicRoughness":{
				"baseColorTexture":{
					"index":39
				},
				"metallicRoughnessTexture":{
					"index":38
				}
			}
		},
		{
			"extensions":{
				"EXT_foundation_materials":{
					"shaderBlock":"principled"
				}
			},
			"name":"Queen_White",
			"normalTexture":{
				"index":40
			},
			"occlusionTexture":{
				"index":41
			},
			"pbrMetallicRoughness":{
				"baseColorTexture":{
					"index":42
				},
				"metallicRoughnessTexture":{
					"index":41
				}
			}
		}
	],
	"meshes":[
		{
			"name":"Bishop_Shared",
			"primitives":[
				{
					"attributes":{
						"POSITION":0,
						"NORMAL":1,
						"TEXCOORD_0":2
					},
					"indices":3,
					"material":0
				}
			]
		},
		{
			"name":"Bishop_Shared.001",
			"primitives":[
				{
					"attributes":{
						"POSITION":4,
						"NORMAL":5,
						"TEXCOORD_0":6
					},
					"indices":3,
					"material":1
				}
			]
		},
		{
			"name":"Castle_Shared",
			"primitives":[
				{
					"attributes":{
						"POSITION":7,
						"NORMAL":8,
						"TEXCOORD_0":9
					},
					"indices":10,
					"material":2
				}
			]
		},
		{
			"name":"Castle_Shared.001",
			"primitives":[
				{
					"attributes":{
						"POSITION":11,
						"NORMAL":12,
						"TEXCOORD_0":13
					},
					"indices":10,
					"material":3
				}
			]
		},
		{
			"name":"Chessboard",
			"primitives":[
				{
					"attributes":{
						"POSITION":14,
						"NORMAL":15,
						"TEXCOORD_0":16
					},
					"indices":17,
					"material":4
				}
			]
		},
		{
			"name":"King_Shared",
			"primitives":[
				{
					"attributes":{
						"POSITION":18,
						"NORMAL":19,
						"TEXCOORD_0":20
					},
					"indices":21,
					"material":5
				}
			]
		},
		{
			"name":"King_Shared.001",
			"primitives":[
				{
					"attributes":{
						"POSITION":22,
						"NORMAL":23,
						"TEXCOORD_0":24
					},
					"indices":21,
					"material":6
				}
			]
		},
		{
			"name":"Knight_Shared",
			"primitives":[
				{
					"attributes":{
						"POSITION":25,
						"NORMAL":26,
						"TEXCOORD_0":27
					},
					"indices":28,
					"material":7
				}
			]
		},
		{
			"name":"Knight_Shared.001",
			"primitives":[
				{
					"attributes":{
						"POSITION":29,
						"NORMAL":30,
						"TEXCOORD_0":31
					},
					"indices":28,
					"material":8
				}
			]
		},
		{
			"name":"Pawn_Top_Shared.001",
			"primitives":[
				{
					"attributes":{
						"POSITION":32,
						"NORMAL":33,
						"TEXCOORD_0":34
					},
					"indices":35,
					"material":9
				}
			]
		},
		{
			"name":"Pawn_Body_Shared.001",
			"primitives":[
				{
					"attributes":{
						"POSITION":36,
						"NORMAL":37,
						"TEXCOORD_0":38
					},
					"indices":39,
					"material":10
				}
			]
		},
		{
			"name":"Pawn_Top_Shared",
			"primitives":[
				{
					"attributes":{
						"POSITION":40,
						"NORMAL":41,
						"TEXCOORD_0":42
					},
					"indices":35,
					"material":11
				}
			]
		},
		{
			"name":"Pawn_Body_Shared",
			"primitives":[
				{
					"attributes":{
						"POSITION":43,
						"NORMAL":44,
						"TEXCOORD_0":45
					},
					"indices":39,
					"material":12
				}
			]
		},
		{
			"name":"Queen_Shared",
			"primitives":[
				{
					"attributes":{
						"POSITION":46,
						"NORMAL":47,
						"TEXCOORD_0":48
					},
					"indices":49,
					"material":13
				}
			]
		},
		{
			"name":"Queen_Shared.001",
			"primitives":[
				{
					"attributes":{
						"POSITION":50,
						"NORMAL":51,
						"TEXCOORD_0":52
					},
					"indices":49,
					"material":14
				}
			]
		}
	],
	"textures":[
		{
			"sampler":0,
			"source":0
		},
		{
			"sampler":0,
			"source":1
		},
		{
			"sampler":0,
			"source":2
		},
		{
			"sampler":0,
			"source":3
		},
		{
			"sampler":0,
			"source":4
		},
		{
			"sampler":0,
			"source":5
		},
		{
			"sampler":0,
			"source":6
		},
		{
			"sampler":0,
			"source":7
		},
		{
			"sampler":0,
			"source":8
		},
		{
			"sampler":0,
			"source":6
		},
		{
			"sampler":0,
			"source":7
		},
		{
			"sampler":0,
			"source":9
		},
		{
			"sampler":0,
			"source":10
		},
		{
			"sampler":0,
			"source":11
		},
		{
			"sampler":0,
			"source":12
		},
		{
			"sampler":0,
			"source":13
		},
		{
			"sampler":0,
			"source":14
		},
		{
			"sampler":0,
			"source":15
		},
		{
			"sampler":0,
			"source":16
		},
		{
			"sampler":0,
			"source":17
		},
		{
			"sampler":0,
			"source":18
		},
		{
			"sampler":0,
			"source":19
		},
		{
			"sampler":0,
			"source":20
		},
		{
			"sampler":0,
			"source":21
		},
		{
			"sampler":0,
			"source":19
		},
		{
			"sampler":0,
			"source":20
		},
		{
			"sampler":0,
			"source":22
		},
		{
			"sampler":0,
			"source":23
		},
		{
			"sampler":0,
			"source":24
		},
		{
			"sampler":0,
			"source":23
		},
		{
			"sampler":0,
			"source":24
		},
		{
			"sampler":0,
			"source":25
		},
		{
			"sampler":0,
			"source":23
		},
		{
			"sampler":0,
			"source":24
		},
		{
			"sampler":0,
			"source":23
		},
		{
			"sampler":0,
			"source":24
		},
		{
			"sampler":0,
			"source":26
		},
		{
			"sampler":0,
			"source":27
		},
		{
			"sampler":0,
			"source":28
		},
		{
			"sampler":0,
			"source":29
		},
		{
			"sampler":0,
			"source":30
		},
		{
			"sampler":0,
			"source":31
		},
		{
			"sampler":0,
			"source":32
		}
	],
	"images":[
		{
			"mimeType":"image/jpeg",
			"name":"Image_4",
			"uri":"Image_4.jpg"
		},
		{
			"mimeType":"image/jpeg",
			"name":"Image_5",
			"uri":"Image_5.jpg"
		},
		{
			"mimeType":"image/jpeg",
			"name":"Image_3",
			"uri":"Image_3.jpg"
		},
		{
			"mimeType":"image/jpeg",
			"name":"Image_1",
			"uri":"Image_1.jpg"
		},
		{
			"mimeType":"image/jpeg",
			"name":"Image_2",
			"uri":"Image_2.jpg"
		},
		{
			"mimeType":"image/jpeg",
			"name":"Image_0",
			"uri":"Image_0.jpg"
		},
		{
			"mimeType":"image/jpeg",
			"name":"Image_26",
			"uri":"Image_26.jpg"
		},
		{
			"mimeType":"image/jpeg",
			"name":"Image_27",
			"uri":"Image_27.jpg"
		},
		{
			"mimeType":"image/jpeg",
			"name":"Image_25",
			"uri":"Image_25.jpg"
		},
		{
			"mimeType":"image/jpeg",
			"name":"Image_28",
			"uri":"Image_28.jpg"
		},
		{
			"mimeType":"image/jpeg",
			"name":"Image_19",
			"uri":"Image_19.jpg"
		},
		{
			"mimeType":"image/jpeg",
			"name":"Image_20",
			"uri":"Image_20.jpg"
		},
		{
			"mimeType":"image/jpeg",
			"name":"Image_18",
			"uri":"Image_18.jpg"
		},
		{
			"mimeType":"image/jpeg",
			"name":"Image_7",
			"uri":"Image_7.jpg"
		},
		{
			"mimeType":"image/jpeg",
			"name":"Image_8",
			"uri":"Image_8.jpg"
		},
		{
			"mimeType":"image/jpeg",
			"name":"Image_6",
			"uri":"Image_6.jpg"
		},
		{
			"mimeType":"image/jpeg",
			"name":"Image_10",
			"uri":"Image_10.jpg"
		},
		{
			"mimeType":"image/jpeg",
			"name":"Image_11",
			"uri":"Image_11.jpg"
		},
		{
			"mimeType":"image/jpeg",
			"name":"Image_9",
			"uri":"Image_9.jpg"
		},
		{
			"mimeType":"image/jpeg",
			"name":"Image_30",
			"uri":"Image_30.jpg"
		},
		{
			"mimeType":"image/jpeg",
			"name":"Image_31",
			"uri":"Image_31.jpg"
		},
		{
			"mimeType":"image/jpeg",
			"name":"Image_29",
			"uri":"Image_29.jpg"
		},
		{
			"mimeType":"image/jpeg",
			"name":"Image_32",
			"uri":"Image_32.jpg"
		},
		{
			"mimeType":"image/jpeg",
			"name":"Image_21",
			"uri":"Image_21.jpg"
		},
		{
			"mimeType":"image/jpeg",
			"name":"Image_22",
			"uri":"Image_22.jpg"
		},
		{
			"mimeType":"image/jpeg",
			"name":"Image_24",
			"uri":"Image_24.jpg"
		},
		{
			"mimeType":"image/jpeg",
			"name":"Image_23",
			"uri":"Image_23.jpg"
		},
		{
			"mimeType":"image/jpeg",
			"name":"Image_13",
			"uri":"Image_13.jpg"
		},
		{
			"mimeType":"image/jpeg",
			"name":"Image_14",
			"uri":"Image_14.jpg"
		},
		{
			"mimeType":"image/jpeg",
			"name":"Image_12",
			"uri":"Image_12.jpg"
		},
		{
			"mimeType":"image/jpeg",
			"name":"Image_16",
			"uri":"Image_16.jpg"
		},
		{
			"mimeType":"image/jpeg",
			"name":"Image_17",
			"uri":"Image_17.jpg"
		},
		{
			"mimeType":"image/jpeg",
			"name":"Image_15",
			"uri":"Image_15.jpg"
		}
	],
	"accessors":[
		{
			"bufferView":0,
			"componentType":5126,
			"count":42578,
			"max":[
				0.024297118186950684,
				0.12363776564598083,
				0.024310514330863953
			],
			"min":[
				-0.024297118186950684,
				-0.00039617158472537994,
				-0.024283722043037415
			],
			"type":"VEC3"
		},
		{
			"bufferView":1,
			"componentType":5126,
			"count":42578,
			"type":"VEC3"
		},
		{
			"bufferView":2,
			"componentType":5126,
			"count":42578,
			"type":"VEC2"
		},
		{
			"bufferView":3,
			"componentType":5123,
			"count":224121,
			"type":"SCALAR"
		},
		{
			"bufferView":4,
			"componentType":5126,
			"count":42578,
			"max":[
				0.024297118186950684,
				0.12363776564598083,
				0.024310514330863953
			],
			"min":[
				-0.024297118186950684,
				-0.00039617158472537994,
				-0.024283722043037415
			],
			"type":"VEC3"
		},
		{
			"bufferView":5,
			"componentType":5126,
			"count":42578,
			"type":"VEC3"
		},
		{
			"bufferView":6,
			"componentType":5126,
			"count":42578,
			"type":"VEC2"
		},
		{
			"bufferView":7,
			"componentType":5126,
			"count":25268,
			"max":[
				0.0268431156873703,
				0.09708680957555771,
				0.0268431156873703
			],
			"min":[
				-0.0268431156873703,
				-3.725290298461914e-09,
				-0.0268431156873703
			],
			"type":"VEC3"
		},
		{
			"bufferView":8,
			"componentType":5126,
			"count":25268,
			"type":"VEC3"
		},
		{
			"bufferView":9,
			"componentType":5126,
			"count":25268,
			"type":"VEC2"
		},
		{
			"bufferView":10,
			"componentType":5123,
			"count":91584,
			"type":"SCALAR"
		},
		{
			"bufferView":11,
			"componentType":5126,
			"count":25268,
			"max":[
				0.0268431156873703,
				0.09708680957555771,
				0.0268431156873703
			],
			"min":[
				-0.0268431156873703,
				-3.725290298461914e-09,
				-0.0268431156873703
			],
			"type":"VEC3"
		},
		{
			"bufferView":12,
			"componentType":5126,
			"count":25268,
			"type":"VEC3"
		},
		{
			"bufferView":13,
			"componentType":5126,
			"count":25268,
			"type":"VEC2"
		},
		{
			"bufferView":14,
			"componentType":5126,
			"count":115648,
			"max":[
				0.3527080714702606,
				0.01851509138941765,
				0.3527080714702606
			],
			"min":[
				-0.3527080714702606,
				-5.566945304735782e-08,
				-0.3527080714702606
			],
			"type":"VEC3"
		},
		{
			"bufferView":15,
			"componentType":5126,
			"count":115648,
			"type":"VEC3"
		},
		{
			"bufferView":16,
			"componentType":5126,
			"count":115648,
			"type":"VEC2"
		},
		{
			"bufferView":17,
			"componentType":5125,
			"count":277248,
			"type":"SCALAR"
		},
		{
			"bufferView":18,
			"componentType":5126,
			"count":29406,
			"max":[
				0.028035586699843407,
				0.15154190361499786,
				0.02803558111190796
			],
			"min":[
				-0.028035584837198257,
				-3.725290298461914e-09,
				-0.02803558111190796
			],
			"type":"VEC3"
		},
		{
			"bufferView":19,
			"componentType":5126,
			"count":29406,
			"type":"VEC3"
		},
		{
			"bufferView":20,
			"componentType":5126,
			"count":29406,
			"type":"VEC2"
		},
		{
			"bufferView":21,
			"componentType":5123,
			"count":121440,
			"type":"SCALAR"
		},
		{
			"bufferView":22,
			"componentType":5126,
			"count":29406,
			"max":[
				0.028035586699843407,
				0.15154190361499786,
				0.02803558111190796
			],
			"min":[
				-0.028035584837198257,
				-3.725290298461914e-09,
				-0.02803558111190796
			],
			"type":"VEC3"
		},
		{
			"bufferView":23,
			"componentType":5126,
			"count":29406,
			"type":"VEC3"
		},
		{
			"bufferView":24,
			"componentType":5126,
			"count":29406,
			"type":"VEC2"
		},
		{
			"bufferView":25,
			"componentType":5126,
			"count":6437,
			"max":[
				0.024992674589157104,
				0.09972551465034485,
				0.028097912669181824
			],
			"min":[
				-0.024992674589157104,
				-0.00039299391210079193,
				-0.032059311866760254
			],
			"type":"VEC3"
		},
		{
			"bufferView":26,
			"componentType":5126,
			"count":6437,
			"type":"VEC3"
		},
		{
			"bufferView":27,
			"componentType":5126,
			"count":6437,
			"type":"VEC2"
		},
		{
			"bufferView":28,
			"componentType":5123,
			"count":33552,
			"type":"SCALAR"
		},
		{
			"bufferView":29,
			"componentType":5126,
			"count":6437,
			"max":[
				0.024992674589157104,
				0.09972551465034485,
				0.028097912669181824
			],
			"min":[
				-0.024992674589157104,
				-0.00039299391210079193,
				-0.032059311866760254
			],
			"type":"VEC3"
		},
		{
			"bufferView":30,
			"componentType":5126,
			"count":6437,
			"type":"VEC3"
		},
		{
			"bufferView":31,
			"componentType":5126,
			"count":6437,
			"type":"VEC2"
		},
		{
			"bufferView":32,
			"componentType":5126,
			"count":1173,
			"max":[
				0.04213219881057739,
				0.08137139678001404,
				-0.020367786288261414
			],
			"min":[
				0.02036779560148716,
				0.0592837817966938,
				-0.042132191359996796
			],
			"type":"VEC3"
		},
		{
			"bufferView":33,
			"componentType":5126,
			"count":1173,
			"type":"VEC3"
		},
		{
			"bufferView":34,
			"componentType":5126,
			"count":1173,
			"type":"VEC2"
		},
		{
			"bufferView":35,
			"componentType":5123,
			"count":6624,
			"type":"SCALAR"
		},
		{
			"bufferView":36,
			"componentType":5126,
			"count":26303,
			"max":[
				0.021040337160229683,
				0.04976364225149155,
				0.021040335297584534
			],
			"min":[
				-0.021040331572294235,
				0,
				-0.021040333434939384
			],
			"type":"VEC3"
		},
		{
			"bufferView":37,
			"componentType":5126,
			"count":26303,
			"type":"VEC3"
		},
		{
			"bufferView":38,
			"componentType":5126,
			"count":26303,
			"type":"VEC2"
		},
		{
			"bufferView":39,
			"componentType":5123,
			"count":141696,
			"type":"SCALAR"
		},
		{
			"bufferView":40,
			"componentType":5126,
			"count":1173,
			"max":[
				0.04213219881057739,
				0.08137139678001404,
				-0.020367786288261414
			],
			"min":[
				0.02036779560148716,
				0.0592837817966938,
				-0.042132191359996796
			],
			"type":"VEC3"
		},
		{
			"bufferView":41,
			"componentType":5126,
			"count":1173,
			"type":"VEC3"
		},
		{
			"bufferView":42,
			"componentType":5126,
			"count":1173,
			"type":"VEC2"
		},
		{
			"bufferView":43,
			"componentType":5126,
			"count":26303,
			"max":[
				0.021040337160229683,
				0.04976364225149155,
				0.021040335297584534
			],
			"min":[
				-0.021040331572294235,
				0,
				-0.021040333434939384
			],
			"type":"VEC3"
		},
		{
			"bufferView":44,
			"componentType":5126,
			"count":26303,
			"type":"VEC3"
		},
		{
			"bufferView":45,
			"componentType":5126,
			"count":26303,
			"type":"VEC2"
		},
		{
			"bufferView":46,
			"componentType":5126,
			"count":20990,
			"max":[
				0.026661992073059082,
				0.1361335813999176,
				0.026661992073059082
			],
			"min":[
				-0.026661990210413933,
				0,
				-0.026661992073059082
			],
			"type":"VEC3"
		},
		{
			"bufferView":47,
			"componentType":5126,
			"count":20990,
			"type":"VEC3"
		},
		{
			"bufferView":48,
			"componentType":5126,
			"count":20990,
			"type":"VEC2"
		},
		{
			"bufferView":49,
			"componentType":5123,
			"count":103104,
			"type":"SCALAR"
		},
		{
			"bufferView":50,
			"componentType":5126,
			"count":20990,
			"max":[
				0.026661992073059082,
				0.1361335813999176,
				0.026661992073059082
			],
			"min":[
				-0.026661990210413933,
				0,
				-0.026661992073059082
			],
			"type":"VEC3"
		},
		{
			"bufferView":51,
			"componentType":5126,
			"count":20990,
			"type":"VEC3"
		},
		{
			"bufferView":52,
			"componentType":5126,
			"count":20990,
			"type":"VEC2"
		}
	],
	"bufferViews":[
		{
			"buffer":0,
			"byteLength":510936,
			"byteOffset":0,
			"target":34962
		},
		{
			"buffer":0,
			"byteLength":510936,
			"byteOffset":510936,
			"target":34962
		},
		{
			"buffer":0,
			"byteLength":340624,
			"byteOffset":1021872,
			"target":34962
		},
		{
			"buffer":0,
			"byteLength":448242,
			"byteOffset":1362496,
			"target":34963
		},
		{
			"buffer":0,
			"byteLength":510936,
			"byteOffset":1810740,
			"target":34962
		},
		{
			"buffer":0,
			"byteLength":510936,
			"byteOffset":2321676,
			"target":34962
		},
		{
			"buffer":0,
			"byteLength":340624,
			"byteOffset":2832612,
			"target":34962
		},
		{
			"buffer":0,
			"byteLength":303216,
			"byteOffset":3173236,
			"target":34962
		},
		{
			"buffer":0,
			"byteLength":303216,
			"byteOffset":3476452,
			"target":34962
		},
		{
			"buffer":0,
			"byteLength":202144,
			"byteOffset":3779668,
			"target":34962
		},
		{
			"buffer":0,
			"byteLength":183168,
			"byteOffset":3981812,
			"target":34963
		},
		{
			"buffer":0,
			"byteLength":303216,
			"byteOffset":4164980,
			"target":34962
		},
		{
			"buffer":0,
			"byteLength":303216,
			"byteOffset":4468196,
			"target":34962
		},
		{
			"buffer":0,
			"byteLength":202144,
			"byteOffset":4771412,
			"target":34962
		},
		{
			"buffer":0,
			"byteLength":1387776,
			"byteOffset":4973556,
			"target":34962
		},
		{
			"buffer":0,
			"byteLength":1387776,
			"byteOffset":6361332,
			"target":34962
		},
		{
			"buffer":0,
			"byteLength":925184,
			"byteOffset":7749108,
			"target":34962
		},
		{
			"buffer":0,
			"byteLength":1108992,
			"byteOffset":8674292,
			"target":34963
		},
		{
			"buffer":0,
			"byteLength":352872,
			"byteOffset":9783284,
			"target":34962
		},
		{
			"buffer":0,
			"byteLength":352872,
			"byteOffset":10136156,
			"target":34962
		},
		{
			"buffer":0,
			"byteLength":235248,
			"byteOffset":10489028,
			"target":34962
		},
		{
			"buffer":0,
			"byteLength":242880,
			"byteOffset":10724276,
			"target":34963
		},
		{
			"buffer":0,
			"byteLength":352872,
			"byteOffset":10967156,
			"target":34962
		},
		{
			"buffer":0,
			"byteLength":352872,
			"byteOffset":11320028,
			"target":34962
		},
		{
			"buffer":0,
			"byteLength":235248,
			"byteOffset":11672900,
			"target":34962
		},
		{
			"buffer":0,
			"byteLength":77244,
			"byteOffset":11908148,
			"target":34962
		},
		{
			"buffer":0,
			"byteLength":77244,
			"byteOffset":11985392,
			"target":34962
		},
		{
			"buffer":0,
			"byteLength":51496,
			"byteOffset":12062636,
			"target":34962
		},
		{
			"buffer":0,
			"byteLength":67104,
			"byteOffset":12114132,
			"target":34963
		},
		{
			"buffer":0,
			"byteLength":77244,
			"byteOffset":12181236,
			"target":34962
		},
		{
			"buffer":0,
			"byteLength":77244,
			"byteOffset":12258480,
			"target":34962
		},
		{
			"buffer":0,
			"byteLength":51496,
			"byteOffset":12335724,
			"target":34962
		},
		{
			"buffer":0,
			"byteLength":14076,
			"byteOffset":12387220,
			"target":34962
		},
		{
			"buffer":0,
			"byteLength":14076,
			"byteOffset":12401296,
			"target":34962
		},
		{
			"buffer":0,
			"byteLength":9384,
			"byteOffset":12415372,
			"target":34962
		},
		{
			"buffer":0,
			"byteLength":13248,
			"byteOffset":12424756,
			"target":34963
		},
		{
			"buffer":0,
			"byteLength":315636,
			"byteOffset":12438004,
			"target":34962
		},
		{
			"buffer":0,
			"byteLength":315636,
			"byteOffset":12753640,
			"target":34962
		},
		{
			"buffer":0,
			"byteLength":210424,
			"byteOffset":13069276,
			"target":34962
		},
		{
			"buffer":0,
			"byteLength":283392,
			"byteOffset":13279700,
			"target":34963
		},
		{
			"buffer":0,
			"byteLength":14076,
			"byteOffset":13563092,
			"target":34962
		},
		{
			"buffer":0,
			"byteLength":14076,
			"byteOffset":13577168,
			"target":34962
		},
		{
			"buffer":0,
			"byteLength":9384,
			"byteOffset":13591244,
			"target":34962
		},
		{
			"buffer":0,
			"byteLength":315636,
			"byteOffset":13600628,
			"target":34962
		},
		{
			"buffer":0,
			"byteLength":315636,
			"byteOffset":13916264,
			"target":34962
		},
		{
			"buffer":0,
			"byteLength":210424,
			"byteOffset":14231900,
			"target":34962
		},
		{
			"buffer":0,
			"byteLength":251880,
			"byteOffset":14442324,
			"target":34962
		},
		{
			"buffer":0,
			"byteLength":251880,
			"byteOffset":14694204,
			"target":34962
		},
		{
			"buffer":0,
			"byteLength":167920,
			"byteOffset":14946084,
			"target":34962
		},
		{
			"buffer":0,
			"byteLength":206208,
			"byteOffset":15114004,
			"target":34963
		},
		{
			"buffer":0,
			"byteLength":251880,
			"byteOffset":15320212,
			"target":34962
		},
		{
			"buffer":0,
			"byteLength":251880,
			"byteOffset":15572092,
			"target":34962
		},
		{
			"buffer":0,
			"byteLength":167920,
			"byteOffset":15823972,
			"target":34962
		}
	],
	"samplers":[
		{
			"magFilter":9729,
			"minFilter":9987
		}
	],
	"buffers":[
		{
			"byteLength":15991892,
			"uri":"game.bin"
		}
	]
}
