{
	"asset":{
		"generator":"Khronos glTF Blender I/O v5.2.23 for Foundation",
		"version":"2.0"
	},
	"extensionsUsed":[
		"KHR_lights_punctual"
	],
	"extensionsRequired":[
		"KHR_lights_punctual"
	],
	"extensions":{
		"KHR_lights_punctual":{
			"lights":[
				{
					"color":[
						1,
						1,
						1
					],
					"intensity":2145.7078421115875,
					"type":"directional",
					"name":"Area"
				}
			]
		}
	},
	"scene":0,
	"scenes":[
		{
			"name":"Scene",
			"nodes":[
				0,
				1,
				2,
				3,
				4,
				5,
				6,
				7,
				8
			]
		}
	],
	"nodes":[
		{
			"mesh":0,
			"name":"_BG"
		},
		{
			"camera":0,
			"name":"_Cam",
			"rotation":[
				-0.7071068286895752,
				0,
				0,
				0.7071068286895752
			],
			"translation":[
				0,
				1.2998801469802856,
				0
			]
		},
		{
			"extensions":{
				"KHR_lights_punctual":{
					"light":0
				}
			},
			"name":"_Unit",
			"rotation":[
				-0.7071068286895752,
				0,
				0,
				0.7071068286895752
			],
			"translation":[
				0,
				0.12676206231117249,
				0
			]
		},
		{
			"mesh":1,
			"name":"B",
			"scale":[
				0.040000006556510925,
				0.040000006556510925,
				0.040000006556510925
			],
			"translation":[
				-0.3499999940395355,
				0,
				0.10000000149011612
			]
		},
		{
			"mesh":2,
			"name":"Blackbody",
			"scale":[
				0.040000006556510925,
				0.040000006556510925,
				0.040000006556510925
			],
			"translation":[
				0,
				0,
				0.15000000596046448
			]
		},
		{
			"mesh":3,
			"name":"Color Checker",
			"rotation":[
				1,
				0,
				0,
				1.4901161193847656e-07
			],
			"scale":[
				0.8020778894424438,
				1.3305628299713135,
				0.8409366011619568
			],
			"translation":[
				0,
				0.0025339999701827765,
				0
			]
		},
		{
			"mesh":4,
			"name":"G",
			"scale":[
				0.040000006556510925,
				0.040000006556510925,
				0.040000006556510925
			],
			"translation":[
				-0.3499999940395355,
				0,
				0
			]
		},
		{
			"mesh":5,
			"name":"Gradient",
			"scale":[
				0.040000006556510925,
				0.040000006556510925,
				0.040000006556510925
			],
			"translation":[
				0.3499999940395355,
				0,
				-0.10000000149011612
			]
		},
		{
			"mesh":6,
			"name":"R",
			"scale":[
				0.040000006556510925,
				0.040000006556510925,
				0.040000006556510925
			],
			"translation":[
				-0.3499999940395355,
				0,
				-0.10000000149011612
			]
		}
	],
	"cameras":[
		{
			"name":"Camera.002",
			"perspective":{
				"aspectRatio":1.7777777777777777,
				"yfov":0.39959652046304894,
				"zfar":1000,
				"znear":0.10000000149011612
			},
			"type":"perspective"
		}
	],
	"materials":[
		{
			"doubleSided":true,
			"name":"Albedo1"
		},
		{
			"doubleSided":true,
			"name":"Material.004",
			"pbrMetallicRoughness":{
				"baseColorFactor":[
					0,
					0,
					1,
					1
				]
			}
		},
		{
			"doubleSided":true,
			"name":"Material.003",
			"pbrMetallicRoughness":{
				"baseColorFactor":[
					0,
					0,
					0,
					1
				]
			}
		},
		{
			"doubleSided":true,
			"name":"Color Squares",
			"pbrMetallicRoughness":{
				"baseColorTexture":{
					"index":0
				}
			}
		},
		{
			"doubleSided":true,
			"name":"White Reference Lines",
			"pbrMetallicRoughness":{
				"baseColorFactor":[
					0.800000011920929,
					0.800000011920929,
					0.800000011920929,
					1
				],
				"metallicFactor":0,
				"roughnessFactor":0.5
			}
		},
		{
			"doubleSided":true,
			"name":"Car Textured Rough Plastic",
			"pbrMetallicRoughness":{
				"baseColorFactor":[
					0,
					0,
					0,
					1
				],
				"roughnessFactor":0.5
			}
		},
		{
			"doubleSided":true,
			"name":"Material",
			"pbrMetallicRoughness":{
				"baseColorFactor":[
					0,
					1,
					0,
					1
				]
			}
		},
		{
			"doubleSided":true,
			"name":"Material.002",
			"pbrMetallicRoughness":{
				"baseColorTexture":{
					"index":1
				}
			}
		},
		{
			"doubleSided":true,
			"name":"Material.001",
			"pbrMetallicRoughness":{
				"baseColorFactor":[
					1,
					0,
					0,
					1
				]
			}
		}
	],
	"meshes":[
		{
			"name":"Plane",
			"primitives":[
				{
					"attributes":{
						"POSITION":0,
						"NORMAL":1,
						"TEXCOORD_0":2
					},
					"indices":3,
					"material":0
				}
			]
		},
		{
			"name":"Plane.003",
			"primitives":[
				{
					"attributes":{
						"POSITION":4,
						"NORMAL":5,
						"TEXCOORD_0":6
					},
					"indices":7,
					"material":1
				}
			]
		},
		{
			"name":"Plane.004",
			"primitives":[
				{
					"attributes":{
						"POSITION":8,
						"NORMAL":9,
						"TEXCOORD_0":10
					},
					"indices":7,
					"material":2
				}
			]
		},
		{
			"name":"Color Checker",
			"primitives":[
				{
					"attributes":{
						"POSITION":11,
						"NORMAL":12,
						"TEXCOORD_0":13,
						"TEXCOORD_1":14,
						"TEXCOORD_2":15,
						"TEXCOORD_3":16
					},
					"indices":17,
					"material":3
				},
				{
					"attributes":{
						"POSITION":18,
						"NORMAL":19,
						"TEXCOORD_0":20,
						"TEXCOORD_1":21,
						"TEXCOORD_2":22,
						"TEXCOORD_3":23
					},
					"indices":24,
					"material":4
				},
				{
					"attributes":{
						"POSITION":25,
						"NORMAL":26,
						"TEXCOORD_0":27,
						"TEXCOORD_1":28,
						"TEXCOORD_2":29,
						"TEXCOORD_3":30
					},
					"indices":31,
					"material":5
				}
			]
		},
		{
			"name":"Plane.002",
			"primitives":[
				{
					"attributes":{
						"POSITION":32,
						"NORMAL":33,
						"TEXCOORD_0":34
					},
					"indices":7,
					"material":6
				}
			]
		},
		{
			"name":"Plane.005",
			"primitives":[
				{
					"attributes":{
						"POSITION":35,
						"NORMAL":36,
						"TEXCOORD_0":37
					},
					"indices":7,
					"material":7
				}
			]
		},
		{
			"name":"Plane.001",
			"primitives":[
				{
					"attributes":{
						"POSITION":38,
						"NORMAL":39,
						"TEXCOORD_0":40
					},
					"indices":7,
					"material":8
				}
			]
		}
	],
	"textures":[
		{
			"sampler":0,
			"source":0
		},
		{
			"sampler":0,
			"source":1
		}
	],
	"images":[
		{
			"mimeType":"image/jpeg",
			"name":"colorcheck",
			"uri":"colorcheck.jpg"
		},
		{
			"mimeType":"image/png",
			"name":"gradient",
			"uri":"gradient.png"
		}
	],
	"accessors":[
		{
			"bufferView":0,
			"componentType":5126,
			"count":32,
			"max":[
				1,
				-0.007399276364594698,
				0.9993782043457031
			],
			"min":[
				-1,
				-0.05739927664399147,
				-1.0006217956542969
			],
			"type":"VEC3"
		},
		{
			"bufferView":1,
			"componentType":5126,
			"count":32,
			"type":"VEC3"
		},
		{
			"bufferView":2,
			"componentType":5126,
			"count":32,
			"type":"VEC2"
		},
		{
			"bufferView":3,
			"componentType":5123,
			"count":54,
			"type":"SCALAR"
		},
		{
			"bufferView":4,
			"componentType":5126,
			"count":4,
			"max":[
				1,
				0,
				1
			],
			"min":[
				-1,
				0,
				-1
			],
			"type":"VEC3"
		},
		{
			"bufferView":5,
			"componentType":5126,
			"count":4,
			"type":"VEC3"
		},
		{
			"bufferView":6,
			"componentType":5126,
			"count":4,
			"type":"VEC2"
		},
		{
			"bufferView":7,
			"componentType":5123,
			"count":6,
			"type":"SCALAR"
		},
		{
			"bufferView":8,
			"componentType":5126,
			"count":4,
			"max":[
				1,
				0,
				1
			],
			"min":[
				-1,
				0,
				-1
			],
			"type":"VEC3"
		},
		{
			"bufferView":9,
			"componentType":5126,
			"count":4,
			"type":"VEC3"
		},
		{
			"bufferView":10,
			"componentType":5126,
			"count":4,
			"type":"VEC2"
		},
		{
			"bufferView":11,
			"componentType":5126,
			"count":1152,
			"max":[
				0.15963539481163025,
				-0.004293803125619888,
				0.10537625104188919
			],
			"min":[
				-0.16036489605903625,
				-0.00553277600556612,
				-0.10462390631437302
			],
			"type":"VEC3"
		},
		{
			"bufferView":12,
			"componentType":5126,
			"count":1152,
			"type":"VEC3"
		},
		{
			"bufferView":13,
			"componentType":5126,
			"count":1152,
			"type":"VEC2"
		},
		{
			"bufferView":14,
			"componentType":5126,
			"count":1152,
			"type":"VEC2"
		},
		{
			"bufferView":15,
			"componentType":5126,
			"count":1152,
			"type":"VEC2"
		},
		{
			"bufferView":16,
			"componentType":5126,
			"count":1152,
			"type":"VEC2"
		},
		{
			"bufferView":17,
			"componentType":5123,
			"count":1728,
			"type":"SCALAR"
		},
		{
			"bufferView":18,
			"componentType":5126,
			"count":4728,
			"max":[
				0.1602635383605957,
				-0.0042280163615942,
				-0.10621718317270279
			],
			"min":[
				0.05908512696623802,
				-0.006856221705675125,
				-0.11621684581041336
			],
			"type":"VEC3"
		},
		{
			"bufferView":19,
			"componentType":5126,
			"count":4728,
			"type":"VEC3"
		},
		{
			"bufferView":20,
			"componentType":5126,
			"count":4728,
			"type":"VEC2"
		},
		{
			"bufferView":21,
			"componentType":5126,
			"count":4728,
			"type":"VEC2"
		},
		{
			"bufferView":22,
			"componentType":5126,
			"count":4728,
			"type":"VEC2"
		},
		{
			"bufferView":23,
			"componentType":5126,
			"count":4728,
			"type":"VEC2"
		},
		{
			"bufferView":24,
			"componentType":5123,
			"count":6456,
			"type":"SCALAR"
		},
		{
			"bufferView":25,
			"componentType":5126,
			"count":9894,
			"max":[
				0.17979229986667633,
				0.0035354159772396088,
				0.12268025428056717
			],
			"min":[
				-0.18052181601524353,
				-0.0069864485412836075,
				-0.12192792445421219
			],
			"type":"VEC3"
		},
		{
			"bufferView":26,
			"componentType":5126,
			"count":9894,
			"type":"VEC3"
		},
		{
			"bufferView":27,
			"componentType":5126,
			"count":9894,
			"type":"VEC2"
		},
		{
			"bufferView":28,
			"componentType":5126,
			"count":9894,
			"type":"VEC2"
		},
		{
			"bufferView":29,
			"componentType":5126,
			"count":9894,
			"type":"VEC2"
		},
		{
			"bufferView":30,
			"componentType":5126,
			"count":9894,
			"type":"VEC2"
		},
		{
			"bufferView":31,
			"componentType":5123,
			"count":15372,
			"type":"SCALAR"
		},
		{
			"bufferView":32,
			"componentType":5126,
			"count":4,
			"max":[
				1,
				0,
				1
			],
			"min":[
				-1,
				0,
				-1
			],
			"type":"VEC3"
		},
		{
			"bufferView":33,
			"componentType":5126,
			"count":4,
			"type":"VEC3"
		},
		{
			"bufferView":34,
			"componentType":5126,
			"count":4,
			"type":"VEC2"
		},
		{
			"bufferView":35,
			"componentType":5126,
			"count":4,
			"max":[
				1,
				0,
				5.999999523162842
			],
			"min":[
				-1,
				0,
				-1
			],
			"type":"VEC3"
		},
		{
			"bufferView":36,
			"componentType":5126,
			"count":4,
			"type":"VEC3"
		},
		{
			"bufferView":37,
			"componentType":5126,
			"count":4,
			"type":"VEC2"
		},
		{
			"bufferView":38,
			"componentType":5126,
			"count":4,
			"max":[
				1,
				0,
				1
			],
			"min":[
				-1,
				0,
				-1
			],
			"type":"VEC3"
		},
		{
			"bufferView":39,
			"componentType":5126,
			"count":4,
			"type":"VEC3"
		},
		{
			"bufferView":40,
			"componentType":5126,
			"count":4,
			"type":"VEC2"
		}
	],
	"bufferViews":[
		{
			"buffer":0,
			"byteLength":384,
			"byteOffset":0,
			"target":34962
		},
		{
			"buffer":0,
			"byteLength":384,
			"byteOffset":384,
			"target":34962
		},
		{
			"buffer":0,
			"byteLength":256,
			"byteOffset":768,
			"target":34962
		},
		{
			"buffer":0,
			"byteLength":108,
			"byteOffset":1024,
			"target":34963
		},
		{
			"buffer":0,
			"byteLength":48,
			"byteOffset":1132,
			"target":34962
		},
		{
			"buffer":0,
			"byteLength":48,
			"byteOffset":1180,
			"target":34962
		},
		{
			"buffer":0,
			"byteLength":32,
			"byteOffset":1228,
			"target":34962
		},
		{
			"buffer":0,
			"byteLength":12,
			"byteOffset":1260,
			"target":34963
		},
		{
			"buffer":0,
			"byteLength":48,
			"byteOffset":1272,
			"target":34962
		},
		{
			"buffer":0,
			"byteLength":48,
			"byteOffset":1320,
			"target":34962
		},
		{
			"buffer":0,
			"byteLength":32,
			"byteOffset":1368,
			"target":34962
		},
		{
			"buffer":0,
			"byteLength":13824,
			"byteOffset":1400,
			"target":34962
		},
		{
			"buffer":0,
			"byteLength":13824,
			"byteOffset":15224,
			"target":34962
		},
		{
			"buffer":0,
			"byteLength":9216,
			"byteOffset":29048,
			"target":34962
		},
		{
			"buffer":0,
			"byteLength":9216,
			"byteOffset":38264,
			"target":34962
		},
		{
			"buffer":0,
			"byteLength":9216,
			"byteOffset":47480,
			"target":34962
		},
		{
			"buffer":0,
			"byteLength":9216,
			"byteOffset":56696,
			"target":34962
		},
		{
			"buffer":0,
			"byteLength":3456,
			"byteOffset":65912,
			"target":34963
		},
		{
			"buffer":0,
			"byteLength":56736,
			"byteOffset":69368,
			"target":34962
		},
		{
			"buffer":0,
			"byteLength":56736,
			"byteOffset":126104,
			"target":34962
		},
		{
			"buffer":0,
			"byteLength":37824,
			"byteOffset":182840,
			"target":34962
		},
		{
			"buffer":0,
			"byteLength":37824,
			"byteOffset":220664,
			"target":34962
		},
		{
			"buffer":0,
			"byteLength":37824,
			"byteOffset":258488,
			"target":34962
		},
		{
			"buffer":0,
			"byteLength":37824,
			"byteOffset":296312,
			"target":34962
		},
		{
			"buffer":0,
			"byteLength":12912,
			"byteOffset":334136,
			"target":34963
		},
		{
			"buffer":0,
			"byteLength":118728,
			"byteOffset":347048,
			"target":34962
		},
		{
			"buffer":0,
			"byteLength":118728,
			"byteOffset":465776,
			"target":34962
		},
		{
			"buffer":0,
			"byteLength":79152,
			"byteOffset":584504,
			"target":34962
		},
		{
			"buffer":0,
			"byteLength":79152,
			"byteOffset":663656,
			"target":34962
		},
		{
			"buffer":0,
			"byteLength":79152,
			"byteOffset":742808,
			"target":34962
		},
		{
			"buffer":0,
			"byteLength":79152,
			"byteOffset":821960,
			"target":34962
		},
		{
			"buffer":0,
			"byteLength":30744,
			"byteOffset":901112,
			"target":34963
		},
		{
			"buffer":0,
			"byteLength":48,
			"byteOffset":931856,
			"target":34962
		},
		{
			"buffer":0,
			"byteLength":48,
			"byteOffset":931904,
			"target":34962
		},
		{
			"buffer":0,
			"byteLength":32,
			"byteOffset":931952,
			"target":34962
		},
		{
			"buffer":0,
			"byteLength":48,
			"byteOffset":931984,
			"target":34962
		},
		{
			"buffer":0,
			"byteLength":48,
			"byteOffset":932032,
			"target":34962
		},
		{
			"buffer":0,
			"byteLength":32,
			"byteOffset":932080,
			"target":34962
		},
		{
			"buffer":0,
			"byteLength":48,
			"byteOffset":932112,
			"target":34962
		},
		{
			"buffer":0,
			"byteLength":48,
			"byteOffset":932160,
			"target":34962
		},
		{
			"buffer":0,
			"byteLength":32,
			"byteOffset":932208,
			"target":34962
		}
	],
	"samplers":[
		{
			"magFilter":9729,
			"minFilter":9987
		}
	],
	"buffers":[
		{
			"byteLength":932240,
			"uri":"colorcheck.bin"
		}
	]
}
