{
	"asset":{
		"generator":"Khronos glTF Blender I/O v5.2.23 for Foundation",
		"version":"2.0"
	},
	"extensionsUsed":[
		"EXT_foundation_environment",
		"EXT_foundation_materials",
		"EXT_foundation_colormanagement"
	],
	"extensions":{
		"EXT_foundation_colormanagement":{
			"postExposure":7,
			"sdr":"SDR / AgX / No Look",
			"hdr":"HDR / ACES 1.3 - HDR 1000 nits / No Look"
		}
	},
	"scene":0,
	"scenes":[
		{
			"extensions":{
				"EXT_foundation_environment":{
					"type":"color",
					"color":[
						0.05087608844041824,
						0.05087608844041824,
						0.05087608844041824
					],
					"strength":1
				}
			},
			"name":"Scene",
			"nodes":[
				0,
				1
			]
		}
	],
	"nodes":[
		{
			"camera":0,
			"name":"Camera",
			"rotation":[
				0.1307690590620041,
				0.6636452078819275,
				-0.11940852552652359,
				0.7267847657203674
			],
			"translation":[
				5.426466941833496,
				-0.005780458450317383,
				0.44371360540390015
			]
		},
		{
			"mesh":0,
			"name":"Mesh_0",
			"scale":[
				0.00800000037997961,
				0.00800000037997961,
				0.00800000037997961
			]
		}
	],
	"cameras":[
		{
			"name":"Camera.001",
			"perspective":{
				"aspectRatio":1.7777777777777777,
				"yfov":0.769618570804596,
				"zfar":1000,
				"znear":0.10000000149011612
			},
			"type":"perspective"
		}
	],
	"materials":[
		{
			"alphaMode":"MASK",
			"doubleSided":true,
			"extensions":{
				"EXT_foundation_materials":{
					"shaderBlock":"principled"
				}
			},
			"name":"Material_0",
			"normalTexture":{
				"index":0
			},
			"pbrMetallicRoughness":{
				"baseColorFactor":[
					0.5879999995231628,
					0.5879999995231628,
					0.5879999995231628,
					1
				],
				"baseColorTexture":{
					"index":1
				},
				"metallicRoughnessTexture":{
					"index":2
				}
			}
		},
		{
			"alphaMode":"MASK",
			"doubleSided":true,
			"extensions":{
				"EXT_foundation_materials":{
					"shaderBlock":"principled"
				}
			},
			"name":"Material_3",
			"normalTexture":{
				"index":3
			},
			"pbrMetallicRoughness":{
				"baseColorFactor":[
					0.5879999995231628,
					0.5879999995231628,
					0.5879999995231628,
					1
				],
				"baseColorTexture":{
					"index":4
				},
				"metallicRoughnessTexture":{
					"index":5
				}
			}
		},
		{
			"extensions":{
				"EXT_foundation_materials":{
					"shaderBlock":"principled"
				}
			},
			"name":"Material_1",
			"normalTexture":{
				"index":6
			},
			"pbrMetallicRoughness":{
				"baseColorFactor":[
					0.5879999995231628,
					0.5879999995231628,
					0.5879999995231628,
					1
				],
				"baseColorTexture":{
					"index":7
				},
				"metallicRoughnessTexture":{
					"index":8
				}
			}
		},
		{
			"extensions":{
				"EXT_foundation_materials":{
					"shaderBlock":"principled"
				}
			},
			"name":"Material_4",
			"normalTexture":{
				"index":9
			},
			"pbrMetallicRoughness":{
				"baseColorFactor":[
					0.5879999995231628,
					0.5879999995231628,
					0.5879999995231628,
					1
				],
				"baseColorTexture":{
					"index":10
				},
				"metallicRoughnessTexture":{
					"index":11
				}
			}
		},
		{
			"extensions":{
				"EXT_foundation_materials":{
					"shaderBlock":"principled"
				}
			},
			"name":"Material_5",
			"normalTexture":{
				"index":12
			},
			"pbrMetallicRoughness":{
				"baseColorFactor":[
					0.5879999995231628,
					0.5879999995231628,
					0.5879999995231628,
					1
				],
				"baseColorTexture":{
					"index":13
				},
				"metallicRoughnessTexture":{
					"index":14
				}
			}
		},
		{
			"extensions":{
				"EXT_foundation_materials":{
					"shaderBlock":"principled"
				}
			},
			"name":"Material_6",
			"normalTexture":{
				"index":15
			},
			"pbrMetallicRoughness":{
				"baseColorFactor":[
					0.5879999995231628,
					0.5879999995231628,
					0.5879999995231628,
					1
				],
				"baseColorTexture":{
					"index":16
				},
				"metallicRoughnessTexture":{
					"index":17
				}
			}
		},
		{
			"extensions":{
				"EXT_foundation_materials":{
					"shaderBlock":"principled"
				}
			},
			"name":"Material_7",
			"normalTexture":{
				"index":18
			},
			"pbrMetallicRoughness":{
				"baseColorFactor":[
					0.5879999995231628,
					0.5879999995231628,
					0.5879999995231628,
					1
				],
				"baseColorTexture":{
					"index":19
				},
				"metallicRoughnessTexture":{
					"index":20
				}
			}
		},
		{
			"extensions":{
				"EXT_foundation_materials":{
					"shaderBlock":"principled"
				}
			},
			"name":"Material_8",
			"normalTexture":{
				"index":21
			},
			"pbrMetallicRoughness":{
				"baseColorFactor":[
					0.5879999995231628,
					0.5879999995231628,
					0.5879999995231628,
					1
				],
				"baseColorTexture":{
					"index":22
				},
				"metallicRoughnessTexture":{
					"index":23
				}
			}
		},
		{
			"extensions":{
				"EXT_foundation_materials":{
					"shaderBlock":"principled"
				}
			},
			"name":"Material_9",
			"normalTexture":{
				"index":24
			},
			"pbrMetallicRoughness":{
				"baseColorFactor":[
					0.5879999995231628,
					0.5879999995231628,
					0.5879999995231628,
					1
				],
				"baseColorTexture":{
					"index":25
				},
				"metallicRoughnessTexture":{
					"index":26
				}
			}
		},
		{
			"extensions":{
				"EXT_foundation_materials":{
					"shaderBlock":"principled"
				}
			},
			"name":"Material_10",
			"normalTexture":{
				"index":27
			},
			"pbrMetallicRoughness":{
				"baseColorFactor":[
					0.5879999995231628,
					0.5879999995231628,
					0.5879999995231628,
					1
				],
				"baseColorTexture":{
					"index":28
				},
				"metallicRoughnessTexture":{
					"index":29
				}
			}
		},
		{
			"extensions":{
				"EXT_foundation_materials":{
					"shaderBlock":"principled"
				}
			},
			"name":"Material_11",
			"normalTexture":{
				"index":30
			},
			"pbrMetallicRoughness":{
				"baseColorFactor":[
					0.5879999995231628,
					0.5879999995231628,
					0.5879999995231628,
					1
				],
				"baseColorTexture":{
					"index":31
				},
				"metallicRoughnessTexture":{
					"index":32
				}
			}
		},
		{
			"extensions":{
				"EXT_foundation_materials":{
					"shaderBlock":"principled"
				}
			},
			"name":"Material_12",
			"normalTexture":{
				"index":33
			},
			"pbrMetallicRoughness":{
				"baseColorFactor":[
					0.5879999995231628,
					0.5879999995231628,
					0.5879999995231628,
					1
				],
				"baseColorTexture":{
					"index":34
				},
				"metallicRoughnessTexture":{
					"index":35
				}
			}
		},
		{
			"extensions":{
				"EXT_foundation_materials":{
					"shaderBlock":"principled"
				}
			},
			"name":"Material_2",
			"pbrMetallicRoughness":{
				"baseColorFactor":[
					0.5879999995231628,
					0.5879999995231628,
					0.5879999995231628,
					1
				],
				"baseColorTexture":{
					"index":36
				},
				"metallicFactor":0
			}
		},
		{
			"extensions":{
				"EXT_foundation_materials":{
					"shaderBlock":"principled"
				}
			},
			"name":"Material_13",
			"normalTexture":{
				"index":37
			},
			"pbrMetallicRoughness":{
				"baseColorFactor":[
					0.5879999995231628,
					0.5879999995231628,
					0.5879999995231628,
					1
				],
				"baseColorTexture":{
					"index":38
				},
				"metallicRoughnessTexture":{
					"index":39
				}
			}
		},
		{
			"extensions":{
				"EXT_foundation_materials":{
					"shaderBlock":"principled"
				}
			},
			"name":"Material_14",
			"normalTexture":{
				"index":40
			},
			"pbrMetallicRoughness":{
				"baseColorFactor":[
					0.5879999995231628,
					0.5879999995231628,
					0.5879999995231628,
					1
				],
				"baseColorTexture":{
					"index":41
				},
				"metallicRoughnessTexture":{
					"index":42
				}
			}
		},
		{
			"extensions":{
				"EXT_foundation_materials":{
					"shaderBlock":"principled"
				}
			},
			"name":"Material_15",
			"normalTexture":{
				"index":43
			},
			"pbrMetallicRoughness":{
				"baseColorFactor":[
					0.5879999995231628,
					0.5879999995231628,
					0.5879999995231628,
					1
				],
				"baseColorTexture":{
					"index":44
				},
				"metallicRoughnessTexture":{
					"index":45
				}
			}
		},
		{
			"extensions":{
				"EXT_foundation_materials":{
					"shaderBlock":"principled"
				}
			},
			"name":"Material_16",
			"normalTexture":{
				"index":46
			},
			"pbrMetallicRoughness":{
				"baseColorFactor":[
					0.5879999995231628,
					0.5879999995231628,
					0.5879999995231628,
					1
				],
				"baseColorTexture":{
					"index":47
				},
				"metallicRoughnessTexture":{
					"index":48
				}
			}
		},
		{
			"extensions":{
				"EXT_foundation_materials":{
					"shaderBlock":"principled"
				}
			},
			"name":"Material_17",
			"normalTexture":{
				"index":49
			},
			"pbrMetallicRoughness":{
				"baseColorFactor":[
					0.5879999995231628,
					0.5879999995231628,
					0.5879999995231628,
					1
				],
				"baseColorTexture":{
					"index":50
				},
				"metallicRoughnessTexture":{
					"index":51
				}
			}
		},
		{
			"extensions":{
				"EXT_foundation_materials":{
					"shaderBlock":"principled"
				}
			},
			"name":"Material_18",
			"normalTexture":{
				"index":52
			},
			"pbrMetallicRoughness":{
				"baseColorFactor":[
					0.5879999995231628,
					0.5879999995231628,
					0.5879999995231628,
					1
				],
				"baseColorTexture":{
					"index":53
				},
				"metallicRoughnessTexture":{
					"index":54
				}
			}
		},
		{
			"extensions":{
				"EXT_foundation_materials":{
					"shaderBlock":"principled"
				}
			},
			"name":"Material_19",
			"normalTexture":{
				"index":55
			},
			"pbrMetallicRoughness":{
				"baseColorFactor":[
					0.5879999995231628,
					0.5879999995231628,
					0.5879999995231628,
					1
				],
				"baseColorTexture":{
					"index":56
				},
				"metallicRoughnessTexture":{
					"index":57
				}
			}
		},
		{
			"alphaMode":"MASK",
			"doubleSided":true,
			"extensions":{
				"EXT_foundation_materials":{
					"shaderBlock":"principled"
				}
			},
			"name":"Material_20",
			"normalTexture":{
				"index":58
			},
			"pbrMetallicRoughness":{
				"baseColorFactor":[
					0.5879999995231628,
					0.5879999995231628,
					0.5879999995231628,
					1
				],
				"baseColorTexture":{
					"index":59
				},
				"metallicRoughnessTexture":{
					"index":60
				}
			}
		},
		{
			"extensions":{
				"EXT_foundation_materials":{
					"shaderBlock":"principled"
				}
			},
			"name":"Material_21",
			"normalTexture":{
				"index":61
			},
			"pbrMetallicRoughness":{
				"baseColorFactor":[
					0.5879999995231628,
					0.5879999995231628,
					0.5879999995231628,
					1
				],
				"baseColorTexture":{
					"index":62
				},
				"metallicRoughnessTexture":{
					"index":63
				}
			}
		},
		{
			"extensions":{
				"EXT_foundation_materials":{
					"shaderBlock":"principled"
				}
			},
			"name":"Material_22",
			"normalTexture":{
				"index":64
			},
			"pbrMetallicRoughness":{
				"baseColorFactor":[
					0.5879999995231628,
					0.5879999995231628,
					0.5879999995231628,
					1
				],
				"baseColorTexture":{
					"index":65
				},
				"metallicRoughnessTexture":{
					"index":66
				}
			}
		},
		{
			"extensions":{
				"EXT_foundation_materials":{
					"shaderBlock":"principled"
				}
			},
			"name":"Material_23",
			"normalTexture":{
				"index":67
			},
			"pbrMetallicRoughness":{
				"baseColorFactor":[
					0.5879999995231628,
					0.5879999995231628,
					0.5879999995231628,
					1
				],
				"baseColorTexture":{
					"index":68
				},
				"metallicRoughnessTexture":{
					"index":69
				}
			}
		},
		{
			"extensions":{
				"EXT_foundation_materials":{
					"shaderBlock":"principled"
				}
			},
			"name":"Material_24",
			"normalTexture":{
				"index":70
			},
			"pbrMetallicRoughness":{
				"baseColorFactor":[
					0.5879999995231628,
					0.5879999995231628,
					0.5879999995231628,
					1
				],
				"baseColorTexture":{
					"index":71
				},
				"metallicRoughnessTexture":{
					"index":72
				}
			}
		}
	],
	"meshes":[
		{
			"name":"Mesh_0",
			"primitives":[
				{
					"attributes":{
						"POSITION":0,
						"NORMAL":1,
						"TEXCOORD_0":2
					},
					"indices":3,
					"material":0
				},
				{
					"attributes":{
						"POSITION":4,
						"NORMAL":5,
						"TEXCOORD_0":6
					},
					"indices":7,
					"material":1
				},
				{
					"attributes":{
						"POSITION":8,
						"NORMAL":9,
						"TEXCOORD_0":10
					},
					"indices":11,
					"material":2
				},
				{
					"attributes":{
						"POSITION":12,
						"NORMAL":13,
						"TEXCOORD_0":14
					},
					"indices":15,
					"material":3
				},
				{
					"attributes":{
						"POSITION":16,
						"NORMAL":17,
						"TEXCOORD_0":18
					},
					"indices":19,
					"material":4
				},
				{
					"attributes":{
						"POSITION":20,
						"NORMAL":21,
						"TEXCOORD_0":22
					},
					"indices":23,
					"material":5
				},
				{
					"attributes":{
						"POSITION":24,
						"NORMAL":25,
						"TEXCOORD_0":26
					},
					"indices":27,
					"material":6
				},
				{
					"attributes":{
						"POSITION":28,
						"NORMAL":29,
						"TEXCOORD_0":30
					},
					"indices":31,
					"material":7
				},
				{
					"attributes":{
						"POSITION":32,
						"NORMAL":33,
						"TEXCOORD_0":34
					},
					"indices":35,
					"material":8
				},
				{
					"attributes":{
						"POSITION":36,
						"NORMAL":37,
						"TEXCOORD_0":38
					},
					"indices":39,
					"material":9
				},
				{
					"attributes":{
						"POSITION":40,
						"NORMAL":41,
						"TEXCOORD_0":42
					},
					"indices":43,
					"material":10
				},
				{
					"attributes":{
						"POSITION":44,
						"NORMAL":45,
						"TEXCOORD_0":46
					},
					"indices":47,
					"material":11
				},
				{
					"attributes":{
						"POSITION":48,
						"NORMAL":49,
						"TEXCOORD_0":50
					},
					"indices":51,
					"material":12
				},
				{
					"attributes":{
						"POSITION":52,
						"NORMAL":53,
						"TEXCOORD_0":54
					},
					"indices":55,
					"material":13
				},
				{
					"attributes":{
						"POSITION":56,
						"NORMAL":57,
						"TEXCOORD_0":58
					},
					"indices":59,
					"material":14
				},
				{
					"attributes":{
						"POSITION":60,
						"NORMAL":61,
						"TEXCOORD_0":62
					},
					"indices":63,
					"material":15
				},
				{
					"attributes":{
						"POSITION":64,
						"NORMAL":65,
						"TEXCOORD_0":66
					},
					"indices":67,
					"material":16
				},
				{
					"attributes":{
						"POSITION":68,
						"NORMAL":69,
						"TEXCOORD_0":70
					},
					"indices":71,
					"material":17
				},
				{
					"attributes":{
						"POSITION":72,
						"NORMAL":73,
						"TEXCOORD_0":74
					},
					"indices":75,
					"material":18
				},
				{
					"attributes":{
						"POSITION":76,
						"NORMAL":77,
						"TEXCOORD_0":78
					},
					"indices":71,
					"material":19
				},
				{
					"attributes":{
						"POSITION":79,
						"NORMAL":80,
						"TEXCOORD_0":81
					},
					"indices":82,
					"material":20
				},
				{
					"attributes":{
						"POSITION":83,
						"NORMAL":84,
						"TEXCOORD_0":85
					},
					"indices":86,
					"material":21
				},
				{
					"attributes":{
						"POSITION":87,
						"NORMAL":88,
						"TEXCOORD_0":89
					},
					"indices":90,
					"material":22
				},
				{
					"attributes":{
						"POSITION":91,
						"NORMAL":92,
						"TEXCOORD_0":93
					},
					"indices":94,
					"material":23
				},
				{
					"attributes":{
						"POSITION":95,
						"NORMAL":96,
						"TEXCOORD_0":97
					},
					"indices":98,
					"material":24
				}
			]
		}
	],
	"textures":[
		{
			"sampler":0,
			"source":0
		},
		{
			"sampler":0,
			"source":1
		},
		{
			"sampler":0,
			"source":2
		},
		{
			"sampler":0,
			"source":3
		},
		{
			"sampler":0,
			"source":4
		},
		{
			"sampler":0,
			"source":5
		},
		{
			"sampler":0,
			"source":6
		},
		{
			"sampler":0,
			"source":7
		},
		{
			"sampler":0,
			"source":8
		},
		{
			"sampler":0,
			"source":9
		},
		{
			"sampler":0,
			"source":10
		},
		{
			"sampler":0,
			"source":11
		},
		{
			"sampler":0,
			"source":12
		},
		{
			"sampler":0,
			"source":13
		},
		{
			"sampler":0,
			"source":14
		},
		{
			"sampler":0,
			"source":15
		},
		{
			"sampler":0,
			"source":16
		},
		{
			"sampler":0,
			"source":17
		},
		{
			"sampler":0,
			"source":18
		},
		{
			"sampler":0,
			"source":19
		},
		{
			"sampler":0,
			"source":20
		},
		{
			"sampler":0,
			"source":21
		},
		{
			"sampler":0,
			"source":22
		},
		{
			"sampler":0,
			"source":23
		},
		{
			"sampler":0,
			"source":24
		},
		{
			"sampler":0,
			"source":25
		},
		{
			"sampler":0,
			"source":26
		},
		{
			"sampler":0,
			"source":27
		},
		{
			"sampler":0,
			"source":28
		},
		{
			"sampler":0,
			"source":29
		},
		{
			"sampler":0,
			"source":30
		},
		{
			"sampler":0,
			"source":31
		},
		{
			"sampler":0,
			"source":32
		},
		{
			"sampler":0,
			"source":33
		},
		{
			"sampler":0,
			"source":34
		},
		{
			"sampler":0,
			"source":35
		},
		{
			"sampler":0,
			"source":36
		},
		{
			"sampler":0,
			"source":37
		},
		{
			"sampler":0,
			"source":38
		},
		{
			"sampler":0,
			"source":39
		},
		{
			"sampler":0,
			"source":40
		},
		{
			"sampler":0,
			"source":41
		},
		{
			"sampler":0,
			"source":42
		},
		{
			"sampler":0,
			"source":43
		},
		{
			"sampler":0,
			"source":44
		},
		{
			"sampler":0,
			"source":42
		},
		{
			"sampler":0,
			"source":45
		},
		{
			"sampler":0,
			"source":46
		},
		{
			"sampler":0,
			"source":42
		},
		{
			"sampler":0,
			"source":47
		},
		{
			"sampler":0,
			"source":48
		},
		{
			"sampler":0,
			"source":49
		},
		{
			"sampler":0,
			"source":50
		},
		{
			"sampler":0,
			"source":51
		},
		{
			"sampler":0,
			"source":49
		},
		{
			"sampler":0,
			"source":52
		},
		{
			"sampler":0,
			"source":53
		},
		{
			"sampler":0,
			"source":49
		},
		{
			"sampler":0,
			"source":54
		},
		{
			"sampler":0,
			"source":55
		},
		{
			"sampler":0,
			"source":56
		},
		{
			"sampler":0,
			"source":57
		},
		{
			"sampler":0,
			"source":58
		},
		{
			"sampler":0,
			"source":59
		},
		{
			"sampler":0,
			"source":60
		},
		{
			"sampler":0,
			"source":61
		},
		{
			"sampler":0,
			"source":62
		},
		{
			"sampler":0,
			"source":63
		},
		{
			"sampler":0,
			"source":64
		},
		{
			"sampler":0,
			"source":65
		},
		{
			"sampler":0,
			"source":66
		},
		{
			"sampler":0,
			"source":67
		},
		{
			"sampler":0,
			"source":68
		}
	],
	"images":[
		{
			"mimeType":"image/jpeg",
			"name":"normal_1",
			"uri":"normal_1.jpg"
		},
		{
			"mimeType":"image/png",
			"name":"baseColor_1",
			"uri":"baseColor_1.png"
		},
		{
			"mimeType":"image/jpeg",
			"name":"metallicRoughness_1",
			"uri":"metallicRoughness_1.jpg"
		},
		{
			"mimeType":"image/jpeg",
			"name":"normal_2",
			"uri":"normal_2.jpg"
		},
		{
			"mimeType":"image/png",
			"name":"baseColor_2",
			"uri":"baseColor_2.png"
		},
		{
			"mimeType":"image/jpeg",
			"name":"metallicRoughness_2",
			"uri":"metallicRoughness_2.jpg"
		},
		{
			"mimeType":"image/jpeg",
			"name":"normal_3",
			"uri":"normal_3.jpg"
		},
		{
			"mimeType":"image/jpeg",
			"name":"baseColor_3",
			"uri":"baseColor_3.jpg"
		},
		{
			"mimeType":"image/jpeg",
			"name":"metallicRoughness_3",
			"uri":"metallicRoughness_3.jpg"
		},
		{
			"mimeType":"image/jpeg",
			"name":"normal_4",
			"uri":"normal_4.jpg"
		},
		{
			"mimeType":"image/jpeg",
			"name":"baseColor_4",
			"uri":"baseColor_4.jpg"
		},
		{
			"mimeType":"image/jpeg",
			"name":"metallicRoughness_4",
			"uri":"metallicRoughness_4.jpg"
		},
		{
			"mimeType":"image/jpeg",
			"name":"normal_5",
			"uri":"normal_5.jpg"
		},
		{
			"mimeType":"image/jpeg",
			"name":"baseColor_5",
			"uri":"baseColor_5.jpg"
		},
		{
			"mimeType":"image/jpeg",
			"name":"metallicRoughness_5",
			"uri":"metallicRoughness_5.jpg"
		},
		{
			"mimeType":"image/jpeg",
			"name":"normal_6",
			"uri":"normal_6.jpg"
		},
		{
			"mimeType":"image/jpeg",
			"name":"baseColor_6",
			"uri":"baseColor_6.jpg"
		},
		{
			"mimeType":"image/jpeg",
			"name":"metallicRoughness_6",
			"uri":"metallicRoughness_6.jpg"
		},
		{
			"mimeType":"image/jpeg",
			"name":"normal_7",
			"uri":"normal_7.jpg"
		},
		{
			"mimeType":"image/jpeg",
			"name":"baseColor_7",
			"uri":"baseColor_7.jpg"
		},
		{
			"mimeType":"image/jpeg",
			"name":"metallicRoughness_7",
			"uri":"metallicRoughness_7.jpg"
		},
		{
			"mimeType":"image/jpeg",
			"name":"normal_8",
			"uri":"normal_8.jpg"
		},
		{
			"mimeType":"image/jpeg",
			"name":"baseColor_8",
			"uri":"baseColor_8.jpg"
		},
		{
			"mimeType":"image/jpeg",
			"name":"metallicRoughness_8",
			"uri":"metallicRoughness_8.jpg"
		},
		{
			"mimeType":"image/jpeg",
			"name":"normal_9",
			"uri":"normal_9.jpg"
		},
		{
			"mimeType":"image/jpeg",
			"name":"baseColor_9",
			"uri":"baseColor_9.jpg"
		},
		{
			"mimeType":"image/jpeg",
			"name":"metallicRoughness_9",
			"uri":"metallicRoughness_9.jpg"
		},
		{
			"mimeType":"image/jpeg",
			"name":"normal_10",
			"uri":"normal_10.jpg"
		},
		{
			"mimeType":"image/jpeg",
			"name":"baseColor_10",
			"uri":"baseColor_10.jpg"
		},
		{
			"mimeType":"image/jpeg",
			"name":"metallicRoughness_10",
			"uri":"metallicRoughness_10.jpg"
		},
		{
			"mimeType":"image/jpeg",
			"name":"normal_11",
			"uri":"normal_11.jpg"
		},
		{
			"mimeType":"image/jpeg",
			"name":"baseColor_11",
			"uri":"baseColor_11.jpg"
		},
		{
			"mimeType":"image/jpeg",
			"name":"metallicRoughness_11",
			"uri":"metallicRoughness_11.jpg"
		},
		{
			"mimeType":"image/jpeg",
			"name":"normal_12",
			"uri":"normal_12.jpg"
		},
		{
			"mimeType":"image/jpeg",
			"name":"baseColor_12",
			"uri":"baseColor_12.jpg"
		},
		{
			"mimeType":"image/jpeg",
			"name":"metallicRoughness_12",
			"uri":"metallicRoughness_12.jpg"
		},
		{
			"mimeType":"image/png",
			"name":"baseColor_13",
			"uri":"baseColor_13.png"
		},
		{
			"mimeType":"image/jpeg",
			"name":"normal_13",
			"uri":"normal_13.jpg"
		},
		{
			"mimeType":"image/jpeg",
			"name":"baseColor_14",
			"uri":"baseColor_14.jpg"
		},
		{
			"mimeType":"image/jpeg",
			"name":"metallicRoughness_13",
			"uri":"metallicRoughness_13.jpg"
		},
		{
			"mimeType":"image/jpeg",
			"name":"normal_14",
			"uri":"normal_14.jpg"
		},
		{
			"mimeType":"image/jpeg",
			"name":"baseColor_15",
			"uri":"baseColor_15.jpg"
		},
		{
			"mimeType":"image/jpeg",
			"name":"metallicRoughness_14",
			"uri":"metallicRoughness_14.jpg"
		},
		{
			"mimeType":"image/jpeg",
			"name":"normal_15",
			"uri":"normal_15.jpg"
		},
		{
			"mimeType":"image/jpeg",
			"name":"baseColor_16",
			"uri":"baseColor_16.jpg"
		},
		{
			"mimeType":"image/jpeg",
			"name":"normal_16",
			"uri":"normal_16.jpg"
		},
		{
			"mimeType":"image/jpeg",
			"name":"baseColor_17",
			"uri":"baseColor_17.jpg"
		},
		{
			"mimeType":"image/jpeg",
			"name":"normal_17",
			"uri":"normal_17.jpg"
		},
		{
			"mimeType":"image/jpeg",
			"name":"baseColor_18",
			"uri":"baseColor_18.jpg"
		},
		{
			"mimeType":"image/jpeg",
			"name":"metallicRoughness_15",
			"uri":"metallicRoughness_15.jpg"
		},
		{
			"mimeType":"image/jpeg",
			"name":"normal_18",
			"uri":"normal_18.jpg"
		},
		{
			"mimeType":"image/jpeg",
			"name":"baseColor_19",
			"uri":"baseColor_19.jpg"
		},
		{
			"mimeType":"image/jpeg",
			"name":"normal_19",
			"uri":"normal_19.jpg"
		},
		{
			"mimeType":"image/jpeg",
			"name":"baseColor_20",
			"uri":"baseColor_20.jpg"
		},
		{
			"mimeType":"image/jpeg",
			"name":"normal_20",
			"uri":"normal_20.jpg"
		},
		{
			"mimeType":"image/png",
			"name":"baseColor_21",
			"uri":"baseColor_21.png"
		},
		{
			"mimeType":"image/jpeg",
			"name":"metallicRoughness_16",
			"uri":"metallicRoughness_16.jpg"
		},
		{
			"mimeType":"image/jpeg",
			"name":"normal_21",
			"uri":"normal_21.jpg"
		},
		{
			"mimeType":"image/jpeg",
			"name":"baseColor_22",
			"uri":"baseColor_22.jpg"
		},
		{
			"mimeType":"image/jpeg",
			"name":"metallicRoughness_17",
			"uri":"metallicRoughness_17.jpg"
		},
		{
			"mimeType":"image/jpeg",
			"name":"normal_22",
			"uri":"normal_22.jpg"
		},
		{
			"mimeType":"image/jpeg",
			"name":"baseColor_23",
			"uri":"baseColor_23.jpg"
		},
		{
			"mimeType":"image/jpeg",
			"name":"metallicRoughness_18",
			"uri":"metallicRoughness_18.jpg"
		},
		{
			"mimeType":"image/jpeg",
			"name":"normal_23",
			"uri":"normal_23.jpg"
		},
		{
			"mimeType":"image/jpeg",
			"name":"baseColor_24",
			"uri":"baseColor_24.jpg"
		},
		{
			"mimeType":"image/jpeg",
			"name":"metallicRoughness_19",
			"uri":"metallicRoughness_19.jpg"
		},
		{
			"mimeType":"image/jpeg",
			"name":"normal_24",
			"uri":"normal_24.jpg"
		},
		{
			"mimeType":"image/jpeg",
			"name":"baseColor_25",
			"uri":"baseColor_25.jpg"
		},
		{
			"mimeType":"image/jpeg",
			"name":"metallicRoughness_20",
			"uri":"metallicRoughness_20.jpg"
		}
	],
	"accessors":[
		{
			"bufferView":0,
			"componentType":5126,
			"count":24162,
			"max":[
				551.2263793945312,
				225.1020965576172,
				266.4422912597656
			],
			"min":[
				-680.2642211914062,
				-28.04960060119629,
				-341.1361999511719
			],
			"type":"VEC3"
		},
		{
			"bufferView":1,
			"componentType":5126,
			"count":24162,
			"type":"VEC3"
		},
		{
			"bufferView":2,
			"componentType":5126,
			"count":24162,
			"type":"VEC2"
		},
		{
			"bufferView":3,
			"componentType":5123,
			"count":94308,
			"type":"SCALAR"
		},
		{
			"bufferView":4,
			"componentType":5126,
			"count":3932,
			"max":[
				861.8858032226562,
				73.12359619140625,
				187.85159301757812
			],
			"min":[
				-992.9603881835938,
				42.31909942626953,
				-261.83648681640625
			],
			"type":"VEC3"
		},
		{
			"bufferView":5,
			"componentType":5126,
			"count":3932,
			"type":"VEC3"
		},
		{
			"bufferView":6,
			"componentType":5126,
			"count":3932,
			"type":"VEC2"
		},
		{
			"bufferView":7,
			"componentType":5123,
			"count":10416,
			"type":"SCALAR"
		},
		{
			"bufferView":8,
			"componentType":5126,
			"count":9848,
			"max":[
				859.2954711914062,
				56.199501037597656,
				179.31080627441406
			],
			"min":[
				-990.7388916015625,
				-4.030700206756592,
				-251.64309692382812
			],
			"type":"VEC3"
		},
		{
			"bufferView":9,
			"componentType":5126,
			"count":9848,
			"type":"VEC3"
		},
		{
			"bufferView":10,
			"componentType":5126,
			"count":9848,
			"type":"VEC2"
		},
		{
			"bufferView":11,
			"componentType":5123,
			"count":53064,
			"type":"SCALAR"
		},
		{
			"bufferView":12,
			"componentType":5126,
			"count":2259,
			"max":[
				1299.8668212890625,
				758.5531005859375,
				88.62689971923828
			],
			"min":[
				-1428.27490234375,
				40.818599700927734,
				-163.38650512695312
			],
			"type":"VEC3"
		},
		{
			"bufferView":13,
			"componentType":5126,
			"count":2259,
			"type":"VEC3"
		},
		{
			"bufferView":14,
			"componentType":5126,
			"count":2259,
			"type":"VEC2"
		},
		{
			"bufferView":15,
			"componentType":5123,
			"count":12258,
			"type":"SCALAR"
		},
		{
			"bufferView":16,
			"componentType":5126,
			"count":1090,
			"max":[
				1746.69287109375,
				1347.19580078125,
				1039.711181640625
			],
			"min":[
				-1866.98291015625,
				-126.44249725341797,
				-1139.030517578125
			],
			"type":"VEC3"
		},
		{
			"bufferView":17,
			"componentType":5126,
			"count":1090,
			"type":"VEC3"
		},
		{
			"bufferView":18,
			"componentType":5126,
			"count":1090,
			"type":"VEC2"
		},
		{
			"bufferView":19,
			"componentType":5123,
			"count":2388,
			"type":"SCALAR"
		},
		{
			"bufferView":20,
			"componentType":5126,
			"count":11373,
			"max":[
				921.9354858398438,
				1275.01123046875,
				245.81419372558594
			],
			"min":[
				-1052.875732421875,
				211.39549255371094,
				-318.1059875488281
			],
			"type":"VEC3"
		},
		{
			"bufferView":21,
			"componentType":5126,
			"count":11373,
			"type":"VEC3"
		},
		{
			"bufferView":22,
			"componentType":5126,
			"count":11373,
			"type":"VEC2"
		},
		{
			"bufferView":23,
			"componentType":5123,
			"count":30504,
			"type":"SCALAR"
		},
		{
			"bufferView":24,
			"componentType":5126,
			"count":5068,
			"max":[
				1302.20166015625,
				1263.927978515625,
				574.9027099609375
			],
			"min":[
				-1429.452392578125,
				215.80360412597656,
				-645.1483154296875
			],
			"type":"VEC3"
		},
		{
			"bufferView":25,
			"componentType":5126,
			"count":5068,
			"type":"VEC3"
		},
		{
			"bufferView":26,
			"componentType":5126,
			"count":5068,
			"type":"VEC2"
		},
		{
			"bufferView":27,
			"componentType":5123,
			"count":17628,
			"type":"SCALAR"
		},
		{
			"bufferView":28,
			"componentType":5126,
			"count":3534,
			"max":[
				925.6038208007812,
				220.99710083007812,
				246.61489868164062
			],
			"min":[
				-1057.22021484375,
				-2.460700035095215,
				-316.86920166015625
			],
			"type":"VEC3"
		},
		{
			"bufferView":29,
			"componentType":5126,
			"count":3534,
			"type":"VEC3"
		},
		{
			"bufferView":30,
			"componentType":5126,
			"count":3534,
			"type":"VEC2"
		},
		{
			"bufferView":31,
			"componentType":5123,
			"count":8448,
			"type":"SCALAR"
		},
		{
			"bufferView":32,
			"componentType":5126,
			"count":23,
			"max":[
				1302.220947265625,
				415.5303039550781,
				574.1851806640625
			],
			"min":[
				-1432.224365234375,
				-2.506200075149536,
				-645.4310302734375
			],
			"type":"VEC3"
		},
		{
			"bufferView":33,
			"componentType":5126,
			"count":23,
			"type":"VEC3"
		},
		{
			"bufferView":34,
			"componentType":5126,
			"count":23,
			"type":"VEC2"
		},
		{
			"bufferView":35,
			"componentType":5123,
			"count":63,
			"type":"SCALAR"
		},
		{
			"bufferView":36,
			"componentType":5126,
			"count":14034,
			"max":[
				1303.27197265625,
				695.3228149414062,
				575.7255249023438
			],
			"min":[
				-1430.30517578125,
				182.6522979736328,
				-646.9678955078125
			],
			"type":"VEC3"
		},
		{
			"bufferView":37,
			"componentType":5126,
			"count":14034,
			"type":"VEC3"
		},
		{
			"bufferView":38,
			"componentType":5126,
			"count":14034,
			"type":"VEC2"
		},
		{
			"bufferView":39,
			"componentType":5123,
			"count":21264,
			"type":"SCALAR"
		},
		{
			"bufferView":40,
			"componentType":5126,
			"count":1136,
			"max":[
				1315.5244140625,
				716.8505859375,
				605.0136108398438
			],
			"min":[
				-509.68328857421875,
				-2.2155001163482666,
				-651.5385131835938
			],
			"type":"VEC3"
		},
		{
			"bufferView":41,
			"componentType":5126,
			"count":1136,
			"type":"VEC3"
		},
		{
			"bufferView":42,
			"componentType":5126,
			"count":1136,
			"type":"VEC2"
		},
		{
			"bufferView":43,
			"componentType":5123,
			"count":2640,
			"type":"SCALAR"
		},
		{
			"bufferView":44,
			"componentType":5126,
			"count":23328,
			"max":[
				907.4069213867188,
				699.61181640625,
				234.77340698242188
			],
			"min":[
				-1037.651611328125,
				506.6332092285156,
				-309.70550537109375
			],
			"type":"VEC3"
		},
		{
			"bufferView":45,
			"componentType":5126,
			"count":23328,
			"type":"VEC3"
		},
		{
			"bufferView":46,
			"componentType":5126,
			"count":23328,
			"type":"VEC2"
		},
		{
			"bufferView":47,
			"componentType":5123,
			"count":69624,
			"type":"SCALAR"
		},
		{
			"bufferView":48,
			"componentType":5126,
			"count":38,
			"max":[
				-8.262900352478027,
				348.1973876953125,
				575.5051879882812
			],
			"min":[
				-119.40730285644531,
				256.7309875488281,
				568.6583862304688
			],
			"type":"VEC3"
		},
		{
			"bufferView":49,
			"componentType":5126,
			"count":38,
			"type":"VEC3"
		},
		{
			"bufferView":50,
			"componentType":5126,
			"count":38,
			"type":"VEC2"
		},
		{
			"bufferView":51,
			"componentType":5123,
			"count":54,
			"type":"SCALAR"
		},
		{
			"bufferView":52,
			"componentType":5126,
			"count":12425,
			"max":[
				830.2938842773438,
				886.1389770507812,
				209.11500549316406
			],
			"min":[
				-958.6978149414062,
				274.9595947265625,
				-289.70361328125
			],
			"type":"VEC3"
		},
		{
			"bufferView":53,
			"componentType":5126,
			"count":12425,
			"type":"VEC3"
		},
		{
			"bufferView":54,
			"componentType":5126,
			"count":12425,
			"type":"VEC2"
		},
		{
			"bufferView":55,
			"componentType":5123,
			"count":49488,
			"type":"SCALAR"
		},
		{
			"bufferView":56,
			"componentType":5126,
			"count":9992,
			"max":[
				651.9561767578125,
				520.5938720703125,
				252.28579711914062
			],
			"min":[
				-783.794189453125,
				339.4429931640625,
				-324.5262145996094
			],
			"type":"VEC3"
		},
		{
			"bufferView":57,
			"componentType":5126,
			"count":9992,
			"type":"VEC3"
		},
		{
			"bufferView":58,
			"componentType":5126,
			"count":9992,
			"type":"VEC2"
		},
		{
			"bufferView":59,
			"componentType":5123,
			"count":49536,
			"type":"SCALAR"
		},
		{
			"bufferView":60,
			"componentType":5126,
			"count":9992,
			"max":[
				648.8516845703125,
				520.5938720703125,
				252.28570556640625
			],
			"min":[
				-786.898681640625,
				339.4429931640625,
				-324.5262145996094
			],
			"type":"VEC3"
		},
		{
			"bufferView":61,
			"componentType":5126,
			"count":9992,
			"type":"VEC3"
		},
		{
			"bufferView":62,
			"componentType":5126,
			"count":9992,
			"type":"VEC2"
		},
		{
			"bufferView":63,
			"componentType":5123,
			"count":49536,
			"type":"SCALAR"
		},
		{
			"bufferView":64,
			"componentType":5126,
			"count":6652,
			"max":[
				283.3501892089844,
				520.5938720703125,
				252.2855987548828
			],
			"min":[
				-418.2926025390625,
				339.4429931640625,
				-324.5262145996094
			],
			"type":"VEC3"
		},
		{
			"bufferView":65,
			"componentType":5126,
			"count":6652,
			"type":"VEC3"
		},
		{
			"bufferView":66,
			"componentType":5126,
			"count":6652,
			"type":"VEC2"
		},
		{
			"bufferView":67,
			"componentType":5123,
			"count":33024,
			"type":"SCALAR"
		},
		{
			"bufferView":68,
			"componentType":5126,
			"count":7739,
			"max":[
				820.1740112304688,
				283.6809997558594,
				213.4824981689453
			],
			"min":[
				-577.6201782226562,
				-0.30889999866485596,
				-295.25439453125
			],
			"type":"VEC3"
		},
		{
			"bufferView":69,
			"componentType":5126,
			"count":7739,
			"type":"VEC3"
		},
		{
			"bufferView":70,
			"componentType":5126,
			"count":7739,
			"type":"VEC2"
		},
		{
			"bufferView":71,
			"componentType":5123,
			"count":43008,
			"type":"SCALAR"
		},
		{
			"bufferView":72,
			"componentType":5126,
			"count":10248,
			"max":[
				820.1740112304688,
				283.6809997558594,
				213.4824981689453
			],
			"min":[
				-946.2379150390625,
				-0.30889999866485596,
				-295.25439453125
			],
			"type":"VEC3"
		},
		{
			"bufferView":73,
			"componentType":5126,
			"count":10248,
			"type":"VEC3"
		},
		{
			"bufferView":74,
			"componentType":5126,
			"count":10248,
			"type":"VEC2"
		},
		{
			"bufferView":75,
			"componentType":5123,
			"count":56832,
			"type":"SCALAR"
		},
		{
			"bufferView":76,
			"componentType":5126,
			"count":7739,
			"max":[
				448.0338134765625,
				283.6809997558594,
				213.4824981689453
			],
			"min":[
				-946.2379150390625,
				-0.30889999866485596,
				-289.25689697265625
			],
			"type":"VEC3"
		},
		{
			"bufferView":77,
			"componentType":5126,
			"count":7739,
			"type":"VEC3"
		},
		{
			"bufferView":78,
			"componentType":5126,
			"count":7739,
			"type":"VEC2"
		},
		{
			"bufferView":79,
			"componentType":5126,
			"count":78,
			"max":[
				513.3607788085938,
				214.3549041748047,
				145.12840270996094
			],
			"min":[
				-644.93310546875,
				133.72129821777344,
				-221.48719787597656
			],
			"type":"VEC3"
		},
		{
			"bufferView":80,
			"componentType":5126,
			"count":78,
			"type":"VEC3"
		},
		{
			"bufferView":81,
			"componentType":5126,
			"count":78,
			"type":"VEC2"
		},
		{
			"bufferView":82,
			"componentType":5123,
			"count":96,
			"type":"SCALAR"
		},
		{
			"bufferView":83,
			"componentType":5126,
			"count":11828,
			"max":[
				522.611572265625,
				216.9512939453125,
				170.47579956054688
			],
			"min":[
				-654.1837768554688,
				98.67289733886719,
				-246.83450317382812
			],
			"type":"VEC3"
		},
		{
			"bufferView":84,
			"componentType":5126,
			"count":11828,
			"type":"VEC3"
		},
		{
			"bufferView":85,
			"componentType":5126,
			"count":11828,
			"type":"VEC2"
		},
		{
			"bufferView":86,
			"componentType":5123,
			"count":59484,
			"type":"SCALAR"
		},
		{
			"bufferView":87,
			"componentType":5126,
			"count":5308,
			"max":[
				1194.1705322265625,
				133.0167999267578,
				478.2618103027344
			],
			"min":[
				-1276.67333984375,
				-0.6934000253677368,
				-523.4995727539062
			],
			"type":"VEC3"
		},
		{
			"bufferView":88,
			"componentType":5126,
			"count":5308,
			"type":"VEC3"
		},
		{
			"bufferView":89,
			"componentType":5126,
			"count":5308,
			"type":"VEC2"
		},
		{
			"bufferView":90,
			"componentType":5123,
			"count":27552,
			"type":"SCALAR"
		},
		{
			"bufferView":91,
			"componentType":5126,
			"count":1732,
			"max":[
				1299.0263671875,
				264.7611999511719,
				42.85340118408203
			],
			"min":[
				-1427.434326171875,
				79.90480041503906,
				-114.69149780273438
			],
			"type":"VEC3"
		},
		{
			"bufferView":92,
			"componentType":5126,
			"count":1732,
			"type":"VEC3"
		},
		{
			"bufferView":93,
			"componentType":5126,
			"count":1732,
			"type":"VEC2"
		},
		{
			"bufferView":94,
			"componentType":5123,
			"count":9126,
			"type":"SCALAR"
		},
		{
			"bufferView":95,
			"componentType":5126,
			"count":11979,
			"max":[
				1799.9080810546875,
				1429.4332275390625,
				1105.426025390625
			],
			"min":[
				-1920.9459228515625,
				1280.513427734375,
				-1182.80712890625
			],
			"type":"VEC3"
		},
		{
			"bufferView":96,
			"componentType":5126,
			"count":11979,
			"type":"VEC3"
		},
		{
			"bufferView":97,
			"componentType":5126,
			"count":11979,
			"type":"VEC2"
		},
		{
			"bufferView":98,
			"componentType":5123,
			"count":43452,
			"type":"SCALAR"
		}
	],
	"bufferViews":[
		{
			"buffer":0,
			"byteLength":289944,
			"byteOffset":0,
			"target":34962
		},
		{
			"buffer":0,
			"byteLength":289944,
			"byteOffset":289944,
			"target":34962
		},
		{
			"buffer":0,
			"byteLength":193296,
			"byteOffset":579888,
			"target":34962
		},
		{
			"buffer":0,
			"byteLength":188616,
			"byteOffset":773184,
			"target":34963
		},
		{
			"buffer":0,
			"byteLength":47184,
			"byteOffset":961800,
			"target":34962
		},
		{
			"buffer":0,
			"byteLength":47184,
			"byteOffset":1008984,
			"target":34962
		},
		{
			"buffer":0,
			"byteLength":31456,
			"byteOffset":1056168,
			"target":34962
		},
		{
			"buffer":0,
			"byteLength":20832,
			"byteOffset":1087624,
			"target":34963
		},
		{
			"buffer":0,
			"byteLength":118176,
			"byteOffset":1108456,
			"target":34962
		},
		{
			"buffer":0,
			"byteLength":118176,
			"byteOffset":1226632,
			"target":34962
		},
		{
			"buffer":0,
			"byteLength":78784,
			"byteOffset":1344808,
			"target":34962
		},
		{
			"buffer":0,
			"byteLength":106128,
			"byteOffset":1423592,
			"target":34963
		},
		{
			"buffer":0,
			"byteLength":27108,
			"byteOffset":1529720,
			"target":34962
		},
		{
			"buffer":0,
			"byteLength":27108,
			"byteOffset":1556828,
			"target":34962
		},
		{
			"buffer":0,
			"byteLength":18072,
			"byteOffset":1583936,
			"target":34962
		},
		{
			"buffer":0,
			"byteLength":24516,
			"byteOffset":1602008,
			"target":34963
		},
		{
			"buffer":0,
			"byteLength":13080,
			"byteOffset":1626524,
			"target":34962
		},
		{
			"buffer":0,
			"byteLength":13080,
			"byteOffset":1639604,
			"target":34962
		},
		{
			"buffer":0,
			"byteLength":8720,
			"byteOffset":1652684,
			"target":34962
		},
		{
			"buffer":0,
			"byteLength":4776,
			"byteOffset":1661404,
			"target":34963
		},
		{
			"buffer":0,
			"byteLength":136476,
			"byteOffset":1666180,
			"target":34962
		},
		{
			"buffer":0,
			"byteLength":136476,
			"byteOffset":1802656,
			"target":34962
		},
		{
			"buffer":0,
			"byteLength":90984,
			"byteOffset":1939132,
			"target":34962
		},
		{
			"buffer":0,
			"byteLength":61008,
			"byteOffset":2030116,
			"target":34963
		},
		{
			"buffer":0,
			"byteLength":60816,
			"byteOffset":2091124,
			"target":34962
		},
		{
			"buffer":0,
			"byteLength":60816,
			"byteOffset":2151940,
			"target":34962
		},
		{
			"buffer":0,
			"byteLength":40544,
			"byteOffset":2212756,
			"target":34962
		},
		{
			"buffer":0,
			"byteLength":35256,
			"byteOffset":2253300,
			"target":34963
		},
		{
			"buffer":0,
			"byteLength":42408,
			"byteOffset":2288556,
			"target":34962
		},
		{
			"buffer":0,
			"byteLength":42408,
			"byteOffset":2330964,
			"target":34962
		},
		{
			"buffer":0,
			"byteLength":28272,
			"byteOffset":2373372,
			"target":34962
		},
		{
			"buffer":0,
			"byteLength":16896,
			"byteOffset":2401644,
			"target":34963
		},
		{
			"buffer":0,
			"byteLength":276,
			"byteOffset":2418540,
			"target":34962
		},
		{
			"buffer":0,
			"byteLength":276,
			"byteOffset":2418816,
			"target":34962
		},
		{
			"buffer":0,
			"byteLength":184,
			"byteOffset":2419092,
			"target":34962
		},
		{
			"buffer":0,
			"byteLength":126,
			"byteOffset":2419276,
			"target":34963
		},
		{
			"buffer":0,
			"byteLength":168408,
			"byteOffset":2419404,
			"target":34962
		},
		{
			"buffer":0,
			"byteLength":168408,
			"byteOffset":2587812,
			"target":34962
		},
		{
			"buffer":0,
			"byteLength":112272,
			"byteOffset":2756220,
			"target":34962
		},
		{
			"buffer":0,
			"byteLength":42528,
			"byteOffset":2868492,
			"target":34963
		},
		{
			"buffer":0,
			"byteLength":13632,
			"byteOffset":2911020,
			"target":34962
		},
		{
			"buffer":0,
			"byteLength":13632,
			"byteOffset":2924652,
			"target":34962
		},
		{
			"buffer":0,
			"byteLength":9088,
			"byteOffset":2938284,
			"target":34962
		},
		{
			"buffer":0,
			"byteLength":5280,
			"byteOffset":2947372,
			"target":34963
		},
		{
			"buffer":0,
			"byteLength":279936,
			"byteOffset":2952652,
			"target":34962
		},
		{
			"buffer":0,
			"byteLength":279936,
			"byteOffset":3232588,
			"target":34962
		},
		{
			"buffer":0,
			"byteLength":186624,
			"byteOffset":3512524,
			"target":34962
		},
		{
			"buffer":0,
			"byteLength":139248,
			"byteOffset":3699148,
			"target":34963
		},
		{
			"buffer":0,
			"byteLength":456,
			"byteOffset":3838396,
			"target":34962
		},
		{
			"buffer":0,
			"byteLength":456,
			"byteOffset":3838852,
			"target":34962
		},
		{
			"buffer":0,
			"byteLength":304,
			"byteOffset":3839308,
			"target":34962
		},
		{
			"buffer":0,
			"byteLength":108,
			"byteOffset":3839612,
			"target":34963
		},
		{
			"buffer":0,
			"byteLength":149100,
			"byteOffset":3839720,
			"target":34962
		},
		{
			"buffer":0,
			"byteLength":149100,
			"byteOffset":3988820,
			"target":34962
		},
		{
			"buffer":0,
			"byteLength":99400,
			"byteOffset":4137920,
			"target":34962
		},
		{
			"buffer":0,
			"byteLength":98976,
			"byteOffset":4237320,
			"target":34963
		},
		{
			"buffer":0,
			"byteLength":119904,
			"byteOffset":4336296,
			"target":34962
		},
		{
			"buffer":0,
			"byteLength":119904,
			"byteOffset":4456200,
			"target":34962
		},
		{
			"buffer":0,
			"byteLength":79936,
			"byteOffset":4576104,
			"target":34962
		},
		{
			"buffer":0,
			"byteLength":99072,
			"byteOffset":4656040,
			"target":34963
		},
		{
			"buffer":0,
			"byteLength":119904,
			"byteOffset":4755112,
			"target":34962
		},
		{
			"buffer":0,
			"byteLength":119904,
			"byteOffset":4875016,
			"target":34962
		},
		{
			"buffer":0,
			"byteLength":79936,
			"byteOffset":4994920,
			"target":34962
		},
		{
			"buffer":0,
			"byteLength":99072,
			"byteOffset":5074856,
			"target":34963
		},
		{
			"buffer":0,
			"byteLength":79824,
			"byteOffset":5173928,
			"target":34962
		},
		{
			"buffer":0,
			"byteLength":79824,
			"byteOffset":5253752,
			"target":34962
		},
		{
			"buffer":0,
			"byteLength":53216,
			"byteOffset":5333576,
			"target":34962
		},
		{
			"buffer":0,
			"byteLength":66048,
			"byteOffset":5386792,
			"target":34963
		},
		{
			"buffer":0,
			"byteLength":92868,
			"byteOffset":5452840,
			"target":34962
		},
		{
			"buffer":0,
			"byteLength":92868,
			"byteOffset":5545708,
			"target":34962
		},
		{
			"buffer":0,
			"byteLength":61912,
			"byteOffset":5638576,
			"target":34962
		},
		{
			"buffer":0,
			"byteLength":86016,
			"byteOffset":5700488,
			"target":34963
		},
		{
			"buffer":0,
			"byteLength":122976,
			"byteOffset":5786504,
			"target":34962
		},
		{
			"buffer":0,
			"byteLength":122976,
			"byteOffset":5909480,
			"target":34962
		},
		{
			"buffer":0,
			"byteLength":81984,
			"byteOffset":6032456,
			"target":34962
		},
		{
			"buffer":0,
			"byteLength":113664,
			"byteOffset":6114440,
			"target":34963
		},
		{
			"buffer":0,
			"byteLength":92868,
			"byteOffset":6228104,
			"target":34962
		},
		{
			"buffer":0,
			"byteLength":92868,
			"byteOffset":6320972,
			"target":34962
		},
		{
			"buffer":0,
			"byteLength":61912,
			"byteOffset":6413840,
			"target":34962
		},
		{
			"buffer":0,
			"byteLength":936,
			"byteOffset":6475752,
			"target":34962
		},
		{
			"buffer":0,
			"byteLength":936,
			"byteOffset":6476688,
			"target":34962
		},
		{
			"buffer":0,
			"byteLength":624,
			"byteOffset":6477624,
			"target":34962
		},
		{
			"buffer":0,
			"byteLength":192,
			"byteOffset":6478248,
			"target":34963
		},
		{
			"buffer":0,
			"byteLength":141936,
			"byteOffset":6478440,
			"target":34962
		},
		{
			"buffer":0,
			"byteLength":141936,
			"byteOffset":6620376,
			"target":34962
		},
		{
			"buffer":0,
			"byteLength":94624,
			"byteOffset":6762312,
			"target":34962
		},
		{
			"buffer":0,
			"byteLength":118968,
			"byteOffset":6856936,
			"target":34963
		},
		{
			"buffer":0,
			"byteLength":63696,
			"byteOffset":6975904,
			"target":34962
		},
		{
			"buffer":0,
			"byteLength":63696,
			"byteOffset":7039600,
			"target":34962
		},
		{
			"buffer":0,
			"byteLength":42464,
			"byteOffset":7103296,
			"target":34962
		},
		{
			"buffer":0,
			"byteLength":55104,
			"byteOffset":7145760,
			"target":34963
		},
		{
			"buffer":0,
			"byteLength":20784,
			"byteOffset":7200864,
			"target":34962
		},
		{
			"buffer":0,
			"byteLength":20784,
			"byteOffset":7221648,
			"target":34962
		},
		{
			"buffer":0,
			"byteLength":13856,
			"byteOffset":7242432,
			"target":34962
		},
		{
			"buffer":0,
			"byteLength":18252,
			"byteOffset":7256288,
			"target":34963
		},
		{
			"buffer":0,
			"byteLength":143748,
			"byteOffset":7274540,
			"target":34962
		},
		{
			"buffer":0,
			"byteLength":143748,
			"byteOffset":7418288,
			"target":34962
		},
		{
			"buffer":0,
			"byteLength":95832,
			"byteOffset":7562036,
			"target":34962
		},
		{
			"buffer":0,
			"byteLength":86904,
			"byteOffset":7657868,
			"target":34963
		}
	],
	"samplers":[
		{
			"magFilter":9729,
			"minFilter":9987
		}
	],
	"buffers":[
		{
			"byteLength":7744772,
			"uri":"sponza.bin"
		}
	]
}
