{
	"asset":{
		"generator":"Khronos glTF Blender I/O v5.2.23 for Foundation",
		"version":"2.0"
	},
	"extensionsUsed":[
		"EXT_foundation_environment",
		"KHR_materials_transmission",
		"EXT_foundation_materials",
		"KHR_materials_specular",
		"KHR_texture_transform",
		"EXT_materials_subsurface",
		"KHR_materials_sheen",
		"KHR_lights_punctual",
		"EXT_foundation_colormanagement"
	],
	"extensionsRequired":[
		"KHR_texture_transform",
		"KHR_lights_punctual"
	],
	"extensions":{
		"KHR_lights_punctual":{
			"lights":[
				{
					"color":[
						1,
						1,
						1
					],
					"intensity":54351.41306588226,
					"spot":{
						"innerConeAngle":0.39269909262657166,
						"outerConeAngle":0.39269909262657166
					},
					"type":"spot",
					"name":"Spot",
					"extensions":{
						"EXT_foundation_lights":{
							"radius":1
						}
					}
				},
				{
					"color":[
						1,
						1,
						1
					],
					"intensity":683,
					"type":"directional",
					"name":"Sun",
					"extensions":{
						"EXT_foundation_lights":{
							"angularDiameter":0.03490658476948738
						}
					}
				}
			]
		},
		"EXT_foundation_colormanagement":{
			"postExposure":0,
			"sdr":"SDR / AgX / No Look",
			"hdr":"HDR / ACES 1.3 - HDR 1000 nits / No Look"
		}
	},
	"scene":0,
	"scenes":[
		{
			"extensions":{
				"EXT_foundation_environment":{
					"type":"hdri",
					"uri":"sunset.hdr",
					"projection":"longlat",
					"strength":1
				}
			},
			"name":"Scene",
			"nodes":[
				0,
				1,
				2,
				3,
				5,
				7,
				9,
				11,
				37,
				38,
				39
			]
		}
	],
	"nodes":[
		{
			"mesh":0,
			"name":"c_brows_mid",
			"translation":[
				-0.022083919495344162,
				14.960859298706055,
				0.3446457087993622
			]
		},
		{
			"mesh":1,
			"name":"c_shirt_hi1.001",
			"translation":[
				0.01680578663945198,
				10.51667594909668,
				-0.6227282285690308
			]
		},
		{
			"camera":0,
			"name":"Camera",
			"translation":[
				0.13019666075706482,
				14.449264526367188,
				20.59037971496582
			]
		},
		{
			"mesh":2,
			"name":"hairtie_new.001",
			"translation":[
				-0.01616683043539524,
				15.1025972366333,
				-1.6871649026870728
			]
		},
		{
			"mesh":3,
			"name":"babyHairFront",
			"translation":[
				0.0030107833445072174,
				15.315502166748047,
				-0.10131306201219559
			]
		},
		{
			"children":[
				4
			],
			"name":"Root"
		},
		{
			"mesh":4,
			"name":"babyHairBack",
			"translation":[
				0.007862329483032227,
				14.156351089477539,
				-1.0516102313995361
			]
		},
		{
			"children":[
				6
			],
			"name":"Root.001"
		},
		{
			"mesh":5,
			"name":"ponyTail",
			"translation":[
				-0.0075811464339494705,
				14.235420227050781,
				-2.003688097000122
			]
		},
		{
			"children":[
				8
			],
			"name":"Root.002"
		},
		{
			"mesh":6,
			"name":"hairMain",
			"translation":[
				-0.004333933349698782,
				15.355195045471191,
				-1.167486548423767
			]
		},
		{
			"children":[
				10
			],
			"name":"Root.003"
		},
		{
			"mesh":7,
			"name":"c_button_placket_1_hi1",
			"translation":[
				0.0834253579378128,
				12.616408348083496,
				0.08682810515165329
			]
		},
		{
			"mesh":8,
			"name":"c_button_placket_2_hi1",
			"translation":[
				-0.0019675083458423615,
				11.810359001159668,
				0.5327355861663818
			]
		},
		{
			"mesh":9,
			"name":"c_button_placket_3_hi1",
			"translation":[
				-0.007347680628299713,
				10.991416931152344,
				0.734316349029541
			]
		},
		{
			"mesh":10,
			"name":"c_button_placket_4_hi1",
			"translation":[
				-0.002729750471189618,
				10.099388122558594,
				0.7217808365821838
			]
		},
		{
			"mesh":11,
			"name":"c_button_placket_5_hi1",
			"translation":[
				-0.0014990373747423291,
				9.299661636352539,
				0.6783326268196106
			]
		},
		{
			"mesh":12,
			"name":"c_button_placket_6_hi1",
			"translation":[
				-0.045302774757146835,
				8.510526657104492,
				0.5447784066200256
			]
		},
		{
			"mesh":13,
			"name":"c_button_placket_7_hi1",
			"translation":[
				0.07692817598581314,
				7.76177978515625,
				0.28225597739219666
			]
		},
		{
			"mesh":14,
			"name":"c_headWatertight_hi2",
			"translation":[
				0.015701765194535255,
				14.234711647033691,
				-0.5903123021125793
			]
		},
		{
			"mesh":15,
			"name":"c_shirt_hi1",
			"translation":[
				0.016803869977593422,
				10.51667308807373,
				-0.6227258443832397
			]
		},
		{
			"mesh":16,
			"name":"earring_metal3",
			"translation":[
				-0.7457784414291382,
				14.327345848083496,
				-0.5208954215049744
			]
		},
		{
			"mesh":17,
			"name":"earring_metal4",
			"translation":[
				-0.6819912195205688,
				14.312442779541016,
				-0.566024124622345
			]
		},
		{
			"mesh":18,
			"name":"earringmetal3",
			"translation":[
				0.795955240726471,
				14.316421508789062,
				-0.5046951770782471
			]
		},
		{
			"mesh":19,
			"name":"earringmetal4",
			"translation":[
				0.7360144257545471,
				14.288984298706055,
				-0.5503842830657959
			]
		},
		{
			"mesh":20,
			"name":"c_frame_lo",
			"translation":[
				0.009057850576937199,
				14.727283477783203,
				0.11975172907114029
			]
		},
		{
			"mesh":21,
			"name":"c_tech_lo",
			"translation":[
				0.010161970742046833,
				14.804800033569336,
				0.3487599492073059
			]
		},
		{
			"children":[
				25,
				26
			],
			"name":"glasses_06"
		},
		{
			"mesh":22,
			"name":"l_choroid_hi1",
			"translation":[
				0.3109998106956482,
				14.748373985290527,
				0.23136024177074432
			]
		},
		{
			"mesh":23,
			"name":"l_cornea_hi1",
			"translation":[
				0.31066569685935974,
				14.748187065124512,
				0.2328009158372879
			]
		},
		{
			"mesh":24,
			"name":"l_tearline_hi1",
			"translation":[
				0.2696075737476349,
				14.76714038848877,
				0.3682292699813843
			]
		},
		{
			"mesh":25,
			"name":"lash_tube2",
			"translation":[
				0.00630599120631814,
				14.760706901550293,
				0.38081973791122437
			]
		},
		{
			"mesh":26,
			"name":"pearl_l1",
			"translation":[
				0.8172474503517151,
				14.325740814208984,
				-0.48596739768981934
			]
		},
		{
			"mesh":27,
			"name":"pearl_r1",
			"translation":[
				-0.7682267427444458,
				14.332779884338379,
				-0.5016297698020935
			]
		},
		{
			"mesh":28,
			"name":"r_choroid_hi1",
			"translation":[
				-0.29948222637176514,
				14.753561973571777,
				0.22639167308807373
			]
		},
		{
			"mesh":29,
			"name":"r_cornea_hi1",
			"translation":[
				-0.3000495433807373,
				14.75407600402832,
				0.22833207249641418
			]
		},
		{
			"mesh":30,
			"name":"r_tearline_hi1",
			"translation":[
				-0.2622476816177368,
				14.771821975708008,
				0.3703681528568268
			]
		},
		{
			"children":[
				12,
				13,
				14,
				15,
				16,
				17,
				18,
				19,
				20,
				21,
				22,
				23,
				24,
				27,
				28,
				29,
				30,
				31,
				32,
				33,
				34,
				35,
				36
			],
			"name":"smile_pos"
		},
		{
			"extensions":{
				"KHR_lights_punctual":{
					"light":0
				}
			},
			"name":"Spot",
			"rotation":[
				0,
				0,
				-0.03336638584733009,
				0.9994432926177979
			],
			"translation":[
				0.014307592064142227,
				14.379305839538574,
				8
			]
		},
		{
			"extensions":{
				"KHR_lights_punctual":{
					"light":1
				}
			},
			"name":"Sun",
			"rotation":[
				-0.6963642835617065,
				0.12278780341148376,
				-0.12278778105974197,
				0.6963642835617065
			],
			"translation":[
				0,
				19,
				0
			]
		}
	],
	"cameras":[
		{
			"name":"Camera.001",
			"perspective":{
				"aspectRatio":1.7777777777777777,
				"yfov":0.16164709401156996,
				"zfar":1000,
				"znear":0.10000000149011612
			},
			"type":"perspective"
		}
	],
	"materials":[
		{
			"extensions":{
				"EXT_foundation_materials":{
					"shaderBlock":"hair",
					"model":"chiang",
					"betaM":1,
					"betaN":0.30000001192092896,
					"alpha":0.03490658476948738,
					"ior":1.5
				}
			},
			"name":"OmniHairBase",
			"pbrMetallicRoughness":{
				"baseColorFactor":[
					0,
					0,
					0,
					1
				],
				"metallicFactor":0,
				"roughnessFactor":1
			}
		},
		{
			"doubleSided":true,
			"extensions":{
				"EXT_foundation_materials":{
					"shaderBlock":"principled"
				}
			},
			"name":"shirt_mtl.001",
			"normalTexture":{
				"extensions":{
					"KHR_texture_transform":{
						"offset":[
							0,
							-9
						],
						"scale":[
							15,
							15
						]
					}
				},
				"index":0
			},
			"pbrMetallicRoughness":{
				"baseColorTexture":{
					"index":1
				},
				"metallicRoughnessTexture":{
					"index":2
				}
			}
		},
		{
			"doubleSided":true,
			"extensions":{
				"EXT_foundation_materials":{
					"shaderBlock":"principled"
				}
			},
			"name":"shirt_mtl.002",
			"normalTexture":{
				"extensions":{
					"KHR_texture_transform":{
						"offset":[
							0,
							-9
						],
						"scale":[
							15,
							15
						]
					}
				},
				"index":3
			},
			"pbrMetallicRoughness":{
				"baseColorTexture":{
					"index":4
				},
				"metallicRoughnessTexture":{
					"index":5
				}
			}
		},
		{
			"doubleSided":true,
			"extensions":{
				"EXT_foundation_materials":{
					"shaderBlock":"principled"
				}
			},
			"name":"hairtie_mtl",
			"normalTexture":{
				"index":6
			},
			"pbrMetallicRoughness":{
				"baseColorTexture":{
					"index":7
				},
				"metallicFactor":0.5,
				"metallicRoughnessTexture":{
					"index":8
				},
				"roughnessFactor":2
			}
		},
		{
			"doubleSided":true,
			"extensions":{
				"EXT_foundation_materials":{
					"shaderBlock":"principled"
				}
			},
			"name":"button_mtl",
			"pbrMetallicRoughness":{
				"baseColorFactor":[
					0.3499999940395355,
					0.30000001192092896,
					0.4000000059604645,
					1
				],
				"metallicFactor":0.10000000149011612,
				"roughnessFactor":0.5
			}
		},
		{
			"doubleSided":true,
			"extensions":{
				"EXT_materials_subsurface":{
					"subsurfaceProfile":"burley",
					"subsurfaceWeight":1,
					"subsurfaceRadius":[
						1,
						0.20000000298023224,
						0.10000000149011612
					],
					"subsurfaceScale":0.20000000298023224
				},
				"EXT_foundation_materials":{
					"shaderBlock":"principled"
				}
			},
			"name":"claire_skin.1001",
			"normalTexture":{
				"index":9
			},
			"pbrMetallicRoughness":{
				"baseColorTexture":{
					"index":10
				},
				"metallicFactor":0,
				"metallicRoughnessTexture":{
					"index":11
				},
				"roughnessFactor":0.800000011920929
			}
		},
		{
			"doubleSided":true,
			"extensions":{
				"EXT_foundation_materials":{
					"shaderBlock":"principled"
				}
			},
			"name":"claire_skin.1002",
			"normalTexture":{
				"index":12
			},
			"pbrMetallicRoughness":{
				"baseColorTexture":{
					"index":13
				},
				"metallicFactor":0,
				"metallicRoughnessTexture":{
					"index":14
				},
				"roughnessFactor":0.800000011920929
			}
		},
		{
			"doubleSided":true,
			"extensions":{
				"KHR_materials_sheen":{
					"sheenColorFactor":[
						1.0,
						1.0,
						1.0
					],
					"sheenRoughnessFactor":0.5
				},
				"EXT_foundation_materials":{
					"shaderBlock":"principled"
				}
			},
			"name":"shirt_mtl.1001",
			"normalTexture":{
				"extensions":{
					"KHR_texture_transform":{
						"offset":[
							0,
							-29
						],
						"scale":[
							10,
							10
						]
					}
				},
				"index":15
			},
			"pbrMetallicRoughness":{
				"baseColorFactor":[
					0.800000011920929,
					0.800000011920929,
					0.800000011920929,
					1
				],
				"baseColorTexture":{
					"index":16
				},
				"metallicFactor":1.1200000047683716,
				"metallicRoughnessTexture":{
					"index":17
				},
				"roughnessFactor":0.800000011920929
			}
		},
		{
			"doubleSided":true,
			"extensions":{
				"EXT_foundation_materials":{
					"shaderBlock":"principled"
				}
			},
			"name":"shirt_mtl.1002",
			"normalTexture":{
				"extensions":{
					"KHR_texture_transform":{
						"offset":[
							0,
							-29
						],
						"scale":[
							10,
							10
						]
					}
				},
				"index":18
			},
			"pbrMetallicRoughness":{
				"baseColorFactor":[
					0.800000011920929,
					0.800000011920929,
					0.800000011920929,
					1
				],
				"baseColorTexture":{
					"index":19
				},
				"metallicFactor":1.1200000047683716,
				"metallicRoughnessTexture":{
					"index":20
				},
				"roughnessFactor":0.800000011920929
			}
		},
		{
			"doubleSided":true,
			"extensions":{
				"EXT_foundation_materials":{
					"shaderBlock":"principled"
				}
			},
			"name":"earrings_metal",
			"pbrMetallicRoughness":{
				"baseColorFactor":[
					0.4754999876022339,
					0.4754999876022339,
					0.4754999876022339,
					1
				],
				"metallicFactor":0.9599999785423279,
				"roughnessFactor":0.20000000298023224
			}
		},
		{
			"doubleSided":true,
			"extensions":{
				"EXT_foundation_materials":{
					"shaderBlock":"principled"
				}
			},
			"name":"glass_frame",
			"pbrMetallicRoughness":{
				"baseColorTexture":{
					"index":21
				},
				"metallicFactor":0,
				"roughnessFactor":0.15000000596046448
			}
		},
		{
			"doubleSided":true,
			"extensions":{
				"EXT_foundation_materials":{
					"shaderBlock":"principled"
				}
			},
			"name":"brushedMetal",
			"pbrMetallicRoughness":{
				"baseColorFactor":[
					0.31224000453948975,
					0.31224000453948975,
					0.31224000453948975,
					1
				],
				"roughnessFactor":0
			}
		},
		{
			"doubleSided":true,
			"extensions":{
				"EXT_foundation_materials":{
					"shaderBlock":"principled"
				}
			},
			"name":"eye_choroid",
			"pbrMetallicRoughness":{
				"baseColorFactor":[
					1,
					1,
					0.8999999761581421,
					1
				],
				"baseColorTexture":{
					"index":22
				},
				"metallicFactor":0,
				"roughnessFactor":1.1200000047683716
			}
		},
		{
			"doubleSided":true,
			"extensions":{
				"KHR_materials_transmission":{
					"transmissionFactor":1
				},
				"EXT_foundation_materials":{
					"shaderBlock":"principled"
				}
			},
			"name":"eye_cornea",
			"pbrMetallicRoughness":{
				"metallicFactor":0,
				"roughnessFactor":0.10000000149011612
			}
		},
		{
			"doubleSided":true,
			"extensions":{
				"KHR_materials_transmission":{
					"transmissionFactor":1
				},
				"EXT_foundation_materials":{
					"shaderBlock":"principled"
				}
			},
			"name":"tearline_mtl",
			"pbrMetallicRoughness":{
				"metallicFactor":0,
				"roughnessFactor":0.25
			}
		},
		{
			"doubleSided":true,
			"extensions":{
				"EXT_foundation_materials":{
					"shaderBlock":"principled"
				}
			},
			"name":"lash_hair",
			"pbrMetallicRoughness":{
				"baseColorFactor":[
					0.10000000149011612,
					0.10000000149011612,
					0.10000000149011612,
					1
				],
				"metallicFactor":0,
				"roughnessFactor":0.30000001192092896
			}
		},
		{
			"doubleSided":true,
			"extensions":{
				"KHR_materials_specular":{
					"specularColorFactor":[
						0.9567700028419495,
						0.8799700140953064,
						0.8077800273895264
					]
				},
				"EXT_foundation_materials":{
					"shaderBlock":"principled"
				}
			},
			"name":"ear_pearl",
			"pbrMetallicRoughness":{
				"baseColorFactor":[
					0.019999999552965164,
					0.05999999865889549,
					0,
					1
				],
				"metallicFactor":0,
				"roughnessFactor":0.33000001311302185
			}
		}
	],
	"meshes":[
		{
			"name":"Mesh.033",
			"primitives":[
				{
					"attributes":{
						"POSITION":0,
						"NORMAL":1,
						"TEXCOORD_0":2,
						"TEXCOORD_1":3,
						"COLOR_0":4,
						"COLOR_1":5,
						"COLOR_2":6,
						"COLOR_3":7
					},
					"indices":8,
					"material":0
				}
			]
		},
		{
			"name":"Mesh.001",
			"primitives":[
				{
					"attributes":{
						"POSITION":9,
						"NORMAL":10,
						"TEXCOORD_0":11
					},
					"indices":12,
					"material":1
				},
				{
					"attributes":{
						"POSITION":13,
						"NORMAL":14,
						"TEXCOORD_0":15
					},
					"indices":16,
					"material":2
				}
			]
		},
		{
			"name":"Mesh.002",
			"primitives":[
				{
					"attributes":{
						"POSITION":17,
						"NORMAL":18,
						"TEXCOORD_0":19
					},
					"indices":20,
					"material":3
				}
			]
		},
		{
			"name":"babyHairFront",
			"primitives":[
				{
					"attributes":{
						"POSITION":21,
						"_RADIUS":22,
						"TEXCOORD_0":23
					},
					"indices":24,
					"material":0,
					"mode":1
				}
			]
		},
		{
			"name":"babyHairBack",
			"primitives":[
				{
					"attributes":{
						"POSITION":25,
						"_RADIUS":26,
						"TEXCOORD_0":27
					},
					"indices":28,
					"material":0,
					"mode":1
				}
			]
		},
		{
			"name":"ponyTail",
			"primitives":[
				{
					"attributes":{
						"POSITION":29,
						"_RADIUS":30,
						"TEXCOORD_0":31
					},
					"indices":32,
					"material":0,
					"mode":1
				}
			]
		},
		{
			"name":"hairMain",
			"primitives":[
				{
					"attributes":{
						"POSITION":33,
						"_RADIUS":34,
						"TEXCOORD_0":35
					},
					"indices":36,
					"material":0,
					"mode":1
				}
			]
		},
		{
			"name":"Mesh.006",
			"primitives":[
				{
					"attributes":{
						"POSITION":37,
						"NORMAL":38,
						"TEXCOORD_0":39
					},
					"indices":40,
					"material":4
				}
			]
		},
		{
			"name":"Mesh.007",
			"primitives":[
				{
					"attributes":{
						"POSITION":41,
						"NORMAL":42,
						"TEXCOORD_0":43
					},
					"indices":44,
					"material":4
				}
			]
		},
		{
			"name":"Mesh.008",
			"primitives":[
				{
					"attributes":{
						"POSITION":45,
						"NORMAL":46,
						"TEXCOORD_0":47
					},
					"indices":48,
					"material":4
				}
			]
		},
		{
			"name":"Mesh.009",
			"primitives":[
				{
					"attributes":{
						"POSITION":49,
						"NORMAL":50,
						"TEXCOORD_0":51
					},
					"indices":52,
					"material":4
				}
			]
		},
		{
			"name":"Mesh.010",
			"primitives":[
				{
					"attributes":{
						"POSITION":53,
						"NORMAL":54,
						"TEXCOORD_0":55
					},
					"indices":56,
					"material":4
				}
			]
		},
		{
			"name":"Mesh.011",
			"primitives":[
				{
					"attributes":{
						"POSITION":57,
						"NORMAL":58,
						"TEXCOORD_0":59
					},
					"indices":60,
					"material":4
				}
			]
		},
		{
			"name":"Mesh.012",
			"primitives":[
				{
					"attributes":{
						"POSITION":61,
						"NORMAL":62,
						"TEXCOORD_0":63
					},
					"indices":64,
					"material":4
				}
			]
		},
		{
			"name":"Mesh.013",
			"primitives":[
				{
					"attributes":{
						"POSITION":65,
						"NORMAL":66,
						"TEXCOORD_0":67,
						"TEXCOORD_1":68,
						"TEXCOORD_2":69,
						"COLOR_0":70,
						"COLOR_1":71,
						"COLOR_2":72
					},
					"indices":73,
					"material":5
				},
				{
					"attributes":{
						"POSITION":74,
						"NORMAL":75,
						"TEXCOORD_0":76,
						"TEXCOORD_1":77,
						"TEXCOORD_2":78,
						"COLOR_0":79,
						"COLOR_1":80,
						"COLOR_2":81
					},
					"indices":82,
					"material":6
				}
			]
		},
		{
			"name":"Mesh.005",
			"primitives":[
				{
					"attributes":{
						"POSITION":83,
						"NORMAL":84,
						"TEXCOORD_0":85
					},
					"indices":12,
					"material":7
				},
				{
					"attributes":{
						"POSITION":86,
						"NORMAL":87,
						"TEXCOORD_0":88
					},
					"indices":16,
					"material":8
				}
			]
		},
		{
			"name":"Mesh.020",
			"primitives":[
				{
					"attributes":{
						"POSITION":89,
						"NORMAL":90,
						"TEXCOORD_0":91
					},
					"indices":92,
					"material":9
				}
			]
		},
		{
			"name":"Mesh.024",
			"primitives":[
				{
					"attributes":{
						"POSITION":93,
						"NORMAL":94
					},
					"indices":95,
					"material":9
				}
			]
		},
		{
			"name":"Mesh.021",
			"primitives":[
				{
					"attributes":{
						"POSITION":96,
						"NORMAL":97,
						"TEXCOORD_0":98
					},
					"indices":99,
					"material":9
				}
			]
		},
		{
			"name":"Mesh.023",
			"primitives":[
				{
					"attributes":{
						"POSITION":100,
						"NORMAL":101
					},
					"indices":102,
					"material":9
				}
			]
		},
		{
			"name":"Mesh.025",
			"primitives":[
				{
					"attributes":{
						"POSITION":103,
						"NORMAL":104,
						"TEXCOORD_0":105
					},
					"indices":106,
					"material":10
				}
			]
		},
		{
			"name":"Mesh.027",
			"primitives":[
				{
					"attributes":{
						"POSITION":107,
						"NORMAL":108,
						"TEXCOORD_0":109
					},
					"indices":110,
					"material":11
				}
			]
		},
		{
			"name":"Mesh.017",
			"primitives":[
				{
					"attributes":{
						"POSITION":111,
						"NORMAL":112,
						"TEXCOORD_0":113
					},
					"indices":114,
					"material":12
				}
			]
		},
		{
			"name":"Mesh.015",
			"primitives":[
				{
					"attributes":{
						"POSITION":115,
						"NORMAL":116,
						"TEXCOORD_0":117
					},
					"indices":118,
					"material":13
				}
			]
		},
		{
			"name":"Mesh.003",
			"primitives":[
				{
					"attributes":{
						"POSITION":119,
						"NORMAL":120,
						"TEXCOORD_0":121
					},
					"indices":122,
					"material":14
				}
			]
		},
		{
			"name":"Mesh.014",
			"primitives":[
				{
					"attributes":{
						"POSITION":123,
						"NORMAL":124,
						"TEXCOORD_0":125,
						"TEXCOORD_1":126
					},
					"indices":127,
					"material":15
				}
			]
		},
		{
			"name":"Mesh.022",
			"primitives":[
				{
					"attributes":{
						"POSITION":128,
						"NORMAL":129,
						"TEXCOORD_0":130
					},
					"indices":131,
					"material":16
				}
			]
		},
		{
			"name":"Mesh.019",
			"primitives":[
				{
					"attributes":{
						"POSITION":132,
						"NORMAL":133,
						"TEXCOORD_0":134
					},
					"indices":131,
					"material":16
				}
			]
		},
		{
			"name":"Mesh.018",
			"primitives":[
				{
					"attributes":{
						"POSITION":135,
						"NORMAL":136,
						"TEXCOORD_0":137
					},
					"indices":138,
					"material":12
				}
			]
		},
		{
			"name":"Mesh.016",
			"primitives":[
				{
					"attributes":{
						"POSITION":139,
						"NORMAL":140,
						"TEXCOORD_0":141
					},
					"indices":142,
					"material":13
				}
			]
		},
		{
			"name":"Mesh.004",
			"primitives":[
				{
					"attributes":{
						"POSITION":143,
						"NORMAL":144,
						"TEXCOORD_0":145
					},
					"indices":146,
					"material":14
				}
			]
		}
	],
	"textures":[
		{
			"sampler":0,
			"source":0
		},
		{
			"sampler":0,
			"source":1
		},
		{
			"sampler":0,
			"source":2
		},
		{
			"sampler":0,
			"source":0
		},
		{
			"sampler":0,
			"source":3
		},
		{
			"sampler":0,
			"source":4
		},
		{
			"sampler":0,
			"source":5
		},
		{
			"sampler":0,
			"source":6
		},
		{
			"sampler":0,
			"source":7
		},
		{
			"sampler":0,
			"source":8
		},
		{
			"sampler":0,
			"source":9
		},
		{
			"sampler":0,
			"source":10
		},
		{
			"sampler":0,
			"source":8
		},
		{
			"sampler":0,
			"source":9
		},
		{
			"sampler":0,
			"source":11
		},
		{
			"sampler":0,
			"source":0
		},
		{
			"sampler":0,
			"source":12
		},
		{
			"sampler":0,
			"source":13
		},
		{
			"sampler":0,
			"source":0
		},
		{
			"sampler":0,
			"source":14
		},
		{
			"sampler":0,
			"source":15
		},
		{
			"sampler":0,
			"source":16
		},
		{
			"sampler":0,
			"source":17
		}
	],
	"images":[
		{
			"mimeType":"image/jpeg",
			"name":"cot_ox_norm",
			"uri":"cot_ox_norm.jpg"
		},
		{
			"mimeType":"image/png",
			"name":"gar_rachel_shirt_dress_basecolor_1001",
			"uri":"gar_rachel_shirt_dress_basecolor_1001.png"
		},
		{
			"mimeType":"image/png",
			"name":"gar_rachel_shirt_dress_metalness_1001-gar_rachel_shirt_dress_roughness_1001_png",
			"uri":"gar_rachel_shirt_dress_metalness_1001-gar_rachel_shirt_dress_roughness_1001_png.png"
		},
		{
			"mimeType":"image/png",
			"name":"gar_rachel_shirt_dress_basecolor_1002",
			"uri":"gar_rachel_shirt_dress_basecolor_1002.png"
		},
		{
			"mimeType":"image/png",
			"name":"gar_rachel_shirt_dress_metalness_1002-gar_rachel_shirt_dress_roughness_1002_png",
			"uri":"gar_rachel_shirt_dress_metalness_1002-gar_rachel_shirt_dress_roughness_1002_png.png"
		},
		{
			"mimeType":"image/png",
			"name":"Claire_hairTie_geometryNormal",
			"uri":"Claire_hairTie_geometryNormal.png"
		},
		{
			"mimeType":"image/png",
			"name":"Claire_hairTie_diffuseReflectionColor",
			"uri":"Claire_hairTie_diffuseReflectionColor.png"
		},
		{
			"mimeType":"image/png",
			"name":"Claire_hairTie_metalness-Claire_hairTie_Roughness",
			"uri":"Claire_hairTie_metalness-Claire_hairTie_Roughness.png"
		},
		{
			"mimeType":"image/png",
			"name":"rachel_c_skin_geometryNormal_1001",
			"uri":"rachel_c_skin_geometryNormal_1001.png"
		},
		{
			"mimeType":"image/jpeg",
			"name":"diffuseAlbedo",
			"uri":"diffuseAlbedo.jpg"
		},
		{
			"mimeType":"image/png",
			"name":"rachel_c_skin_coatRoughness_1001",
			"uri":"rachel_c_skin_coatRoughness_1001.png"
		},
		{
			"mimeType":"image/png",
			"name":"rachel_c_skin_coatRoughness_1002",
			"uri":"rachel_c_skin_coatRoughness_1002.png"
		},
		{
			"mimeType":"image/png",
			"name":"gar_rachel_shirt_dress_basecolor_1001",
			"uri":"gar_rachel_shirt_dress_basecolor_1001-1.png"
		},
		{
			"mimeType":"image/png",
			"name":"gar_rachel_shirt_dress_metalness_1001-gar_rachel_shirt_dress_roughness_1001",
			"uri":"gar_rachel_shirt_dress_metalness_1001-gar_rachel_shirt_dress_roughness_1001.png"
		},
		{
			"mimeType":"image/png",
			"name":"gar_rachel_shirt_dress_basecolor_1002",
			"uri":"gar_rachel_shirt_dress_basecolor_1002-1.png"
		},
		{
			"mimeType":"image/png",
			"name":"gar_rachel_shirt_dress_metalness_1002-gar_rachel_shirt_dress_roughness_1002",
			"uri":"gar_rachel_shirt_dress_metalness_1002-gar_rachel_shirt_dress_roughness_1002.png"
		},
		{
			"mimeType":"image/jpeg",
			"name":"glass_04_diffuseReflectionColor",
			"uri":"glass_04_diffuseReflectionColor.jpg"
		},
		{
			"mimeType":"image/jpeg",
			"name":"rachel_eye_sclera_RT",
			"uri":"rachel_eye_sclera_RT.jpg"
		}
	],
	"accessors":[
		{
			"bufferView":0,
			"componentType":5126,
			"count":39756,
			"max":[
				0.6292564272880554,
				0.09741878509521484,
				0.07438242435455322
			],
			"min":[
				-0.5908650159835815,
				-0.15020275115966797,
				-0.2520413398742676
			],
			"type":"VEC3"
		},
		{
			"bufferView":1,
			"componentType":5126,
			"count":39756,
			"type":"VEC3"
		},
		{
			"bufferView":2,
			"componentType":5126,
			"count":39756,
			"type":"VEC2"
		},
		{
			"bufferView":3,
			"componentType":5126,
			"count":39756,
			"type":"VEC2"
		},
		{
			"bufferView":4,
			"componentType":5121,
			"count":39756,
			"normalized":true,
			"type":"VEC4"
		},
		{
			"bufferView":5,
			"componentType":5123,
			"count":39756,
			"normalized":true,
			"type":"VEC4"
		},
		{
			"bufferView":6,
			"componentType":5123,
			"count":39756,
			"normalized":true,
			"type":"VEC4"
		},
		{
			"bufferView":7,
			"componentType":5123,
			"count":39756,
			"normalized":true,
			"type":"VEC4"
		},
		{
			"bufferView":8,
			"componentType":5123,
			"count":119268,
			"type":"SCALAR"
		},
		{
			"bufferView":9,
			"componentType":5126,
			"count":37775,
			"max":[
				3.609255075454712,
				3.1528701782226562,
				1.3832697868347168
			],
			"min":[
				-3.5579941272735596,
				-3.118776321411133,
				-1.0820766687393188
			],
			"type":"VEC3"
		},
		{
			"bufferView":10,
			"componentType":5126,
			"count":37775,
			"type":"VEC3"
		},
		{
			"bufferView":11,
			"componentType":5126,
			"count":37775,
			"type":"VEC2"
		},
		{
			"bufferView":12,
			"componentType":5123,
			"count":213504,
			"type":"SCALAR"
		},
		{
			"bufferView":13,
			"componentType":5126,
			"count":27559,
			"max":[
				3.8367648124694824,
				2.1457576751708984,
				1.1408216953277588
			],
			"min":[
				-3.858574390411377,
				-3.207313060760498,
				-1.4241129159927368
			],
			"type":"VEC3"
		},
		{
			"bufferView":14,
			"componentType":5126,
			"count":27559,
			"type":"VEC3"
		},
		{
			"bufferView":15,
			"componentType":5126,
			"count":27559,
			"type":"VEC2"
		},
		{
			"bufferView":16,
			"componentType":5123,
			"count":156528,
			"type":"SCALAR"
		},
		{
			"bufferView":17,
			"componentType":5126,
			"count":25090,
			"max":[
				0.20846588909626007,
				0.22075843811035156,
				0.09859144687652588
			],
			"min":[
				-0.20205721259117126,
				-0.22000885009765625,
				-0.09898853302001953
			],
			"type":"VEC3"
		},
		{
			"bufferView":18,
			"componentType":5126,
			"count":25090,
			"type":"VEC3"
		},
		{
			"bufferView":19,
			"componentType":5126,
			"count":25090,
			"type":"VEC2"
		},
		{
			"bufferView":20,
			"componentType":5123,
			"count":147456,
			"type":"SCALAR"
		},
		{
			"bufferView":21,
			"componentType":5126,
			"count":228424,
			"max":[
				1.0039142370224,
				0.6699752807617188,
				0.5193548798561096
			],
			"min":[
				-1.0098867416381836,
				-1.2462501525878906,
				-0.7841413617134094
			],
			"type":"VEC3"
		},
		{
			"bufferView":22,
			"componentType":5126,
			"count":228424,
			"type":"SCALAR"
		},
		{
			"bufferView":23,
			"componentType":5126,
			"count":228424,
			"type":"VEC2"
		},
		{
			"bufferView":24,
			"componentType":5125,
			"count":228424,
			"type":"SCALAR"
		},
		{
			"bufferView":25,
			"componentType":5126,
			"count":59248,
			"max":[
				1.168905258178711,
				0.41032981872558594,
				0.7220958471298218
			],
			"min":[
				-0.8496424555778503,
				-0.7897233963012695,
				-0.377443790435791
			],
			"type":"VEC3"
		},
		{
			"bufferView":26,
			"componentType":5126,
			"count":59248,
			"type":"SCALAR"
		},
		{
			"bufferView":27,
			"componentType":5126,
			"count":59248,
			"type":"VEC2"
		},
		{
			"bufferView":28,
			"componentType":5125,
			"count":59248,
			"type":"SCALAR"
		},
		{
			"bufferView":29,
			"componentType":5126,
			"count":1151172,
			"max":[
				1.5286824703216553,
				1.0380878448486328,
				1.1134973764419556
			],
			"min":[
				-1.2164418697357178,
				-1.8154754638671875,
				-0.9886369705200195
			],
			"type":"VEC3"
		},
		{
			"bufferView":30,
			"componentType":5126,
			"count":1151172,
			"type":"SCALAR"
		},
		{
			"bufferView":31,
			"componentType":5126,
			"count":1151172,
			"type":"VEC2"
		},
		{
			"bufferView":32,
			"componentType":5125,
			"count":1151172,
			"type":"SCALAR"
		},
		{
			"bufferView":33,
			"componentType":5126,
			"count":1873166,
			"max":[
				1.2819321155548096,
				0.6435451507568359,
				1.3293089866638184
			],
			"min":[
				-1.038631796836853,
				-1.8355321884155273,
				-0.5121296644210815
			],
			"type":"VEC3"
		},
		{
			"bufferView":34,
			"componentType":5126,
			"count":1873166,
			"type":"SCALAR"
		},
		{
			"bufferView":35,
			"componentType":5126,
			"count":1873166,
			"type":"VEC2"
		},
		{
			"bufferView":36,
			"componentType":5125,
			"count":1873166,
			"type":"SCALAR"
		},
		{
			"bufferView":37,
			"componentType":5126,
			"count":1772,
			"max":[
				0.04902040958404541,
				0.05186271667480469,
				0.0406017079949379
			],
			"min":[
				-0.04836142063140869,
				-0.05207061767578125,
				-0.03967134281992912
			],
			"type":"VEC3"
		},
		{
			"bufferView":38,
			"componentType":5126,
			"count":1772,
			"type":"VEC3"
		},
		{
			"bufferView":39,
			"componentType":5126,
			"count":1772,
			"type":"VEC2"
		},
		{
			"bufferView":40,
			"componentType":5123,
			"count":6864,
			"type":"SCALAR"
		},
		{
			"bufferView":41,
			"componentType":5126,
			"count":1823,
			"max":[
				0.05212802067399025,
				0.051804542541503906,
				0.03414499759674072
			],
			"min":[
				-0.052384957671165466,
				-0.05138969421386719,
				-0.03308561444282532
			],
			"type":"VEC3"
		},
		{
			"bufferView":42,
			"componentType":5126,
			"count":1823,
			"type":"VEC3"
		},
		{
			"bufferView":43,
			"componentType":5126,
			"count":1823,
			"type":"VEC2"
		},
		{
			"bufferView":44,
			"componentType":5123,
			"count":6864,
			"type":"SCALAR"
		},
		{
			"bufferView":45,
			"componentType":5126,
			"count":1670,
			"max":[
				0.05214478820562363,
				0.05161762237548828,
				0.020074546337127686
			],
			"min":[
				-0.05228473246097565,
				-0.05157947540283203,
				-0.01876610517501831
			],
			"type":"VEC3"
		},
		{
			"bufferView":46,
			"componentType":5126,
			"count":1670,
			"type":"VEC3"
		},
		{
			"bufferView":47,
			"componentType":5126,
			"count":1670,
			"type":"VEC2"
		},
		{
			"bufferView":48,
			"componentType":5123,
			"count":6864,
			"type":"SCALAR"
		},
		{
			"bufferView":49,
			"componentType":5126,
			"count":1685,
			"max":[
				0.05182676389813423,
				0.05171775817871094,
				0.01789271831512451
			],
			"min":[
				-0.05190224573016167,
				-0.05176544189453125,
				-0.01628953218460083
			],
			"type":"VEC3"
		},
		{
			"bufferView":50,
			"componentType":5126,
			"count":1685,
			"type":"VEC3"
		},
		{
			"bufferView":51,
			"componentType":5126,
			"count":1685,
			"type":"VEC2"
		},
		{
			"bufferView":52,
			"componentType":5123,
			"count":6864,
			"type":"SCALAR"
		},
		{
			"bufferView":53,
			"componentType":5126,
			"count":1545,
			"max":[
				0.051819249987602234,
				0.051952362060546875,
				0.01868659257888794
			],
			"min":[
				-0.0518941655755043,
				-0.05203437805175781,
				-0.017288804054260254
			],
			"type":"VEC3"
		},
		{
			"bufferView":54,
			"componentType":5126,
			"count":1545,
			"type":"VEC3"
		},
		{
			"bufferView":55,
			"componentType":5126,
			"count":1545,
			"type":"VEC2"
		},
		{
			"bufferView":56,
			"componentType":5123,
			"count":6864,
			"type":"SCALAR"
		},
		{
			"bufferView":57,
			"componentType":5126,
			"count":1781,
			"max":[
				0.05218317732214928,
				0.051685333251953125,
				0.031162917613983154
			],
			"min":[
				-0.05234752967953682,
				-0.05204582214355469,
				-0.029965102672576904
			],
			"type":"VEC3"
		},
		{
			"bufferView":58,
			"componentType":5126,
			"count":1781,
			"type":"VEC3"
		},
		{
			"bufferView":59,
			"componentType":5126,
			"count":1781,
			"type":"VEC2"
		},
		{
			"bufferView":60,
			"componentType":5123,
			"count":6864,
			"type":"SCALAR"
		},
		{
			"bufferView":61,
			"componentType":5126,
			"count":1817,
			"max":[
				0.05192974954843521,
				0.05222511291503906,
				0.026488810777664185
			],
			"min":[
				-0.05202645808458328,
				-0.05249452590942383,
				-0.025230377912521362
			],
			"type":"VEC3"
		},
		{
			"bufferView":62,
			"componentType":5126,
			"count":1817,
			"type":"VEC3"
		},
		{
			"bufferView":63,
			"componentType":5126,
			"count":1817,
			"type":"VEC2"
		},
		{
			"bufferView":64,
			"componentType":5123,
			"count":6864,
			"type":"SCALAR"
		},
		{
			"bufferView":65,
			"componentType":5126,
			"count":19931,
			"max":[
				1.3358937501907349,
				1.557657241821289,
				1.1789923906326294
			],
			"min":[
				-1.3308119773864746,
				-1.7062301635742188,
				-0.9781584143638611
			],
			"type":"VEC3"
		},
		{
			"bufferView":66,
			"componentType":5126,
			"count":19931,
			"type":"VEC3"
		},
		{
			"bufferView":67,
			"componentType":5126,
			"count":19931,
			"type":"VEC2"
		},
		{
			"bufferView":68,
			"componentType":5126,
			"count":19931,
			"type":"VEC2"
		},
		{
			"bufferView":69,
			"componentType":5126,
			"count":19931,
			"type":"VEC2"
		},
		{
			"bufferView":70,
			"componentType":5126,
			"count":19931,
			"type":"VEC3"
		},
		{
			"bufferView":71,
			"componentType":5123,
			"count":19931,
			"normalized":true,
			"type":"VEC4"
		},
		{
			"bufferView":72,
			"componentType":5123,
			"count":19931,
			"normalized":true,
			"type":"VEC4"
		},
		{
			"bufferView":73,
			"componentType":5123,
			"count":117264,
			"type":"SCALAR"
		},
		{
			"bufferView":74,
			"componentType":5126,
			"count":4787,
			"max":[
				1.3358937501907349,
				0.6563711166381836,
				0.950789213180542
			],
			"min":[
				-1.3308119773864746,
				-1.7062301635742188,
				-0.9781584143638611
			],
			"type":"VEC3"
		},
		{
			"bufferView":75,
			"componentType":5126,
			"count":4787,
			"type":"VEC3"
		},
		{
			"bufferView":76,
			"componentType":5126,
			"count":4787,
			"type":"VEC2"
		},
		{
			"bufferView":77,
			"componentType":5126,
			"count":4787,
			"type":"VEC2"
		},
		{
			"bufferView":78,
			"componentType":5126,
			"count":4787,
			"type":"VEC2"
		},
		{
			"bufferView":79,
			"componentType":5126,
			"count":4787,
			"type":"VEC3"
		},
		{
			"bufferView":80,
			"componentType":5123,
			"count":4787,
			"normalized":true,
			"type":"VEC4"
		},
		{
			"bufferView":81,
			"componentType":5123,
			"count":4787,
			"normalized":true,
			"type":"VEC4"
		},
		{
			"bufferView":82,
			"componentType":5123,
			"count":26736,
			"type":"SCALAR"
		},
		{
			"bufferView":83,
			"componentType":5126,
			"count":37775,
			"max":[
				3.6092569828033447,
				3.15286922454834,
				1.3832690715789795
			],
			"min":[
				-3.5579922199249268,
				-3.1187753677368164,
				-1.0820765495300293
			],
			"type":"VEC3"
		},
		{
			"bufferView":84,
			"componentType":5126,
			"count":37775,
			"type":"VEC3"
		},
		{
			"bufferView":85,
			"componentType":5126,
			"count":37775,
			"type":"VEC2"
		},
		{
			"bufferView":86,
			"componentType":5126,
			"count":27559,
			"max":[
				3.8367667198181152,
				2.1457576751708984,
				1.1408205032348633
			],
			"min":[
				-3.858572483062744,
				-3.2073121070861816,
				-1.424113392829895
			],
			"type":"VEC3"
		},
		{
			"bufferView":87,
			"componentType":5126,
			"count":27559,
			"type":"VEC3"
		},
		{
			"bufferView":88,
			"componentType":5126,
			"count":27559,
			"type":"VEC2"
		},
		{
			"bufferView":89,
			"componentType":5126,
			"count":1001,
			"max":[
				0.08433514833450317,
				0.03412914276123047,
				0.037639737129211426
			],
			"min":[
				-0.03280848264694214,
				-0.029303550720214844,
				-0.06022077798843384
			],
			"type":"VEC3"
		},
		{
			"bufferView":90,
			"componentType":5126,
			"count":1001,
			"type":"VEC3"
		},
		{
			"bufferView":91,
			"componentType":5126,
			"count":1001,
			"type":"VEC2"
		},
		{
			"bufferView":92,
			"componentType":5123,
			"count":5424,
			"type":"SCALAR"
		},
		{
			"bufferView":93,
			"componentType":5126,
			"count":362,
			"max":[
				0.022641241550445557,
				0.021501541137695312,
				0.020294129848480225
			],
			"min":[
				-0.018645823001861572,
				-0.024423599243164062,
				-0.023526430130004883
			],
			"type":"VEC3"
		},
		{
			"bufferView":94,
			"componentType":5126,
			"count":362,
			"type":"VEC3"
		},
		{
			"bufferView":95,
			"componentType":5123,
			"count":2160,
			"type":"SCALAR"
		},
		{
			"bufferView":96,
			"componentType":5126,
			"count":1001,
			"max":[
				0.03376340866088867,
				0.035037994384765625,
				0.03675529360771179
			],
			"min":[
				-0.07896161079406738,
				-0.03921985626220703,
				-0.06114464998245239
			],
			"type":"VEC3"
		},
		{
			"bufferView":97,
			"componentType":5126,
			"count":1001,
			"type":"VEC3"
		},
		{
			"bufferView":98,
			"componentType":5126,
			"count":1001,
			"type":"VEC2"
		},
		{
			"bufferView":99,
			"componentType":5123,
			"count":5424,
			"type":"SCALAR"
		},
		{
			"bufferView":100,
			"componentType":5126,
			"count":362,
			"max":[
				0.018465280532836914,
				0.020242691040039062,
				0.020649194717407227
			],
			"min":[
				-0.028301537036895752,
				-0.02591419219970703,
				-0.022481083869934082
			],
			"type":"VEC3"
		},
		{
			"bufferView":101,
			"componentType":5126,
			"count":362,
			"type":"VEC3"
		},
		{
			"bufferView":102,
			"componentType":5123,
			"count":2160,
			"type":"SCALAR"
		},
		{
			"bufferView":103,
			"componentType":5126,
			"count":16868,
			"max":[
				0.8394707441329956,
				0.1582021713256836,
				0.3884800374507904
			],
			"min":[
				-0.8373624682426453,
				-0.3107938766479492,
				-1.1602790355682373
			],
			"type":"VEC3"
		},
		{
			"bufferView":104,
			"componentType":5126,
			"count":16868,
			"type":"VEC3"
		},
		{
			"bufferView":105,
			"componentType":5126,
			"count":16868,
			"type":"VEC2"
		},
		{
			"bufferView":106,
			"componentType":5123,
			"count":94608,
			"type":"SCALAR"
		},
		{
			"bufferView":107,
			"componentType":5126,
			"count":47169,
			"max":[
				0.6802272796630859,
				0.0372772216796875,
				0.11498644948005676
			],
			"min":[
				-0.6803273558616638,
				-0.020120620727539062,
				-0.03707274794578552
			],
			"type":"VEC3"
		},
		{
			"bufferView":108,
			"componentType":5126,
			"count":47169,
			"type":"VEC3"
		},
		{
			"bufferView":109,
			"componentType":5126,
			"count":47169,
			"type":"VEC2"
		},
		{
			"bufferView":110,
			"componentType":5123,
			"count":253056,
			"type":"SCALAR"
		},
		{
			"bufferView":111,
			"componentType":5126,
			"count":3642,
			"max":[
				0.13130363821983337,
				0.13199615478515625,
				0.13758938014507294
			],
			"min":[
				-0.131469264626503,
				-0.13064861297607422,
				-0.13689419627189636
			],
			"type":"VEC3"
		},
		{
			"bufferView":112,
			"componentType":5126,
			"count":3642,
			"type":"VEC3"
		},
		{
			"bufferView":113,
			"componentType":5126,
			"count":3642,
			"type":"VEC2"
		},
		{
			"bufferView":114,
			"componentType":5123,
			"count":21120,
			"type":"SCALAR"
		},
		{
			"bufferView":115,
			"componentType":5126,
			"count":1802,
			"max":[
				0.13677141070365906,
				0.1388397216796875,
				0.15676142275333405
			],
			"min":[
				-0.1374150514602661,
				-0.13654327392578125,
				-0.14344486594200134
			],
			"type":"VEC3"
		},
		{
			"bufferView":116,
			"componentType":5126,
			"count":1802,
			"type":"VEC3"
		},
		{
			"bufferView":117,
			"componentType":5126,
			"count":1802,
			"type":"VEC2"
		},
		{
			"bufferView":118,
			"componentType":5123,
			"count":10560,
			"type":"SCALAR"
		},
		{
			"bufferView":119,
			"componentType":5126,
			"count":404,
			"max":[
				0.17320996522903442,
				0.0061244964599609375,
				0.02496469020843506
			],
			"min":[
				-0.09435133635997772,
				-0.07997703552246094,
				-0.0787917971611023
			],
			"type":"VEC3"
		},
		{
			"bufferView":120,
			"componentType":5126,
			"count":404,
			"type":"VEC3"
		},
		{
			"bufferView":121,
			"componentType":5126,
			"count":404,
			"type":"VEC2"
		},
		{
			"bufferView":122,
			"componentType":5123,
			"count":1836,
			"type":"SCALAR"
		},
		{
			"bufferView":123,
			"componentType":5126,
			"count":97406,
			"max":[
				0.5162444114685059,
				0.05526542663574219,
				0.09637254476547241
			],
			"min":[
				-0.5028292536735535,
				-0.10286808013916016,
				-0.10692465305328369
			],
			"type":"VEC3"
		},
		{
			"bufferView":124,
			"componentType":5126,
			"count":97406,
			"type":"VEC3"
		},
		{
			"bufferView":125,
			"componentType":5126,
			"count":97406,
			"type":"VEC2"
		},
		{
			"bufferView":126,
			"componentType":5126,
			"count":97406,
			"type":"VEC2"
		},
		{
			"bufferView":127,
			"componentType":5125,
			"count":230256,
			"type":"SCALAR"
		},
		{
			"bufferView":128,
			"componentType":5126,
			"count":439,
			"max":[
				0.02589702606201172,
				0.026070594787597656,
				0.02601906657218933
			],
			"min":[
				-0.02589702606201172,
				-0.02606964111328125,
				-0.026018977165222168
			],
			"type":"VEC3"
		},
		{
			"bufferView":129,
			"componentType":5126,
			"count":439,
			"type":"VEC3"
		},
		{
			"bufferView":130,
			"componentType":5126,
			"count":439,
			"type":"VEC2"
		},
		{
			"bufferView":131,
			"componentType":5123,
			"count":2280,
			"type":"SCALAR"
		},
		{
			"bufferView":132,
			"componentType":5126,
			"count":439,
			"max":[
				0.026072263717651367,
				0.026085853576660156,
				0.025983363389968872
			],
			"min":[
				-0.026072144508361816,
				-0.026085853576660156,
				-0.025983214378356934
			],
			"type":"VEC3"
		},
		{
			"bufferView":133,
			"componentType":5126,
			"count":439,
			"type":"VEC3"
		},
		{
			"bufferView":134,
			"componentType":5126,
			"count":439,
			"type":"VEC2"
		},
		{
			"bufferView":135,
			"componentType":5126,
			"count":3642,
			"max":[
				0.13152068853378296,
				0.13186931610107422,
				0.13511347770690918
			],
			"min":[
				-0.13298749923706055,
				-0.13027000427246094,
				-0.1368904411792755
			],
			"type":"VEC3"
		},
		{
			"bufferView":136,
			"componentType":5126,
			"count":3642,
			"type":"VEC3"
		},
		{
			"bufferView":137,
			"componentType":5126,
			"count":3642,
			"type":"VEC2"
		},
		{
			"bufferView":138,
			"componentType":5123,
			"count":21120,
			"type":"SCALAR"
		},
		{
			"bufferView":139,
			"componentType":5126,
			"count":1802,
			"max":[
				0.1383129060268402,
				0.13800334930419922,
				0.1558615267276764
			],
			"min":[
				-0.1387118399143219,
				-0.13691234588623047,
				-0.14363913238048553
			],
			"type":"VEC3"
		},
		{
			"bufferView":140,
			"componentType":5126,
			"count":1802,
			"type":"VEC3"
		},
		{
			"bufferView":141,
			"componentType":5126,
			"count":1802,
			"type":"VEC2"
		},
		{
			"bufferView":142,
			"componentType":5123,
			"count":10560,
			"type":"SCALAR"
		},
		{
			"bufferView":143,
			"componentType":5126,
			"count":404,
			"max":[
				0.09775397181510925,
				0.007939338684082031,
				0.012437433004379272
			],
			"min":[
				-0.16463133692741394,
				-0.07293987274169922,
				-0.09282320737838745
			],
			"type":"VEC3"
		},
		{
			"bufferView":144,
			"componentType":5126,
			"count":404,
			"type":"VEC3"
		},
		{
			"bufferView":145,
			"componentType":5126,
			"count":404,
			"type":"VEC2"
		},
		{
			"bufferView":146,
			"componentType":5123,
			"count":1836,
			"type":"SCALAR"
		}
	],
	"bufferViews":[
		{
			"buffer":0,
			"byteLength":477072,
			"byteOffset":0,
			"target":34962
		},
		{
			"buffer":0,
			"byteLength":477072,
			"byteOffset":477072,
			"target":34962
		},
		{
			"buffer":0,
			"byteLength":318048,
			"byteOffset":954144,
			"target":34962
		},
		{
			"buffer":0,
			"byteLength":318048,
			"byteOffset":1272192,
			"target":34962
		},
		{
			"buffer":0,
			"byteLength":159024,
			"byteOffset":1590240,
			"target":34962
		},
		{
			"buffer":0,
			"byteLength":318048,
			"byteOffset":1749264,
			"target":34962
		},
		{
			"buffer":0,
			"byteLength":318048,
			"byteOffset":2067312,
			"target":34962
		},
		{
			"buffer":0,
			"byteLength":318048,
			"byteOffset":2385360,
			"target":34962
		},
		{
			"buffer":0,
			"byteLength":238536,
			"byteOffset":2703408,
			"target":34963
		},
		{
			"buffer":0,
			"byteLength":453300,
			"byteOffset":2941944,
			"target":34962
		},
		{
			"buffer":0,
			"byteLength":453300,
			"byteOffset":3395244,
			"target":34962
		},
		{
			"buffer":0,
			"byteLength":302200,
			"byteOffset":3848544,
			"target":34962
		},
		{
			"buffer":0,
			"byteLength":427008,
			"byteOffset":4150744,
			"target":34963
		},
		{
			"buffer":0,
			"byteLength":330708,
			"byteOffset":4577752,
			"target":34962
		},
		{
			"buffer":0,
			"byteLength":330708,
			"byteOffset":4908460,
			"target":34962
		},
		{
			"buffer":0,
			"byteLength":220472,
			"byteOffset":5239168,
			"target":34962
		},
		{
			"buffer":0,
			"byteLength":313056,
			"byteOffset":5459640,
			"target":34963
		},
		{
			"buffer":0,
			"byteLength":301080,
			"byteOffset":5772696,
			"target":34962
		},
		{
			"buffer":0,
			"byteLength":301080,
			"byteOffset":6073776,
			"target":34962
		},
		{
			"buffer":0,
			"byteLength":200720,
			"byteOffset":6374856,
			"target":34962
		},
		{
			"buffer":0,
			"byteLength":294912,
			"byteOffset":6575576,
			"target":34963
		},
		{
			"buffer":0,
			"byteLength":2741088,
			"byteOffset":6870488,
			"target":34962
		},
		{
			"buffer":0,
			"byteLength":913696,
			"byteOffset":9611576,
			"target":34962
		},
		{
			"buffer":0,
			"byteLength":1827392,
			"byteOffset":10525272,
			"target":34962
		},
		{
			"buffer":0,
			"byteLength":913696,
			"byteOffset":12352664,
			"target":34963
		},
		{
			"buffer":0,
			"byteLength":710976,
			"byteOffset":13266360,
			"target":34962
		},
		{
			"buffer":0,
			"byteLength":236992,
			"byteOffset":13977336,
			"target":34962
		},
		{
			"buffer":0,
			"byteLength":473984,
			"byteOffset":14214328,
			"target":34962
		},
		{
			"buffer":0,
			"byteLength":236992,
			"byteOffset":14688312,
			"target":34963
		},
		{
			"buffer":0,
			"byteLength":13814064,
			"byteOffset":14925304,
			"target":34962
		},
		{
			"buffer":0,
			"byteLength":4604688,
			"byteOffset":28739368,
			"target":34962
		},
		{
			"buffer":0,
			"byteLength":9209376,
			"byteOffset":33344056,
			"target":34962
		},
		{
			"buffer":0,
			"byteLength":4604688,
			"byteOffset":42553432,
			"target":34963
		},
		{
			"buffer":0,
			"byteLength":22477992,
			"byteOffset":47158120,
			"target":34962
		},
		{
			"buffer":0,
			"byteLength":7492664,
			"byteOffset":69636112,
			"target":34962
		},
		{
			"buffer":0,
			"byteLength":14985328,
			"byteOffset":77128776,
			"target":34962
		},
		{
			"buffer":0,
			"byteLength":7492664,
			"byteOffset":92114104,
			"target":34963
		},
		{
			"buffer":0,
			"byteLength":21264,
			"byteOffset":99606768,
			"target":34962
		},
		{
			"buffer":0,
			"byteLength":21264,
			"byteOffset":99628032,
			"target":34962
		},
		{
			"buffer":0,
			"byteLength":14176,
			"byteOffset":99649296,
			"target":34962
		},
		{
			"buffer":0,
			"byteLength":13728,
			"byteOffset":99663472,
			"target":34963
		},
		{
			"buffer":0,
			"byteLength":21876,
			"byteOffset":99677200,
			"target":34962
		},
		{
			"buffer":0,
			"byteLength":21876,
			"byteOffset":99699076,
			"target":34962
		},
		{
			"buffer":0,
			"byteLength":14584,
			"byteOffset":99720952,
			"target":34962
		},
		{
			"buffer":0,
			"byteLength":13728,
			"byteOffset":99735536,
			"target":34963
		},
		{
			"buffer":0,
			"byteLength":20040,
			"byteOffset":99749264,
			"target":34962
		},
		{
			"buffer":0,
			"byteLength":20040,
			"byteOffset":99769304,
			"target":34962
		},
		{
			"buffer":0,
			"byteLength":13360,
			"byteOffset":99789344,
			"target":34962
		},
		{
			"buffer":0,
			"byteLength":13728,
			"byteOffset":99802704,
			"target":34963
		},
		{
			"buffer":0,
			"byteLength":20220,
			"byteOffset":99816432,
			"target":34962
		},
		{
			"buffer":0,
			"byteLength":20220,
			"byteOffset":99836652,
			"target":34962
		},
		{
			"buffer":0,
			"byteLength":13480,
			"byteOffset":99856872,
			"target":34962
		},
		{
			"buffer":0,
			"byteLength":13728,
			"byteOffset":99870352,
			"target":34963
		},
		{
			"buffer":0,
			"byteLength":18540,
			"byteOffset":99884080,
			"target":34962
		},
		{
			"buffer":0,
			"byteLength":18540,
			"byteOffset":99902620,
			"target":34962
		},
		{
			"buffer":0,
			"byteLength":12360,
			"byteOffset":99921160,
			"target":34962
		},
		{
			"buffer":0,
			"byteLength":13728,
			"byteOffset":99933520,
			"target":34963
		},
		{
			"buffer":0,
			"byteLength":21372,
			"byteOffset":99947248,
			"target":34962
		},
		{
			"buffer":0,
			"byteLength":21372,
			"byteOffset":99968620,
			"target":34962
		},
		{
			"buffer":0,
			"byteLength":14248,
			"byteOffset":99989992,
			"target":34962
		},
		{
			"buffer":0,
			"byteLength":13728,
			"byteOffset":100004240,
			"target":34963
		},
		{
			"buffer":0,
			"byteLength":21804,
			"byteOffset":100017968,
			"target":34962
		},
		{
			"buffer":0,
			"byteLength":21804,
			"byteOffset":100039772,
			"target":34962
		},
		{
			"buffer":0,
			"byteLength":14536,
			"byteOffset":100061576,
			"target":34962
		},
		{
			"buffer":0,
			"byteLength":13728,
			"byteOffset":100076112,
			"target":34963
		},
		{
			"buffer":0,
			"byteLength":239172,
			"byteOffset":100089840,
			"target":34962
		},
		{
			"buffer":0,
			"byteLength":239172,
			"byteOffset":100329012,
			"target":34962
		},
		{
			"buffer":0,
			"byteLength":159448,
			"byteOffset":100568184,
			"target":34962
		},
		{
			"buffer":0,
			"byteLength":159448,
			"byteOffset":100727632,
			"target":34962
		},
		{
			"buffer":0,
			"byteLength":159448,
			"byteOffset":100887080,
			"target":34962
		},
		{
			"buffer":0,
			"byteLength":239172,
			"byteOffset":101046528,
			"target":34962
		},
		{
			"buffer":0,
			"byteLength":159448,
			"byteOffset":101285700,
			"target":34962
		},
		{
			"buffer":0,
			"byteLength":159448,
			"byteOffset":101445148,
			"target":34962
		},
		{
			"buffer":0,
			"byteLength":234528,
			"byteOffset":101604596,
			"target":34963
		},
		{
			"buffer":0,
			"byteLength":57444,
			"byteOffset":101839124,
			"target":34962
		},
		{
			"buffer":0,
			"byteLength":57444,
			"byteOffset":101896568,
			"target":34962
		},
		{
			"buffer":0,
			"byteLength":38296,
			"byteOffset":101954012,
			"target":34962
		},
		{
			"buffer":0,
			"byteLength":38296,
			"byteOffset":101992308,
			"target":34962
		},
		{
			"buffer":0,
			"byteLength":38296,
			"byteOffset":102030604,
			"target":34962
		},
		{
			"buffer":0,
			"byteLength":57444,
			"byteOffset":102068900,
			"target":34962
		},
		{
			"buffer":0,
			"byteLength":38296,
			"byteOffset":102126344,
			"target":34962
		},
		{
			"buffer":0,
			"byteLength":38296,
			"byteOffset":102164640,
			"target":34962
		},
		{
			"buffer":0,
			"byteLength":53472,
			"byteOffset":102202936,
			"target":34963
		},
		{
			"buffer":0,
			"byteLength":453300,
			"byteOffset":102256408,
			"target":34962
		},
		{
			"buffer":0,
			"byteLength":453300,
			"byteOffset":102709708,
			"target":34962
		},
		{
			"buffer":0,
			"byteLength":302200,
			"byteOffset":103163008,
			"target":34962
		},
		{
			"buffer":0,
			"byteLength":330708,
			"byteOffset":103465208,
			"target":34962
		},
		{
			"buffer":0,
			"byteLength":330708,
			"byteOffset":103795916,
			"target":34962
		},
		{
			"buffer":0,
			"byteLength":220472,
			"byteOffset":104126624,
			"target":34962
		},
		{
			"buffer":0,
			"byteLength":12012,
			"byteOffset":104347096,
			"target":34962
		},
		{
			"buffer":0,
			"byteLength":12012,
			"byteOffset":104359108,
			"target":34962
		},
		{
			"buffer":0,
			"byteLength":8008,
			"byteOffset":104371120,
			"target":34962
		},
		{
			"buffer":0,
			"byteLength":10848,
			"byteOffset":104379128,
			"target":34963
		},
		{
			"buffer":0,
			"byteLength":4344,
			"byteOffset":104389976,
			"target":34962
		},
		{
			"buffer":0,
			"byteLength":4344,
			"byteOffset":104394320,
			"target":34962
		},
		{
			"buffer":0,
			"byteLength":4320,
			"byteOffset":104398664,
			"target":34963
		},
		{
			"buffer":0,
			"byteLength":12012,
			"byteOffset":104402984,
			"target":34962
		},
		{
			"buffer":0,
			"byteLength":12012,
			"byteOffset":104414996,
			"target":34962
		},
		{
			"buffer":0,
			"byteLength":8008,
			"byteOffset":104427008,
			"target":34962
		},
		{
			"buffer":0,
			"byteLength":10848,
			"byteOffset":104435016,
			"target":34963
		},
		{
			"buffer":0,
			"byteLength":4344,
			"byteOffset":104445864,
			"target":34962
		},
		{
			"buffer":0,
			"byteLength":4344,
			"byteOffset":104450208,
			"target":34962
		},
		{
			"buffer":0,
			"byteLength":4320,
			"byteOffset":104454552,
			"target":34963
		},
		{
			"buffer":0,
			"byteLength":202416,
			"byteOffset":104458872,
			"target":34962
		},
		{
			"buffer":0,
			"byteLength":202416,
			"byteOffset":104661288,
			"target":34962
		},
		{
			"buffer":0,
			"byteLength":134944,
			"byteOffset":104863704,
			"target":34962
		},
		{
			"buffer":0,
			"byteLength":189216,
			"byteOffset":104998648,
			"target":34963
		},
		{
			"buffer":0,
			"byteLength":566028,
			"byteOffset":105187864,
			"target":34962
		},
		{
			"buffer":0,
			"byteLength":566028,
			"byteOffset":105753892,
			"target":34962
		},
		{
			"buffer":0,
			"byteLength":377352,
			"byteOffset":106319920,
			"target":34962
		},
		{
			"buffer":0,
			"byteLength":506112,
			"byteOffset":106697272,
			"target":34963
		},
		{
			"buffer":0,
			"byteLength":43704,
			"byteOffset":107203384,
			"target":34962
		},
		{
			"buffer":0,
			"byteLength":43704,
			"byteOffset":107247088,
			"target":34962
		},
		{
			"buffer":0,
			"byteLength":29136,
			"byteOffset":107290792,
			"target":34962
		},
		{
			"buffer":0,
			"byteLength":42240,
			"byteOffset":107319928,
			"target":34963
		},
		{
			"buffer":0,
			"byteLength":21624,
			"byteOffset":107362168,
			"target":34962
		},
		{
			"buffer":0,
			"byteLength":21624,
			"byteOffset":107383792,
			"target":34962
		},
		{
			"buffer":0,
			"byteLength":14416,
			"byteOffset":107405416,
			"target":34962
		},
		{
			"buffer":0,
			"byteLength":21120,
			"byteOffset":107419832,
			"target":34963
		},
		{
			"buffer":0,
			"byteLength":4848,
			"byteOffset":107440952,
			"target":34962
		},
		{
			"buffer":0,
			"byteLength":4848,
			"byteOffset":107445800,
			"target":34962
		},
		{
			"buffer":0,
			"byteLength":3232,
			"byteOffset":107450648,
			"target":34962
		},
		{
			"buffer":0,
			"byteLength":3672,
			"byteOffset":107453880,
			"target":34963
		},
		{
			"buffer":0,
			"byteLength":1168872,
			"byteOffset":107457552,
			"target":34962
		},
		{
			"buffer":0,
			"byteLength":1168872,
			"byteOffset":108626424,
			"target":34962
		},
		{
			"buffer":0,
			"byteLength":779248,
			"byteOffset":109795296,
			"target":34962
		},
		{
			"buffer":0,
			"byteLength":779248,
			"byteOffset":110574544,
			"target":34962
		},
		{
			"buffer":0,
			"byteLength":921024,
			"byteOffset":111353792,
			"target":34963
		},
		{
			"buffer":0,
			"byteLength":5268,
			"byteOffset":112274816,
			"target":34962
		},
		{
			"buffer":0,
			"byteLength":5268,
			"byteOffset":112280084,
			"target":34962
		},
		{
			"buffer":0,
			"byteLength":3512,
			"byteOffset":112285352,
			"target":34962
		},
		{
			"buffer":0,
			"byteLength":4560,
			"byteOffset":112288864,
			"target":34963
		},
		{
			"buffer":0,
			"byteLength":5268,
			"byteOffset":112293424,
			"target":34962
		},
		{
			"buffer":0,
			"byteLength":5268,
			"byteOffset":112298692,
			"target":34962
		},
		{
			"buffer":0,
			"byteLength":3512,
			"byteOffset":112303960,
			"target":34962
		},
		{
			"buffer":0,
			"byteLength":43704,
			"byteOffset":112307472,
			"target":34962
		},
		{
			"buffer":0,
			"byteLength":43704,
			"byteOffset":112351176,
			"target":34962
		},
		{
			"buffer":0,
			"byteLength":29136,
			"byteOffset":112394880,
			"target":34962
		},
		{
			"buffer":0,
			"byteLength":42240,
			"byteOffset":112424016,
			"target":34963
		},
		{
			"buffer":0,
			"byteLength":21624,
			"byteOffset":112466256,
			"target":34962
		},
		{
			"buffer":0,
			"byteLength":21624,
			"byteOffset":112487880,
			"target":34962
		},
		{
			"buffer":0,
			"byteLength":14416,
			"byteOffset":112509504,
			"target":34962
		},
		{
			"buffer":0,
			"byteLength":21120,
			"byteOffset":112523920,
			"target":34963
		},
		{
			"buffer":0,
			"byteLength":4848,
			"byteOffset":112545040,
			"target":34962
		},
		{
			"buffer":0,
			"byteLength":4848,
			"byteOffset":112549888,
			"target":34962
		},
		{
			"buffer":0,
			"byteLength":3232,
			"byteOffset":112554736,
			"target":34962
		},
		{
			"buffer":0,
			"byteLength":3672,
			"byteOffset":112557968,
			"target":34963
		}
	],
	"samplers":[
		{
			"magFilter":9729,
			"minFilter":9987
		}
	],
	"buffers":[
		{
			"byteLength":112561640,
			"uri":"claire.bin"
		}
	]
}
