{
	"asset":{
		"generator":"Khronos glTF Blender I/O v5.1.18",
		"version":"2.0"
	},
	"extensionsUsed":[
		"KHR_materials_transmission",
		"KHR_materials_specular",
		"KHR_materials_ior",
		"KHR_lights_punctual"
	],
	"extensionsRequired":[
		"KHR_lights_punctual"
	],
	"extensions":{
		"KHR_lights_punctual":{
			"lights":[
				{
					"color":[
						1,
						1,
						1
					],
					"intensity":683,
					"type":"directional",
					"name":"Sun"
				}
			]
		}
	},
	"scene":0,
	"scenes":[
		{
			"name":"Scene",
			"nodes":[
				0,
				1,
				2,
				3,
				4,
				5,
				6,
				7,
				8,
				9,
				10,
				11,
				12,
				13,
				14,
				15
			]
		}
	],
	"nodes":[
		{
			"mesh":0,
			"name":"sibenik",
			"rotation":[
				0.7071068286895752,
				0,
				0,
				0.7071068286895752
			]
		},
		{
			"mesh":1,
			"name":"sibenik.001",
			"rotation":[
				0.7071068286895752,
				0,
				0,
				0.7071068286895752
			]
		},
		{
			"mesh":2,
			"name":"sibenik.002",
			"rotation":[
				0.7071068286895752,
				0,
				0,
				0.7071068286895752
			]
		},
		{
			"mesh":3,
			"name":"sibenik.003",
			"rotation":[
				0.7071068286895752,
				0,
				0,
				0.7071068286895752
			]
		},
		{
			"mesh":4,
			"name":"sibenik.004",
			"rotation":[
				0.7071068286895752,
				0,
				0,
				0.7071068286895752
			]
		},
		{
			"mesh":5,
			"name":"sibenik.005",
			"rotation":[
				0.7071068286895752,
				0,
				0,
				0.7071068286895752
			]
		},
		{
			"mesh":6,
			"name":"sibenik.006",
			"rotation":[
				0.7071068286895752,
				0,
				0,
				0.7071068286895752
			]
		},
		{
			"mesh":7,
			"name":"sibenik.007",
			"rotation":[
				0.7071068286895752,
				0,
				0,
				0.7071068286895752
			]
		},
		{
			"mesh":8,
			"name":"sibenik.008",
			"rotation":[
				0.7071068286895752,
				0,
				0,
				0.7071068286895752
			]
		},
		{
			"mesh":9,
			"name":"sibenik.010",
			"rotation":[
				0.7071068286895752,
				0,
				0,
				0.7071068286895752
			]
		},
		{
			"mesh":10,
			"name":"sibenik.011",
			"rotation":[
				0.7071068286895752,
				0,
				0,
				0.7071068286895752
			]
		},
		{
			"mesh":11,
			"name":"sibenik.012",
			"rotation":[
				0.7071068286895752,
				0,
				0,
				0.7071068286895752
			]
		},
		{
			"mesh":12,
			"name":"sibenik.013",
			"rotation":[
				0.7071068286895752,
				0,
				0,
				0.7071068286895752
			]
		},
		{
			"mesh":13,
			"name":"sibenik.014",
			"rotation":[
				0.7071068286895752,
				0,
				0,
				0.7071068286895752
			]
		},
		{
			"camera":0,
			"name":"Camera",
			"rotation":[
				0,
				-0.7071068286895752,
				0,
				0.7071068286895752
			],
			"translation":[
				-18.47231101989746,
				-11.812658309936523,
				0.48907917737960815
			]
		},
		{
			"extensions":{
				"KHR_lights_punctual":{
					"light":0
				}
			},
			"name":"Sun",
			"rotation":[
				-0.6879908442497253,
				-0.1764548122882843,
				0.0801762118935585,
				0.6993597745895386
			]
		}
	],
	"cameras":[
		{
			"name":"Camera.001",
			"perspective":{
				"aspectRatio":1.7777777777777777,
				"yfov":1.4612212548755452,
				"zfar":1000,
				"znear":0.10000000149011612
			},
			"type":"perspective"
		}
	],
	"materials":[
		{
			"doubleSided":true,
			"extensions":{
				"KHR_materials_specular":{
					"specularFactor":0.20000000298023224
				},
				"KHR_materials_ior":{
					"ior":1
				}
			},
			"name":"staklo_zuto",
			"pbrMetallicRoughness":{
				"baseColorFactor":[
					0,
					0,
					0,
					1
				],
				"metallicFactor":0,
				"roughnessFactor":0.494035542011261
			}
		},
		{
			"doubleSided":true,
			"extensions":{
				"KHR_materials_specular":{
					"specularFactor":0
				},
				"KHR_materials_ior":{
					"ior":1
				}
			},
			"name":"sprljci",
			"pbrMetallicRoughness":{
				"baseColorFactor":[
					0.784313976764679,
					0.784313976764679,
					0.784313976764679,
					1
				],
				"metallicFactor":0,
				"roughnessFactor":0.9105572700500488
			}
		},
		{
			"doubleSided":true,
			"extensions":{
				"KHR_materials_transmission":{
					"transmissionFactor":1
				},
				"KHR_materials_specular":{
					"specularFactor":0.20000000298023224
				},
				"KHR_materials_ior":{
					"ior":1
				}
			},
			"name":"staklo",
			"pbrMetallicRoughness":{
				"metallicFactor":0,
				"roughnessFactor":0
			}
		},
		{
			"doubleSided":true,
			"extensions":{
				"KHR_materials_specular":{
					"specularFactor":0
				},
				"KHR_materials_ior":{
					"ior":1
				}
			},
			"name":"kamen_zid",
			"pbrMetallicRoughness":{
				"baseColorTexture":{
					"index":0
				},
				"metallicFactor":0,
				"roughnessFactor":0.9105572700500488
			}
		},
		{
			"doubleSided":true,
			"extensions":{
				"KHR_materials_specular":{
					"specularFactor":0
				},
				"KHR_materials_ior":{
					"ior":1
				}
			},
			"name":"stupovi",
			"pbrMetallicRoughness":{
				"baseColorTexture":{
					"index":1
				},
				"metallicFactor":0,
				"roughnessFactor":0.9105572700500488
			}
		},
		{
			"doubleSided":true,
			"extensions":{
				"KHR_materials_specular":{
					"specularFactor":0
				},
				"KHR_materials_ior":{
					"ior":1
				}
			},
			"name":"pod",
			"pbrMetallicRoughness":{
				"baseColorTexture":{
					"index":2
				},
				"roughnessFactor":0.22007721662521362
			}
		},
		{
			"doubleSided":true,
			"extensions":{
				"KHR_materials_specular":{
					"specularFactor":0
				},
				"KHR_materials_ior":{
					"ior":1
				}
			},
			"name":"pod_tepih",
			"pbrMetallicRoughness":{
				"baseColorFactor":[
					1,
					0.11999999731779099,
					0.10000000149011612,
					1
				],
				"metallicFactor":0,
				"roughnessFactor":0.9105572700500488
			}
		},
		{
			"doubleSided":true,
			"extensions":{
				"KHR_materials_specular":{
					"specularFactor":0
				},
				"KHR_materials_ior":{
					"ior":1
				}
			},
			"name":"pod_rub",
			"pbrMetallicRoughness":{
				"baseColorTexture":{
					"index":3
				},
				"metallicFactor":0,
				"roughnessFactor":0.9105572700500488
			}
		},
		{
			"doubleSided":true,
			"extensions":{
				"KHR_materials_specular":{
					"specularFactor":0
				},
				"KHR_materials_ior":{
					"ior":1
				}
			},
			"name":"kamen_zid_prozor",
			"pbrMetallicRoughness":{
				"baseColorTexture":{
					"index":4
				},
				"metallicFactor":0,
				"roughnessFactor":0.9105572700500488
			}
		},
		{
			"doubleSided":true,
			"extensions":{
				"KHR_materials_specular":{
					"specularFactor":0
				},
				"KHR_materials_ior":{
					"ior":1
				}
			},
			"name":"kamen_zid_parapet",
			"pbrMetallicRoughness":{
				"baseColorTexture":{
					"index":5
				},
				"metallicFactor":0,
				"roughnessFactor":0.9105572700500488
			}
		},
		{
			"alphaMode":"BLEND",
			"doubleSided":true,
			"extensions":{
				"KHR_materials_specular":{
					"specularFactor":0.7921566963195801
				},
				"KHR_materials_ior":{
					"ior":1
				}
			},
			"name":"staklo_crveno",
			"pbrMetallicRoughness":{
				"baseColorFactor":[
					0.44117599725723267,
					0.10392200201749802,
					0.04901999980211258,
					0.800000011920929
				],
				"metallicFactor":0,
				"roughnessFactor":0.494035542011261
			}
		},
		{
			"doubleSided":true,
			"extensions":{
				"KHR_materials_specular":{
					"specularFactor":0
				},
				"KHR_materials_ior":{
					"ior":1
				}
			},
			"name":"rozeta",
			"pbrMetallicRoughness":{
				"baseColorTexture":{
					"index":6
				},
				"metallicFactor":0,
				"roughnessFactor":0.9105572700500488
			}
		},
		{
			"doubleSided":true,
			"extensions":{
				"KHR_materials_specular":{
					"specularFactor":0.20000000298023224
				},
				"KHR_materials_ior":{
					"ior":1
				}
			},
			"name":"staklo_zeleno",
			"pbrMetallicRoughness":{
				"baseColorFactor":[
					0,
					0,
					0,
					1
				],
				"metallicFactor":0,
				"roughnessFactor":0.494035542011261
			}
		},
		{
			"doubleSided":true,
			"extensions":{
				"KHR_materials_specular":{
					"specularFactor":0.20000000298023224
				},
				"KHR_materials_ior":{
					"ior":1
				}
			},
			"name":"staklo_plavo",
			"pbrMetallicRoughness":{
				"baseColorFactor":[
					0,
					0,
					0,
					1
				],
				"metallicFactor":0,
				"roughnessFactor":0.494035542011261
			}
		}
	],
	"meshes":[
		{
			"name":"sibenik",
			"primitives":[
				{
					"attributes":{
						"POSITION":0,
						"NORMAL":1,
						"TEXCOORD_0":2
					},
					"indices":3,
					"material":0
				}
			]
		},
		{
			"name":"sibenik.001",
			"primitives":[
				{
					"attributes":{
						"POSITION":4,
						"NORMAL":5,
						"TEXCOORD_0":6
					},
					"indices":7,
					"material":1
				}
			]
		},
		{
			"name":"sibenik.002",
			"primitives":[
				{
					"attributes":{
						"POSITION":8,
						"NORMAL":9,
						"TEXCOORD_0":10
					},
					"indices":11,
					"material":2
				}
			]
		},
		{
			"name":"sibenik.003",
			"primitives":[
				{
					"attributes":{
						"POSITION":12,
						"NORMAL":13,
						"TEXCOORD_0":14
					},
					"indices":15,
					"material":3
				}
			]
		},
		{
			"name":"sibenik.004",
			"primitives":[
				{
					"attributes":{
						"POSITION":16,
						"NORMAL":17,
						"TEXCOORD_0":18
					},
					"indices":19,
					"material":4
				}
			]
		},
		{
			"name":"sibenik.005",
			"primitives":[
				{
					"attributes":{
						"POSITION":20,
						"NORMAL":21,
						"TEXCOORD_0":22
					},
					"indices":23,
					"material":5
				}
			]
		},
		{
			"name":"sibenik.006",
			"primitives":[
				{
					"attributes":{
						"POSITION":24,
						"NORMAL":25,
						"TEXCOORD_0":26
					},
					"indices":27,
					"material":6
				}
			]
		},
		{
			"name":"sibenik.007",
			"primitives":[
				{
					"attributes":{
						"POSITION":28,
						"NORMAL":29,
						"TEXCOORD_0":30
					},
					"indices":31,
					"material":7
				}
			]
		},
		{
			"name":"sibenik.008",
			"primitives":[
				{
					"attributes":{
						"POSITION":32,
						"NORMAL":33,
						"TEXCOORD_0":34
					},
					"indices":35,
					"material":8
				}
			]
		},
		{
			"name":"sibenik.010",
			"primitives":[
				{
					"attributes":{
						"POSITION":36,
						"NORMAL":37,
						"TEXCOORD_0":38
					},
					"indices":39,
					"material":9
				}
			]
		},
		{
			"name":"sibenik.011",
			"primitives":[
				{
					"attributes":{
						"POSITION":40,
						"NORMAL":41,
						"TEXCOORD_0":42
					},
					"indices":43,
					"material":10
				}
			]
		},
		{
			"name":"sibenik.012",
			"primitives":[
				{
					"attributes":{
						"POSITION":44,
						"NORMAL":45,
						"TEXCOORD_0":46
					},
					"indices":47,
					"material":11
				}
			]
		},
		{
			"name":"sibenik.013",
			"primitives":[
				{
					"attributes":{
						"POSITION":48,
						"NORMAL":49,
						"TEXCOORD_0":50
					},
					"indices":51,
					"material":12
				}
			]
		},
		{
			"name":"sibenik.014",
			"primitives":[
				{
					"attributes":{
						"POSITION":52,
						"NORMAL":53,
						"TEXCOORD_0":54
					},
					"indices":55,
					"material":13
				}
			]
		}
	],
	"textures":[
		{
			"sampler":0,
			"source":0
		},
		{
			"sampler":0,
			"source":1
		},
		{
			"sampler":0,
			"source":2
		},
		{
			"sampler":0,
			"source":0
		},
		{
			"sampler":0,
			"source":0
		},
		{
			"sampler":0,
			"source":1
		},
		{
			"sampler":0,
			"source":1
		}
	],
	"images":[
		{
			"mimeType":"image/png",
			"name":"kamen",
			"uri":"kamen.png"
		},
		{
			"mimeType":"image/png",
			"name":"KAMEN-stup",
			"uri":"KAMEN-stup.png"
		},
		{
			"mimeType":"image/png",
			"name":"mramor6x6",
			"uri":"mramor6x6.png"
		}
	],
	"accessors":[
		{
			"bufferView":0,
			"componentType":5126,
			"count":120,
			"max":[
				-19.76110076904297,
				1.5983999967575073,
				4.198400020599365
			],
			"min":[
				-19.76110076904297,
				-1.5983999967575073,
				1.0016000270843506
			],
			"type":"VEC3"
		},
		{
			"bufferView":1,
			"componentType":5126,
			"count":120,
			"type":"VEC3"
		},
		{
			"bufferView":2,
			"componentType":5126,
			"count":120,
			"type":"VEC2"
		},
		{
			"bufferView":3,
			"componentType":5123,
			"count":240,
			"type":"SCALAR"
		},
		{
			"bufferView":4,
			"componentType":5126,
			"count":14169,
			"max":[
				19.123699188232422,
				6.1031999588012695,
				15.300000190734863
			],
			"min":[
				-19.831100463867188,
				-6.1031999588012695,
				-8.79601001739502
			],
			"type":"VEC3"
		},
		{
			"bufferView":5,
			"componentType":5126,
			"count":14169,
			"type":"VEC3"
		},
		{
			"bufferView":6,
			"componentType":5126,
			"count":14169,
			"type":"VEC2"
		},
		{
			"bufferView":7,
			"componentType":5123,
			"count":26352,
			"type":"SCALAR"
		},
		{
			"bufferView":8,
			"componentType":5126,
			"count":2351,
			"max":[
				19.145299911499023,
				7.829999923706055,
				13.3100004196167
			],
			"min":[
				-19.831100463867188,
				-7.829999923706055,
				-8.829999923706055
			],
			"type":"VEC3"
		},
		{
			"bufferView":9,
			"componentType":5126,
			"count":2351,
			"type":"VEC3"
		},
		{
			"bufferView":10,
			"componentType":5126,
			"count":2351,
			"type":"VEC2"
		},
		{
			"bufferView":11,
			"componentType":5123,
			"count":5157,
			"type":"SCALAR"
		},
		{
			"bufferView":12,
			"componentType":5126,
			"count":60068,
			"max":[
				19.16349983215332,
				8.100000381469727,
				15.300000190734863
			],
			"min":[
				-19.861099243164062,
				-8.100000381469727,
				-9.479999542236328
			],
			"type":"VEC3"
		},
		{
			"bufferView":13,
			"componentType":5126,
			"count":60068,
			"type":"VEC3"
		},
		{
			"bufferView":14,
			"componentType":5126,
			"count":60068,
			"type":"VEC2"
		},
		{
			"bufferView":15,
			"componentType":5123,
			"count":96936,
			"type":"SCALAR"
		},
		{
			"bufferView":16,
			"componentType":5126,
			"count":35087,
			"max":[
				16.619300842285156,
				5.75,
				15.300000190734863
			],
			"min":[
				-19.51110076904297,
				-5.75,
				-0.32999899983406067
			],
			"type":"VEC3"
		},
		{
			"bufferView":17,
			"componentType":5126,
			"count":35087,
			"type":"VEC3"
		},
		{
			"bufferView":18,
			"componentType":5126,
			"count":35087,
			"type":"VEC2"
		},
		{
			"bufferView":19,
			"componentType":5123,
			"count":44889,
			"type":"SCALAR"
		},
		{
			"bufferView":20,
			"componentType":5126,
			"count":223,
			"max":[
				15.194199562072754,
				7.610000133514404,
				15.300000190734863
			],
			"min":[
				-19.51110076904297,
				-7.679999828338623,
				13.729999542236328
			],
			"type":"VEC3"
		},
		{
			"bufferView":21,
			"componentType":5126,
			"count":223,
			"type":"VEC3"
		},
		{
			"bufferView":22,
			"componentType":5126,
			"count":223,
			"type":"VEC2"
		},
		{
			"bufferView":23,
			"componentType":5123,
			"count":753,
			"type":"SCALAR"
		},
		{
			"bufferView":24,
			"componentType":5126,
			"count":595,
			"max":[
				18.993799209594727,
				7.699999809265137,
				15.100000381469727
			],
			"min":[
				1.3939399719238281,
				-7.679999828338623,
				11.649999618530273
			],
			"type":"VEC3"
		},
		{
			"bufferView":25,
			"componentType":5126,
			"count":595,
			"type":"VEC3"
		},
		{
			"bufferView":26,
			"componentType":5126,
			"count":595,
			"type":"VEC2"
		},
		{
			"bufferView":27,
			"componentType":5123,
			"count":1581,
			"type":"SCALAR"
		},
		{
			"bufferView":28,
			"componentType":5126,
			"count":128,
			"max":[
				3.828939914703369,
				3.7200000286102295,
				15.300000190734863
			],
			"min":[
				-19.51110076904297,
				-7.3531999588012695,
				15.149999618530273
			],
			"type":"VEC3"
		},
		{
			"bufferView":29,
			"componentType":5126,
			"count":128,
			"type":"VEC3"
		},
		{
			"bufferView":30,
			"componentType":5126,
			"count":128,
			"type":"VEC2"
		},
		{
			"bufferView":31,
			"componentType":5123,
			"count":336,
			"type":"SCALAR"
		},
		{
			"bufferView":32,
			"componentType":5126,
			"count":3408,
			"max":[
				2.528939962387085,
				3.9832000732421875,
				13.609999656677246
			],
			"min":[
				-18.35110092163086,
				-7.633200168609619,
				0.17000000178813934
			],
			"type":"VEC3"
		},
		{
			"bufferView":33,
			"componentType":5126,
			"count":3408,
			"type":"VEC3"
		},
		{
			"bufferView":34,
			"componentType":5126,
			"count":3408,
			"type":"VEC2"
		},
		{
			"bufferView":35,
			"componentType":5123,
			"count":4806,
			"type":"SCALAR"
		},
		{
			"bufferView":36,
			"componentType":5126,
			"count":132,
			"max":[
				4.593939781188965,
				3.880000114440918,
				14.15999984741211
			],
			"min":[
				3.8039400577545166,
				-3.5999999046325684,
				13
			],
			"type":"VEC3"
		},
		{
			"bufferView":37,
			"componentType":5126,
			"count":132,
			"type":"VEC3"
		},
		{
			"bufferView":38,
			"componentType":5126,
			"count":132,
			"type":"VEC2"
		},
		{
			"bufferView":39,
			"componentType":5123,
			"count":240,
			"type":"SCALAR"
		},
		{
			"bufferView":40,
			"componentType":5126,
			"count":695,
			"max":[
				-19.76110076904297,
				1.7103099822998047,
				4.310309886932373
			],
			"min":[
				-19.76110076904297,
				-1.7103099822998047,
				0.8896909952163696
			],
			"type":"VEC3"
		},
		{
			"bufferView":41,
			"componentType":5126,
			"count":695,
			"type":"VEC3"
		},
		{
			"bufferView":42,
			"componentType":5126,
			"count":695,
			"type":"VEC2"
		},
		{
			"bufferView":43,
			"componentType":5123,
			"count":1443,
			"type":"SCALAR"
		},
		{
			"bufferView":44,
			"componentType":5126,
			"count":9913,
			"max":[
				-19.411100387573242,
				2.260309934616089,
				4.860310077667236
			],
			"min":[
				-20.14109992980957,
				-2.260309934616089,
				0.3396899998188019
			],
			"type":"VEC3"
		},
		{
			"bufferView":45,
			"componentType":5126,
			"count":9913,
			"type":"VEC3"
		},
		{
			"bufferView":46,
			"componentType":5126,
			"count":9913,
			"type":"VEC2"
		},
		{
			"bufferView":47,
			"componentType":5123,
			"count":15426,
			"type":"SCALAR"
		},
		{
			"bufferView":48,
			"componentType":5126,
			"count":413,
			"max":[
				-19.76110076904297,
				1.351140022277832,
				3.9511399269104004
			],
			"min":[
				-19.76110076904297,
				-1.351140022277832,
				1.2488600015640259
			],
			"type":"VEC3"
		},
		{
			"bufferView":49,
			"componentType":5126,
			"count":413,
			"type":"VEC3"
		},
		{
			"bufferView":50,
			"componentType":5126,
			"count":413,
			"type":"VEC2"
		},
		{
			"bufferView":51,
			"componentType":5123,
			"count":720,
			"type":"SCALAR"
		},
		{
			"bufferView":52,
			"componentType":5126,
			"count":352,
			"max":[
				-19.76110076904297,
				1.7103099822998047,
				4.310309886932373
			],
			"min":[
				-19.76110076904297,
				-1.7103099822998047,
				0.8896909952163696
			],
			"type":"VEC3"
		},
		{
			"bufferView":53,
			"componentType":5126,
			"count":352,
			"type":"VEC3"
		},
		{
			"bufferView":54,
			"componentType":5126,
			"count":352,
			"type":"VEC2"
		},
		{
			"bufferView":55,
			"componentType":5123,
			"count":720,
			"type":"SCALAR"
		}
	],
	"bufferViews":[
		{
			"buffer":0,
			"byteLength":1440,
			"byteOffset":0,
			"target":34962
		},
		{
			"buffer":0,
			"byteLength":1440,
			"byteOffset":1440,
			"target":34962
		},
		{
			"buffer":0,
			"byteLength":960,
			"byteOffset":2880,
			"target":34962
		},
		{
			"buffer":0,
			"byteLength":480,
			"byteOffset":3840,
			"target":34963
		},
		{
			"buffer":0,
			"byteLength":170028,
			"byteOffset":4320,
			"target":34962
		},
		{
			"buffer":0,
			"byteLength":170028,
			"byteOffset":174348,
			"target":34962
		},
		{
			"buffer":0,
			"byteLength":113352,
			"byteOffset":344376,
			"target":34962
		},
		{
			"buffer":0,
			"byteLength":52704,
			"byteOffset":457728,
			"target":34963
		},
		{
			"buffer":0,
			"byteLength":28212,
			"byteOffset":510432,
			"target":34962
		},
		{
			"buffer":0,
			"byteLength":28212,
			"byteOffset":538644,
			"target":34962
		},
		{
			"buffer":0,
			"byteLength":18808,
			"byteOffset":566856,
			"target":34962
		},
		{
			"buffer":0,
			"byteLength":10314,
			"byteOffset":585664,
			"target":34963
		},
		{
			"buffer":0,
			"byteLength":720816,
			"byteOffset":595980,
			"target":34962
		},
		{
			"buffer":0,
			"byteLength":720816,
			"byteOffset":1316796,
			"target":34962
		},
		{
			"buffer":0,
			"byteLength":480544,
			"byteOffset":2037612,
			"target":34962
		},
		{
			"buffer":0,
			"byteLength":193872,
			"byteOffset":2518156,
			"target":34963
		},
		{
			"buffer":0,
			"byteLength":421044,
			"byteOffset":2712028,
			"target":34962
		},
		{
			"buffer":0,
			"byteLength":421044,
			"byteOffset":3133072,
			"target":34962
		},
		{
			"buffer":0,
			"byteLength":280696,
			"byteOffset":3554116,
			"target":34962
		},
		{
			"buffer":0,
			"byteLength":89778,
			"byteOffset":3834812,
			"target":34963
		},
		{
			"buffer":0,
			"byteLength":2676,
			"byteOffset":3924592,
			"target":34962
		},
		{
			"buffer":0,
			"byteLength":2676,
			"byteOffset":3927268,
			"target":34962
		},
		{
			"buffer":0,
			"byteLength":1784,
			"byteOffset":3929944,
			"target":34962
		},
		{
			"buffer":0,
			"byteLength":1506,
			"byteOffset":3931728,
			"target":34963
		},
		{
			"buffer":0,
			"byteLength":7140,
			"byteOffset":3933236,
			"target":34962
		},
		{
			"buffer":0,
			"byteLength":7140,
			"byteOffset":3940376,
			"target":34962
		},
		{
			"buffer":0,
			"byteLength":4760,
			"byteOffset":3947516,
			"target":34962
		},
		{
			"buffer":0,
			"byteLength":3162,
			"byteOffset":3952276,
			"target":34963
		},
		{
			"buffer":0,
			"byteLength":1536,
			"byteOffset":3955440,
			"target":34962
		},
		{
			"buffer":0,
			"byteLength":1536,
			"byteOffset":3956976,
			"target":34962
		},
		{
			"buffer":0,
			"byteLength":1024,
			"byteOffset":3958512,
			"target":34962
		},
		{
			"buffer":0,
			"byteLength":672,
			"byteOffset":3959536,
			"target":34963
		},
		{
			"buffer":0,
			"byteLength":40896,
			"byteOffset":3960208,
			"target":34962
		},
		{
			"buffer":0,
			"byteLength":40896,
			"byteOffset":4001104,
			"target":34962
		},
		{
			"buffer":0,
			"byteLength":27264,
			"byteOffset":4042000,
			"target":34962
		},
		{
			"buffer":0,
			"byteLength":9612,
			"byteOffset":4069264,
			"target":34963
		},
		{
			"buffer":0,
			"byteLength":1584,
			"byteOffset":4078876,
			"target":34962
		},
		{
			"buffer":0,
			"byteLength":1584,
			"byteOffset":4080460,
			"target":34962
		},
		{
			"buffer":0,
			"byteLength":1056,
			"byteOffset":4082044,
			"target":34962
		},
		{
			"buffer":0,
			"byteLength":480,
			"byteOffset":4083100,
			"target":34963
		},
		{
			"buffer":0,
			"byteLength":8340,
			"byteOffset":4083580,
			"target":34962
		},
		{
			"buffer":0,
			"byteLength":8340,
			"byteOffset":4091920,
			"target":34962
		},
		{
			"buffer":0,
			"byteLength":5560,
			"byteOffset":4100260,
			"target":34962
		},
		{
			"buffer":0,
			"byteLength":2886,
			"byteOffset":4105820,
			"target":34963
		},
		{
			"buffer":0,
			"byteLength":118956,
			"byteOffset":4108708,
			"target":34962
		},
		{
			"buffer":0,
			"byteLength":118956,
			"byteOffset":4227664,
			"target":34962
		},
		{
			"buffer":0,
			"byteLength":79304,
			"byteOffset":4346620,
			"target":34962
		},
		{
			"buffer":0,
			"byteLength":30852,
			"byteOffset":4425924,
			"target":34963
		},
		{
			"buffer":0,
			"byteLength":4956,
			"byteOffset":4456776,
			"target":34962
		},
		{
			"buffer":0,
			"byteLength":4956,
			"byteOffset":4461732,
			"target":34962
		},
		{
			"buffer":0,
			"byteLength":3304,
			"byteOffset":4466688,
			"target":34962
		},
		{
			"buffer":0,
			"byteLength":1440,
			"byteOffset":4469992,
			"target":34963
		},
		{
			"buffer":0,
			"byteLength":4224,
			"byteOffset":4471432,
			"target":34962
		},
		{
			"buffer":0,
			"byteLength":4224,
			"byteOffset":4475656,
			"target":34962
		},
		{
			"buffer":0,
			"byteLength":2816,
			"byteOffset":4479880,
			"target":34962
		},
		{
			"buffer":0,
			"byteLength":1440,
			"byteOffset":4482696,
			"target":34963
		}
	],
	"samplers":[
		{
			"magFilter":9729,
			"minFilter":9987
		}
	],
	"buffers":[
		{
			"byteLength":4484136,
			"uri":"sibneik.bin"
		}
	]
}
