{
	"asset":{
		"generator":"Khronos glTF Blender I/O v5.2.23 for Foundation",
		"version":"2.0"
	},
	"extensionsUsed":[
		"EXT_lights_area",
		"EXT_camera_lens",
		"EXT_materials_subsurface",
		"KHR_materials_specular"
	],
	"extensionsRequired":[
		"EXT_lights_area"
	],
	"extensions":{
		"EXT_lights_area":{
			"lights":[
				{
					"color":[
						1,
						1,
						1
					],
					"intensity":10,
					"type":"rect",
					"size":1,
					"rect":{
						"aspect":1
					},
					"name":"Area"
				}
			]
		}
	},
	"scene":0,
	"scenes":[
		{
			"name":"Scene",
			"nodes":[
				0,
				1,
				2
			]
		}
	],
	"nodes":[
		{
			"extensions":{
				"EXT_lights_area":{
					"light":0
				}
			},
			"name":"Area",
			"rotation":[
				-0.3007057309150696,
				0,
				0,
				0.953717052936554
			],
			"translation":[
				0,
				0.29875901341438293,
				0.39834535121917725
			]
		},
		{
			"camera":0,
			"name":"head_camera",
			"rotation":[
				-0.1283867061138153,
				-0.22177988290786743,
				0.05305924266576767,
				0.9651504158973694
			],
			"translation":[
				-0.259775847196579,
				0.09026463329792023,
				0.5089196562767029
			]
		},
		{
			"mesh":0,
			"name":"plymesh_0000",
			"rotation":[
				0.70710688829422,
				0,
				0,
				0.7071066498756409
			]
		}
	],
	"cameras":[
		{
			"extensions":{
				"EXT_camera_lens":{
					"sensorSize":24,
					"fStop":2.799999952316284,
					"focusDistance":0.5730000138282776,
					"apertureBlades":0,
					"apertureRotation":0,
					"apertureRatio":1
				}
			},
			"name":"head_camera",
			"perspective":{
				"aspectRatio":1.7777777777777777,
				"yfov":0.299190878868103,
				"zfar":1000,
				"znear":0.10000000149011612
			},
			"type":"perspective"
		}
	],
	"materials":[
		{
			"doubleSided":true,
			"extensions":{
				"EXT_materials_subsurface":{
					"subsurfaceMethod":"randomWalk",
					"subsurfaceWeight":1,
					"subsurfaceRadius":[
						1,
						0.20000000298023224,
						0.10000000149011612
					],
					"subsurfaceScale":0.05000000074505806
				},
				"KHR_materials_specular":{
					"specularFactor":0.10000000149011612
				}
			},
			"name":"subsurface_543c0984",
			"pbrMetallicRoughness":{
				"baseColorTexture":{
					"index":0
				},
				"metallicFactor":0,
				"roughnessFactor":0
			}
		}
	],
	"meshes":[
		{
			"name":"head",
			"primitives":[
				{
					"attributes":{
						"POSITION":0,
						"NORMAL":1,
						"TEXCOORD_0":2
					},
					"indices":3,
					"material":0
				}
			]
		}
	],
	"textures":[
		{
			"sampler":0,
			"source":0
		}
	],
	"images":[
		{
			"mimeType":"image/png",
			"name":"head_albedomap",
			"uri":"head_albedomap.png"
		}
	],
	"accessors":[
		{
			"bufferView":0,
			"componentType":5126,
			"count":9223,
			"max":[
				0.23213499784469604,
				0.0534759983420372,
				0.30504998564720154
			],
			"min":[
				-0.22115500271320343,
				-0.2211029976606369,
				-0.11603999882936478
			],
			"type":"VEC3"
		},
		{
			"bufferView":1,
			"componentType":5126,
			"count":9223,
			"type":"VEC3"
		},
		{
			"bufferView":2,
			"componentType":5126,
			"count":9223,
			"type":"VEC2"
		},
		{
			"bufferView":3,
			"componentType":5123,
			"count":53022,
			"type":"SCALAR"
		}
	],
	"bufferViews":[
		{
			"buffer":0,
			"byteLength":110676,
			"byteOffset":0,
			"target":34962
		},
		{
			"buffer":0,
			"byteLength":110676,
			"byteOffset":110676,
			"target":34962
		},
		{
			"buffer":0,
			"byteLength":73784,
			"byteOffset":221352,
			"target":34962
		},
		{
			"buffer":0,
			"byteLength":106044,
			"byteOffset":295136,
			"target":34963
		}
	],
	"samplers":[
		{
			"magFilter":9729,
			"minFilter":9987
		}
	],
	"buffers":[
		{
			"byteLength":401180,
			"uri":"head.bin"
		}
	]
}
