{
	"asset":{
		"generator":"Khronos glTF Blender I/O v5.2.23 for Foundation",
		"version":"2.0"
	},
	"extensionsUsed":[
		"EXT_foundation_materials",
		"EXT_foundation_curves",
		"KHR_lights_punctual"
	],
	"extensionsRequired":[
		"EXT_foundation_curves",
		"KHR_lights_punctual"
	],
	"extensions":{
		"EXT_foundation_curves":{
			"curves":[
				{
					"name":"Curves",
					"basis":"bezier",
					"points":4,
					"curveVertexCounts":5,
					"material":1
				}
			]
		},
		"KHR_lights_punctual":{
			"lights":[
				{
					"color":[
						1,
						1,
						1
					],
					"intensity":6830,
					"type":"directional",
					"name":"Sun"
				}
			]
		}
	},
	"scene":0,
	"scenes":[
		{
			"name":"Scene",
			"nodes":[
				0,
				1,
				2,
				3
			]
		}
	],
	"nodes":[
		{
			"camera":0,
			"name":"Camera",
			"rotation":[
				-0.12496472895145416,
				-0.07611429691314697,
				-0.009615007787942886,
				0.9891905784606934
			],
			"translation":[
				-4.524200916290283,
				9.150585174560547,
				30.797910690307617
			]
		},
		{
			"mesh":0,
			"name":"Circle",
			"scale":[
				6.275161266326904,
				6.275161266326904,
				6.275161266326904
			]
		},
		{
			"extensions":{
				"EXT_foundation_curves":{
					"curve":0
				}
			},
			"name":"Curves",
			"translation":[
				0,
				1.100000023841858,
				0
			]
		},
		{
			"extensions":{
				"KHR_lights_punctual":{
					"light":0
				}
			},
			"name":"Sun",
			"rotation":[
				-0.6082224249839783,
				0.1978806108236313,
				-0.33679941296577454,
				0.6909956336021423
			],
			"translation":[
				3.4051260948181152,
				1.860619306564331,
				0.04368305206298828
			]
		}
	],
	"cameras":[
		{
			"name":"Camera",
			"perspective":{
				"aspectRatio":1.7777777777777777,
				"yfov":0.08095575399412575,
				"zfar":1000,
				"znear":0.10000000149011612
			},
			"type":"perspective"
		}
	],
	"materials":[
		{
			"doubleSided":true,
			"extensions":{
				"EXT_foundation_materials":{
					"shaderBlock":"principled"
				}
			},
			"name":"Material",
			"pbrMetallicRoughness":{
				"baseColorFactor":[
					0.05087645351886749,
					0.05087645351886749,
					0.05087645351886749,
					1
				],
				"metallicFactor":0
			}
		},
		{
			"doubleSided":true,
			"extensions":{
				"EXT_foundation_materials":{
					"shaderBlock":"principled"
				}
			},
			"name":"Fur Material",
			"pbrMetallicRoughness":{
				"metallicFactor":0,
				"roughnessFactor":0.4999999701976776
			}
		}
	],
	"meshes":[
		{
			"name":"Circle",
			"primitives":[
				{
					"attributes":{
						"POSITION":0,
						"NORMAL":1,
						"TEXCOORD_0":2
					},
					"indices":3,
					"material":0
				}
			]
		}
	],
	"accessors":[
		{
			"bufferView":0,
			"componentType":5126,
			"count":65,
			"max":[
				0.9936952590942383,
				0,
				0.9936952590942383
			],
			"min":[
				-0.9936952590942383,
				0,
				-0.9936952590942383
			],
			"type":"VEC3"
		},
		{
			"bufferView":1,
			"componentType":5126,
			"count":65,
			"type":"VEC3"
		},
		{
			"bufferView":2,
			"componentType":5126,
			"count":65,
			"type":"VEC2"
		},
		{
			"bufferView":3,
			"componentType":5123,
			"count":192,
			"type":"SCALAR"
		},
		{
			"bufferView":4,
			"componentType":5126,
			"count":3397756,
			"type":"VEC4"
		},
		{
			"bufferView":5,
			"componentType":5125,
			"count":99934,
			"type":"SCALAR"
		}
	],
	"bufferViews":[
		{
			"buffer":0,
			"byteLength":780,
			"byteOffset":0,
			"target":34962
		},
		{
			"buffer":0,
			"byteLength":780,
			"byteOffset":780,
			"target":34962
		},
		{
			"buffer":0,
			"byteLength":520,
			"byteOffset":1560,
			"target":34962
		},
		{
			"buffer":0,
			"byteLength":384,
			"byteOffset":2080,
			"target":34963
		},
		{
			"buffer":0,
			"byteLength":54364096,
			"byteOffset":2464
		},
		{
			"buffer":0,
			"byteLength":399736,
			"byteOffset":54366560
		}
	],
	"buffers":[
		{
			"byteLength":54766296,
			"uri":"furry.bin"
		}
	]
}
