{
	"asset":{
		"generator":"Khronos glTF Blender I/O v5.2.23 for Foundation",
		"version":"2.0"
	},
	"extensionsUsed":[
		"EXT_foundation_environment",
		"KHR_materials_specular",
		"EXT_foundation_materials",
		"KHR_materials_ior",
		"KHR_lights_punctual",
		"EXT_materials_subsurface",
		"EXT_foundation_curves",
		"EXT_foundation_colormanagement"
	],
	"extensionsRequired":[
		"KHR_lights_punctual",
		"EXT_foundation_curves"
	],
	"extensions":{
		"KHR_lights_punctual":{
			"lights":[
				{
					"color":[
						0.3553873300552368,
						0.5838431715965271,
						1
					],
					"intensity":543.5141306588226,
					"type":"point",
					"name":"Sun.004"
				},
				{
					"color":[
						0.635917067527771,
						0.8864094614982605,
						1
					],
					"intensity":204.90000814199448,
					"type":"directional",
					"name":"Sun.001"
				},
				{
					"color":[
						1,
						0.7555461525917053,
						0.5891866087913513
					],
					"intensity":2049,
					"type":"directional",
					"name":"Sun"
				},
				{
					"color":[
						0.08839897811412811,
						0.25475338101387024,
						1
					],
					"intensity":683,
					"type":"directional",
					"name":"Sun.002"
				},
				{
					"color":[
						0.08839897811412811,
						0.25475338101387024,
						1
					],
					"intensity":2049,
					"type":"directional",
					"name":"Sun.003"
				}
			]
		},
		"EXT_foundation_curves":{
			"curves":[
				{
					"name":"ParticleSystem",
					"basis":"bezier",
					"points":32,
					"curveVertexCounts":33,
					"material":5
				},
				{
					"name":"ParticleSystem.001",
					"basis":"bezier",
					"points":34,
					"curveVertexCounts":35,
					"material":5
				}
			]
		},
		"EXT_foundation_colormanagement":{
			"postExposure":0,
			"sdr":"SDR / Filmic / No Look",
			"hdr":"HDR / ACES 1.3 - HDR 1000 nits / No Look"
		}
	},
	"scene":0,
	"scenes":[
		{
			"extensions":{
				"EXT_foundation_environment":{
					"type":"color",
					"color":[
						0,
						0,
						0
					],
					"strength":1
				}
			},
			"name":"Scene",
			"nodes":[
				0,
				6,
				7,
				8,
				9,
				10,
				11,
				12,
				13,
				14
			]
		}
	],
	"nodes":[
		{
			"mesh":0,
			"name":"armor",
			"translation":[
				0,
				0.044025372713804245,
				0
			]
		},
		{
			"extensions":{
				"KHR_lights_punctual":{
					"light":0
				}
			},
			"name":"eye_specHighlight",
			"rotation":[
				-0.1796635389328003,
				-0.11888964474201202,
				-0.14754848182201385,
				0.9653060436248779
			],
			"scale":[
				1.3649109601974487,
				1.3649104833602905,
				1.3649107217788696
			],
			"translation":[
				1.063727855682373,
				0.7131202816963196,
				-6.502320289611816
			]
		},
		{
			"extensions":{
				"KHR_lights_punctual":{
					"light":1
				}
			},
			"name":"Fill_1",
			"rotation":[
				-0.34312620759010315,
				0.2687031626701355,
				0.5758548974990845,
				0.6917038559913635
			],
			"scale":[
				1.36491060256958,
				1.3649110794067383,
				1.3649104833602905
			],
			"translation":[
				1.231268286705017,
				3.3279995918273926,
				-3.3829760551452637
			]
		},
		{
			"extensions":{
				"KHR_lights_punctual":{
					"light":2
				}
			},
			"name":"Key",
			"rotation":[
				-0.6752305030822754,
				-0.04225943237543106,
				0.24235884845256805,
				0.6953705549240112
			],
			"scale":[
				1.3649108409881592,
				1.3649107217788696,
				1.3649104833602905
			],
			"translation":[
				-3.265777111053467,
				3.1264915466308594,
				-6.805502891540527
			]
		},
		{
			"extensions":{
				"KHR_lights_punctual":{
					"light":3
				}
			},
			"name":"Rim_1",
			"rotation":[
				0.5648784637451172,
				0.781175971031189,
				0.2015523761510849,
				0.1733582764863968
			],
			"scale":[
				1.3649107217788696,
				1.3649109601974487,
				1.36491060256958
			],
			"translation":[
				2.3303730487823486,
				2.829892158508301,
				-11.843805313110352
			]
		},
		{
			"extensions":{
				"KHR_lights_punctual":{
					"light":4
				}
			},
			"name":"Rim_2",
			"rotation":[
				-0.6010915637016296,
				-0.711200475692749,
				0.1793745458126068,
				0.31734469532966614
			],
			"scale":[
				1.36491060256958,
				1.36491060256958,
				1.3649109601974487
			],
			"translation":[
				-3.4289886951446533,
				2.8174540996551514,
				-12.054757118225098
			]
		},
		{
			"camera":0,
			"children":[
				1,
				2,
				3,
				4,
				5
			],
			"name":"Camera",
			"rotation":[
				0.029132463037967682,
				-0.13412973284721375,
				0.003943230025470257,
				0.9905276298522949
			],
			"scale":[
				0.7326485514640808,
				0.7326485514640808,
				0.7326485514640808
			],
			"translation":[
				-1.530753493309021,
				-0.42545589804649353,
				5.517700672149658
			]
		},
		{
			"mesh":1,
			"name":"Eyeball",
			"rotation":[
				-0.5605763792991638,
				-0.524603009223938,
				0.4580318033695221,
				0.44805431365966797
			],
			"scale":[
				0.06332557648420334,
				0.06332558393478394,
				0.06332557648420334
			],
			"translation":[
				-0.13256457448005676,
				0.12963035702705383,
				0.31643450260162354
			]
		},
		{
			"mesh":2,
			"name":"Eyeball.001",
			"rotation":[
				-0.5605763792991638,
				-0.524603009223938,
				0.4580318033695221,
				0.44805431365966797
			],
			"scale":[
				0.06332557648420334,
				0.06332558393478394,
				0.06332557648420334
			],
			"translation":[
				0.14089837670326233,
				0.12963035702705383,
				0.31643450260162354
			]
		},
		{
			"mesh":3,
			"name":"eyebrows"
		},
		{
			"mesh":4,
			"name":"Hair Scalp"
		},
		{
			"mesh":5,
			"name":"Head",
			"rotation":[
				0.70710688829422,
				0,
				0,
				0.7071066498756409
			]
		},
		{
			"extensions":{
				"EXT_foundation_curves":{
					"curve":0
				}
			},
			"name":"ParticleSystem"
		},
		{
			"extensions":{
				"EXT_foundation_curves":{
					"curve":1
				}
			},
			"name":"ParticleSystem.001"
		},
		{
			"mesh":6,
			"name":"studs",
			"translation":[
				0,
				0.044025372713804245,
				0
			]
		}
	],
	"cameras":[
		{
			"name":"Camera",
			"perspective":{
				"aspectRatio":0.8503937007874016,
				"yfov":0.372116357088089,
				"zfar":100,
				"znear":0.10000000149011612
			},
			"type":"perspective"
		}
	],
	"materials":[
		{
			"doubleSided":true,
			"extensions":{
				"EXT_foundation_materials":{
					"shaderBlock":"principled"
				}
			},
			"name":"armor",
			"pbrMetallicRoughness":{
				"baseColorTexture":{
					"index":0
				},
				"roughnessFactor":0.331818163394928
			}
		},
		{
			"doubleSided":true,
			"extensions":{
				"EXT_foundation_materials":{
					"shaderBlock":"principled"
				}
			},
			"name":"Iris",
			"pbrMetallicRoughness":{
				"baseColorTexture":{
					"index":1
				},
				"metallicFactor":0,
				"roughnessFactor":0
			}
		},
		{
			"doubleSided":true,
			"extensions":{
				"EXT_foundation_materials":{
					"shaderBlock":"principled"
				}
			},
			"name":"Eyeball",
			"pbrMetallicRoughness":{
				"baseColorFactor":[
					0.800000011920929,
					0.800000011920929,
					0.800000011920929,
					1
				],
				"metallicFactor":0,
				"roughnessFactor":0.5
			}
		},
		{
			"doubleSided":true,
			"name":"hair"
		},
		{
			"doubleSided":true,
			"extensions":{
				"EXT_materials_subsurface":{
					"subsurfaceProfile":"burley",
					"subsurfaceWeight":1,
					"subsurfaceRadius":[
						0.5999999046325684,
						0.029999999329447746,
						0
					],
					"subsurfaceScale":0.15000000596046448
				},
				"KHR_materials_specular":{
					"specularTexture":{
						"index":2
					}
				},
				"EXT_foundation_materials":{
					"shaderBlock":"principled"
				},
				"KHR_materials_ior":{
					"ior":1.4500000476837158
				}
			},
			"name":"FatMan_skin",
			"normalTexture":{
				"index":3,
				"scale":1.2999999523162842
			},
			"pbrMetallicRoughness":{
				"baseColorTexture":{
					"index":4
				},
				"metallicFactor":0,
				"metallicRoughnessTexture":{
					"index":5
				}
			}
		},
		{
			"doubleSided":true,
			"extensions":{
				"EXT_foundation_materials":{
					"shaderBlock":"hair",
					"model":"chiang",
					"betaM":0.30000001192092896,
					"betaN":0.30000001192092896,
					"alpha":0.03490658476948738,
					"ior":1.5499999523162842
				}
			},
			"name":"Hair",
			"pbrMetallicRoughness":{
				"baseColorFactor":[
					0.8000156879425049,
					0.07748117297887802,
					0.014511160552501678,
					1
				],
				"metallicFactor":0,
				"roughnessFactor":0.30000001192092896
			}
		},
		{
			"doubleSided":true,
			"extensions":{
				"EXT_foundation_materials":{
					"shaderBlock":"principled"
				}
			},
			"name":"studs",
			"pbrMetallicRoughness":{
				"baseColorFactor":[
					0.4968487322330475,
					0.4968487322330475,
					0.4968487322330475,
					1
				],
				"roughnessFactor":0.1818181872367859
			}
		}
	],
	"meshes":[
		{
			"name":"Mesh",
			"primitives":[
				{
					"attributes":{
						"POSITION":0,
						"NORMAL":1,
						"TEXCOORD_0":2
					},
					"indices":3,
					"material":0
				}
			]
		},
		{
			"name":"Mesh",
			"primitives":[
				{
					"attributes":{
						"POSITION":4,
						"NORMAL":5,
						"TEXCOORD_0":6
					},
					"indices":7,
					"material":1
				},
				{
					"attributes":{
						"POSITION":8,
						"NORMAL":9,
						"TEXCOORD_0":10
					},
					"indices":11,
					"material":2
				}
			]
		},
		{
			"name":"Mesh",
			"primitives":[
				{
					"attributes":{
						"POSITION":12,
						"NORMAL":13,
						"TEXCOORD_0":14
					},
					"indices":7,
					"material":1
				},
				{
					"attributes":{
						"POSITION":15,
						"NORMAL":16,
						"TEXCOORD_0":17
					},
					"indices":11,
					"material":2
				}
			]
		},
		{
			"name":"Plane.001",
			"primitives":[
				{
					"attributes":{
						"POSITION":18,
						"NORMAL":19
					},
					"indices":20,
					"material":3
				}
			]
		},
		{
			"name":"Plane",
			"primitives":[
				{
					"attributes":{
						"POSITION":21,
						"NORMAL":22
					},
					"indices":23,
					"material":3
				}
			]
		},
		{
			"extras":{
				"targetNames":[
					"expression",
					"Key 2"
				]
			},
			"name":"fat man lowres.001",
			"primitives":[
				{
					"attributes":{
						"POSITION":24,
						"NORMAL":25,
						"TEXCOORD_0":26
					},
					"indices":27,
					"material":4,
					"targets":[
						{
							"POSITION":28,
							"NORMAL":29
						},
						{
							"POSITION":30,
							"NORMAL":31
						}
					]
				}
			],
			"weights":[
				0.4965357780456543,
				1
			]
		},
		{
			"name":"Plane.002",
			"primitives":[
				{
					"attributes":{
						"POSITION":36,
						"NORMAL":37,
						"TEXCOORD_0":38
					},
					"indices":39,
					"material":6
				}
			]
		}
	],
	"textures":[
		{
			"sampler":0,
			"source":0
		},
		{
			"sampler":0,
			"source":1
		},
		{
			"sampler":0,
			"source":2
		},
		{
			"sampler":0,
			"source":3
		},
		{
			"sampler":0,
			"source":4
		},
		{
			"sampler":0,
			"source":5
		}
	],
	"images":[
		{
			"mimeType":"image/png",
			"name":"armor_A",
			"uri":"armor_A.png"
		},
		{
			"mimeType":"image/png",
			"name":"Eye_Diffuse",
			"uri":"Eye_Diffuse.png"
		},
		{
			"mimeType":"image/png",
			"name":"FatGuy_Spec",
			"uri":"FatGuy_Spec.png"
		},
		{
			"mimeType":"image/png",
			"name":"FatGuy_N",
			"uri":"FatGuy_N.png"
		},
		{
			"mimeType":"image/png",
			"name":"FatGuy_A",
			"uri":"FatGuy_A.png"
		},
		{
			"mimeType":"image/png",
			"name":"FatGuy_R_AO_M",
			"uri":"FatGuy_R_AO_M.png"
		}
	],
	"accessors":[
		{
			"bufferView":0,
			"componentType":5126,
			"count":51935,
			"max":[
				1.454068899154663,
				-0.37839779257774353,
				0.7785502076148987
			],
			"min":[
				-1.454068899154663,
				-1.5878498554229736,
				-0.7403150200843811
			],
			"type":"VEC3"
		},
		{
			"bufferView":1,
			"componentType":5126,
			"count":51935,
			"type":"VEC3"
		},
		{
			"bufferView":2,
			"componentType":5126,
			"count":51935,
			"type":"VEC2"
		},
		{
			"bufferView":3,
			"componentType":5123,
			"count":266448,
			"type":"SCALAR"
		},
		{
			"bufferView":4,
			"componentType":5126,
			"count":1290,
			"max":[
				0.3421175479888916,
				-0.8732049465179443,
				0.3422758877277374
			],
			"min":[
				-0.3422022759914398,
				-0.9634648561477661,
				-0.342043936252594
			],
			"type":"VEC3"
		},
		{
			"bufferView":5,
			"componentType":5126,
			"count":1290,
			"type":"VEC3"
		},
		{
			"bufferView":6,
			"componentType":5126,
			"count":1290,
			"type":"VEC2"
		},
		{
			"bufferView":7,
			"componentType":5123,
			"count":6048,
			"type":"SCALAR"
		},
		{
			"bufferView":8,
			"componentType":5126,
			"count":1998,
			"max":[
				0.9746270179748535,
				7.549791547489804e-08,
				0.9746270775794983
			],
			"min":[
				-0.9746267199516296,
				-0.9493436813354492,
				-0.9746266603469849
			],
			"type":"VEC3"
		},
		{
			"bufferView":9,
			"componentType":5126,
			"count":1998,
			"type":"VEC3"
		},
		{
			"bufferView":10,
			"componentType":5126,
			"count":1998,
			"type":"VEC2"
		},
		{
			"bufferView":11,
			"componentType":5123,
			"count":11328,
			"type":"SCALAR"
		},
		{
			"bufferView":12,
			"componentType":5126,
			"count":1290,
			"max":[
				0.3421175479888916,
				-0.8732049465179443,
				0.3422758877277374
			],
			"min":[
				-0.3422022759914398,
				-0.9634648561477661,
				-0.342043936252594
			],
			"type":"VEC3"
		},
		{
			"bufferView":13,
			"componentType":5126,
			"count":1290,
			"type":"VEC3"
		},
		{
			"bufferView":14,
			"componentType":5126,
			"count":1290,
			"type":"VEC2"
		},
		{
			"bufferView":15,
			"componentType":5126,
			"count":1998,
			"max":[
				0.9746270179748535,
				7.549791547489804e-08,
				0.9746270775794983
			],
			"min":[
				-0.9746267199516296,
				-0.9493436813354492,
				-0.9746266603469849
			],
			"type":"VEC3"
		},
		{
			"bufferView":16,
			"componentType":5126,
			"count":1998,
			"type":"VEC3"
		},
		{
			"bufferView":17,
			"componentType":5126,
			"count":1998,
			"type":"VEC2"
		},
		{
			"bufferView":18,
			"componentType":5126,
			"count":384,
			"max":[
				0.24271605908870697,
				0.2172660231590271,
				0.44209417700767517
			],
			"min":[
				-0.24280491471290588,
				0.15154296159744263,
				0.38328665494918823
			],
			"type":"VEC3"
		},
		{
			"bufferView":19,
			"componentType":5126,
			"count":384,
			"type":"VEC3"
		},
		{
			"bufferView":20,
			"componentType":5123,
			"count":576,
			"type":"SCALAR"
		},
		{
			"bufferView":21,
			"componentType":5126,
			"count":7904,
			"max":[
				0.5216132998466492,
				0.5256940722465515,
				0.655154824256897
			],
			"min":[
				-0.5216129422187805,
				-0.44368720054626465,
				-0.46543025970458984
			],
			"type":"VEC3"
		},
		{
			"bufferView":22,
			"componentType":5126,
			"count":7904,
			"type":"VEC3"
		},
		{
			"bufferView":23,
			"componentType":5123,
			"count":11856,
			"type":"SCALAR"
		},
		{
			"bufferView":24,
			"componentType":5126,
			"count":28035,
			"max":[
				0.6188067197799683,
				0.6914770007133484,
				0.7172075510025024
			],
			"min":[
				-0.6188082695007324,
				-0.5342517495155334,
				-0.5316342711448669
			],
			"type":"VEC3"
		},
		{
			"bufferView":25,
			"componentType":5126,
			"count":28035,
			"type":"VEC3"
		},
		{
			"bufferView":26,
			"componentType":5126,
			"count":28035,
			"type":"VEC2"
		},
		{
			"bufferView":27,
			"componentType":5123,
			"count":164640,
			"type":"SCALAR"
		},
		{
			"componentType":5126,
			"count":28035,
			"max":[
				0.005292270332574844,
				0.0026182234287261963,
				0.011660009622573853
			],
			"min":[
				-0.009086433798074722,
				-0.002601802349090576,
				-0.02582816779613495
			],
			"sparse":{
				"count":2050,
				"indices":{
					"bufferView":28,
					"componentType":5123
				},
				"values":{
					"bufferView":29
				}
			},
			"type":"VEC3"
		},
		{
			"bufferView":30,
			"componentType":5126,
			"count":28035,
			"type":"VEC3"
		},
		{
			"componentType":5126,
			"count":28035,
			"max":[
				0.05697852373123169,
				0.05412164330482483,
				0.010425269603729248
			],
			"min":[
				-0.05697989463806152,
				-0.0019253939390182495,
				-0.07957491278648376
			],
			"sparse":{
				"count":6514,
				"indices":{
					"bufferView":31,
					"componentType":5123
				},
				"values":{
					"bufferView":32
				}
			},
			"type":"VEC3"
		},
		{
			"bufferView":33,
			"componentType":5126,
			"count":28035,
			"type":"VEC3"
		},
		{
			"bufferView":34,
			"componentType":5126,
			"count":23799,
			"type":"VEC4"
		},
		{
			"bufferView":35,
			"componentType":5125,
			"count":330,
			"type":"SCALAR"
		},
		{
			"bufferView":36,
			"componentType":5126,
			"count":3724875,
			"type":"VEC4"
		},
		{
			"bufferView":37,
			"componentType":5125,
			"count":9675,
			"type":"SCALAR"
		},
		{
			"bufferView":38,
			"componentType":5126,
			"count":35256,
			"max":[
				0.6886001825332642,
				-0.5988631248474121,
				0.6335914731025696
			],
			"min":[
				-0.6886001825332642,
				-1.12409508228302,
				-0.6810091733932495
			],
			"type":"VEC3"
		},
		{
			"bufferView":39,
			"componentType":5126,
			"count":35256,
			"type":"VEC3"
		},
		{
			"bufferView":40,
			"componentType":5126,
			"count":35256,
			"type":"VEC2"
		},
		{
			"bufferView":41,
			"componentType":5123,
			"count":193536,
			"type":"SCALAR"
		}
	],
	"bufferViews":[
		{
			"buffer":0,
			"byteLength":623220,
			"byteOffset":0,
			"target":34962
		},
		{
			"buffer":0,
			"byteLength":623220,
			"byteOffset":623220,
			"target":34962
		},
		{
			"buffer":0,
			"byteLength":415480,
			"byteOffset":1246440,
			"target":34962
		},
		{
			"buffer":0,
			"byteLength":532896,
			"byteOffset":1661920,
			"target":34963
		},
		{
			"buffer":0,
			"byteLength":15480,
			"byteOffset":2194816,
			"target":34962
		},
		{
			"buffer":0,
			"byteLength":15480,
			"byteOffset":2210296,
			"target":34962
		},
		{
			"buffer":0,
			"byteLength":10320,
			"byteOffset":2225776,
			"target":34962
		},
		{
			"buffer":0,
			"byteLength":12096,
			"byteOffset":2236096,
			"target":34963
		},
		{
			"buffer":0,
			"byteLength":23976,
			"byteOffset":2248192,
			"target":34962
		},
		{
			"buffer":0,
			"byteLength":23976,
			"byteOffset":2272168,
			"target":34962
		},
		{
			"buffer":0,
			"byteLength":15984,
			"byteOffset":2296144,
			"target":34962
		},
		{
			"buffer":0,
			"byteLength":22656,
			"byteOffset":2312128,
			"target":34963
		},
		{
			"buffer":0,
			"byteLength":15480,
			"byteOffset":2334784,
			"target":34962
		},
		{
			"buffer":0,
			"byteLength":15480,
			"byteOffset":2350264,
			"target":34962
		},
		{
			"buffer":0,
			"byteLength":10320,
			"byteOffset":2365744,
			"target":34962
		},
		{
			"buffer":0,
			"byteLength":23976,
			"byteOffset":2376064,
			"target":34962
		},
		{
			"buffer":0,
			"byteLength":23976,
			"byteOffset":2400040,
			"target":34962
		},
		{
			"buffer":0,
			"byteLength":15984,
			"byteOffset":2424016,
			"target":34962
		},
		{
			"buffer":0,
			"byteLength":4608,
			"byteOffset":2440000,
			"target":34962
		},
		{
			"buffer":0,
			"byteLength":4608,
			"byteOffset":2444608,
			"target":34962
		},
		{
			"buffer":0,
			"byteLength":1152,
			"byteOffset":2449216,
			"target":34963
		},
		{
			"buffer":0,
			"byteLength":94848,
			"byteOffset":2450368,
			"target":34962
		},
		{
			"buffer":0,
			"byteLength":94848,
			"byteOffset":2545216,
			"target":34962
		},
		{
			"buffer":0,
			"byteLength":23712,
			"byteOffset":2640064,
			"target":34963
		},
		{
			"buffer":0,
			"byteLength":336420,
			"byteOffset":2663776,
			"target":34962
		},
		{
			"buffer":0,
			"byteLength":336420,
			"byteOffset":3000196,
			"target":34962
		},
		{
			"buffer":0,
			"byteLength":224280,
			"byteOffset":3336616,
			"target":34962
		},
		{
			"buffer":0,
			"byteLength":329280,
			"byteOffset":3560896,
			"target":34963
		},
		{
			"buffer":0,
			"byteLength":4100,
			"byteOffset":3890176
		},
		{
			"buffer":0,
			"byteLength":24600,
			"byteOffset":3894276
		},
		{
			"buffer":0,
			"byteLength":336420,
			"byteOffset":3918876,
			"target":34962
		},
		{
			"buffer":0,
			"byteLength":13028,
			"byteOffset":4255296
		},
		{
			"buffer":0,
			"byteLength":78168,
			"byteOffset":4268324
		},
		{
			"buffer":0,
			"byteLength":336420,
			"byteOffset":4346492,
			"target":34962
		},
		{
			"buffer":0,
			"byteLength":380784,
			"byteOffset":4682912
		},
		{
			"buffer":0,
			"byteLength":1320,
			"byteOffset":5063696
		},
		{
			"buffer":0,
			"byteLength":59598000,
			"byteOffset":5065016
		},
		{
			"buffer":0,
			"byteLength":38700,
			"byteOffset":64663016
		},
		{
			"buffer":0,
			"byteLength":423072,
			"byteOffset":64701716,
			"target":34962
		},
		{
			"buffer":0,
			"byteLength":423072,
			"byteOffset":65124788,
			"target":34962
		},
		{
			"buffer":0,
			"byteLength":282048,
			"byteOffset":65547860,
			"target":34962
		},
		{
			"buffer":0,
			"byteLength":387072,
			"byteOffset":65829908,
			"target":34963
		}
	],
	"samplers":[
		{
			"magFilter":9729,
			"minFilter":9987
		}
	],
	"buffers":[
		{
			"byteLength":66216980,
			"uri":"fatguy.bin"
		}
	]
}
