{
	"asset":{
		"generator":"Khronos glTF Blender I/O v5.2.23 for Foundation",
		"version":"2.0"
	},
	"extensionsUsed":[
		"EXT_foundation_environment",
		"KHR_materials_transmission",
		"EXT_foundation_materials",
		"EXT_foundation_colormanagement"
	],
	"extensions":{
		"EXT_foundation_colormanagement":{
			"postExposure":0,
			"sdr":"SDR / AgX / No Look",
			"hdr":"HDR / ACES 1.3 - HDR 1000 nits / No Look"
		}
	},
	"scene":0,
	"scenes":[
		{
			"extensions":{
				"EXT_foundation_environment":{
					"type":"color",
					"color":[
						1,
						1,
						1
					],
					"strength":1
				}
			},
			"name":"Scene",
			"nodes":[
				0,
				1,
				2,
				3,
				4,
				5,
				6,
				7,
				8,
				9,
				10,
				11,
				12,
				13,
				14,
				15,
				16,
				17,
				18,
				19,
				20,
				21,
				22,
				23,
				24,
				25,
				26
			]
		}
	],
	"nodes":[
		{
			"camera":0,
			"name":"Camera",
			"rotation":[
				-0.00043403604649938643,
				-0.9685819745063782,
				-0.24868851900100708,
				0.001690467237494886
			],
			"translation":[
				-0.031670182943344116,
				26.45200538635254,
				-48.06913757324219
			]
		},
		{
			"camera":1,
			"name":"Camera.001",
			"rotation":[
				-0.00043403604649938643,
				-0.9685819745063782,
				-0.24868851900100708,
				0.001690467237494886
			],
			"translation":[
				-0.031670182943344116,
				29.45200538635254,
				-47.06913757324219
			]
		},
		{
			"camera":2,
			"name":"Camera.002",
			"rotation":[
				-0.00043403604649938643,
				-0.9685819745063782,
				-0.24868851900100708,
				0.001690467237494886
			],
			"translation":[
				-0.031670182943344116,
				23.45200538635254,
				-50.06913757324219
			]
		},
		{
			"mesh":0,
			"name":"Sphere",
			"translation":[
				-10,
				0,
				0
			]
		},
		{
			"mesh":1,
			"name":"Sphere.001",
			"translation":[
				-7,
				0,
				0
			]
		},
		{
			"mesh":2,
			"name":"Sphere.002",
			"translation":[
				-4,
				0,
				0
			]
		},
		{
			"mesh":3,
			"name":"Sphere.003",
			"translation":[
				-0.9999998807907104,
				0,
				0
			]
		},
		{
			"mesh":4,
			"name":"Sphere.004",
			"translation":[
				2.000000476837158,
				0,
				0
			]
		},
		{
			"mesh":5,
			"name":"Sphere.005",
			"translation":[
				5,
				0,
				0
			]
		},
		{
			"mesh":6,
			"name":"Sphere.006",
			"translation":[
				8,
				0,
				0
			]
		},
		{
			"mesh":7,
			"name":"Sphere.007",
			"translation":[
				11,
				0,
				0
			]
		},
		{
			"mesh":8,
			"name":"Sphere.008",
			"translation":[
				-10,
				3,
				0.9999999403953552
			]
		},
		{
			"mesh":9,
			"name":"Sphere.009",
			"translation":[
				-7,
				3,
				1
			]
		},
		{
			"mesh":10,
			"name":"Sphere.010",
			"translation":[
				-4,
				3,
				0.9999999403953552
			]
		},
		{
			"mesh":11,
			"name":"Sphere.011",
			"translation":[
				-0.9999998807907104,
				3,
				1
			]
		},
		{
			"mesh":12,
			"name":"Sphere.012",
			"translation":[
				2.000000476837158,
				3,
				0.9999999403953552
			]
		},
		{
			"mesh":13,
			"name":"Sphere.013",
			"translation":[
				5,
				3,
				0.9999999403953552
			]
		},
		{
			"mesh":14,
			"name":"Sphere.014",
			"translation":[
				8,
				3,
				1
			]
		},
		{
			"mesh":15,
			"name":"Sphere.015",
			"translation":[
				11,
				3,
				0.9999999403953552
			]
		},
		{
			"mesh":16,
			"name":"Sphere.016",
			"translation":[
				-10,
				-3,
				-2
			]
		},
		{
			"mesh":17,
			"name":"Sphere.017",
			"translation":[
				-7,
				-3,
				-2
			]
		},
		{
			"mesh":18,
			"name":"Sphere.018",
			"translation":[
				-4,
				-3,
				-2
			]
		},
		{
			"mesh":19,
			"name":"Sphere.019",
			"translation":[
				-0.9999998807907104,
				-3,
				-2
			]
		},
		{
			"mesh":20,
			"name":"Sphere.020",
			"translation":[
				2.000000476837158,
				-3,
				-2
			]
		},
		{
			"mesh":21,
			"name":"Sphere.021",
			"translation":[
				5,
				-3,
				-2
			]
		},
		{
			"mesh":22,
			"name":"Sphere.022",
			"translation":[
				8,
				-3,
				-2
			]
		},
		{
			"mesh":23,
			"name":"Sphere.023",
			"translation":[
				11,
				-3,
				-2
			]
		}
	],
	"cameras":[
		{
			"name":"Camera.001",
			"perspective":{
				"aspectRatio":1.7777777777777777,
				"yfov":0.25178630405316277,
				"zfar":1000,
				"znear":0.10000000149011612
			},
			"type":"perspective"
		},
		{
			"name":"Camera.002",
			"perspective":{
				"aspectRatio":1.7777777777777777,
				"yfov":0.25178630405316277,
				"zfar":1000,
				"znear":0.10000000149011612
			},
			"type":"perspective"
		},
		{
			"name":"Camera.003",
			"perspective":{
				"aspectRatio":1.7777777777777777,
				"yfov":0.25178630405316277,
				"zfar":1000,
				"znear":0.10000000149011612
			},
			"type":"perspective"
		}
	],
	"materials":[
		{
			"doubleSided":true,
			"extensions":{
				"KHR_materials_transmission":{
					"transmissionFactor":1
				},
				"EXT_foundation_materials":{
					"shaderBlock":"principled"
				}
			},
			"name":"IOR.008",
			"pbrMetallicRoughness":{
				"metallicFactor":0,
				"roughnessFactor":0.8999999761581421
			}
		},
		{
			"doubleSided":true,
			"extensions":{
				"KHR_materials_transmission":{
					"transmissionFactor":1
				},
				"EXT_foundation_materials":{
					"shaderBlock":"principled"
				}
			},
			"name":"IOR.007",
			"pbrMetallicRoughness":{
				"metallicFactor":0,
				"roughnessFactor":0.699999988079071
			}
		},
		{
			"doubleSided":true,
			"extensions":{
				"KHR_materials_transmission":{
					"transmissionFactor":1
				},
				"EXT_foundation_materials":{
					"shaderBlock":"principled"
				}
			},
			"name":"IOR.006",
			"pbrMetallicRoughness":{
				"metallicFactor":0,
				"roughnessFactor":0.5
			}
		},
		{
			"doubleSided":true,
			"extensions":{
				"KHR_materials_transmission":{
					"transmissionFactor":1
				},
				"EXT_foundation_materials":{
					"shaderBlock":"principled"
				}
			},
			"name":"IOR.005",
			"pbrMetallicRoughness":{
				"metallicFactor":0,
				"roughnessFactor":0.4000000059604645
			}
		},
		{
			"doubleSided":true,
			"extensions":{
				"KHR_materials_transmission":{
					"transmissionFactor":1
				},
				"EXT_foundation_materials":{
					"shaderBlock":"principled"
				}
			},
			"name":"IOR.004",
			"pbrMetallicRoughness":{
				"metallicFactor":0,
				"roughnessFactor":0.30000001192092896
			}
		},
		{
			"doubleSided":true,
			"extensions":{
				"KHR_materials_transmission":{
					"transmissionFactor":1
				},
				"EXT_foundation_materials":{
					"shaderBlock":"principled"
				}
			},
			"name":"IOR.003",
			"pbrMetallicRoughness":{
				"metallicFactor":0,
				"roughnessFactor":0.20000000298023224
			}
		},
		{
			"doubleSided":true,
			"extensions":{
				"KHR_materials_transmission":{
					"transmissionFactor":1
				},
				"EXT_foundation_materials":{
					"shaderBlock":"principled"
				}
			},
			"name":"IOR.002",
			"pbrMetallicRoughness":{
				"metallicFactor":0,
				"roughnessFactor":0.10000000149011612
			}
		},
		{
			"doubleSided":true,
			"extensions":{
				"KHR_materials_transmission":{
					"transmissionFactor":1
				},
				"EXT_foundation_materials":{
					"shaderBlock":"principled"
				}
			},
			"name":"IOR",
			"pbrMetallicRoughness":{
				"metallicFactor":0,
				"roughnessFactor":0
			}
		},
		{
			"doubleSided":true,
			"extensions":{
				"EXT_foundation_materials":{
					"shaderBlock":"principled"
				}
			},
			"name":"IOR.015",
			"pbrMetallicRoughness":{
				"metallicFactor":0,
				"roughnessFactor":0.8999999761581421
			}
		},
		{
			"doubleSided":true,
			"extensions":{
				"EXT_foundation_materials":{
					"shaderBlock":"principled"
				}
			},
			"name":"IOR.014",
			"pbrMetallicRoughness":{
				"metallicFactor":0,
				"roughnessFactor":0.699999988079071
			}
		},
		{
			"doubleSided":true,
			"extensions":{
				"EXT_foundation_materials":{
					"shaderBlock":"principled"
				}
			},
			"name":"IOR.013",
			"pbrMetallicRoughness":{
				"metallicFactor":0,
				"roughnessFactor":0.5
			}
		},
		{
			"doubleSided":true,
			"extensions":{
				"EXT_foundation_materials":{
					"shaderBlock":"principled"
				}
			},
			"name":"IOR.012",
			"pbrMetallicRoughness":{
				"metallicFactor":0,
				"roughnessFactor":0.4000000059604645
			}
		},
		{
			"doubleSided":true,
			"extensions":{
				"EXT_foundation_materials":{
					"shaderBlock":"principled"
				}
			},
			"name":"IOR.011",
			"pbrMetallicRoughness":{
				"metallicFactor":0,
				"roughnessFactor":0.30000001192092896
			}
		},
		{
			"doubleSided":true,
			"extensions":{
				"EXT_foundation_materials":{
					"shaderBlock":"principled"
				}
			},
			"name":"IOR.010",
			"pbrMetallicRoughness":{
				"metallicFactor":0,
				"roughnessFactor":0.20000000298023224
			}
		},
		{
			"doubleSided":true,
			"extensions":{
				"EXT_foundation_materials":{
					"shaderBlock":"principled"
				}
			},
			"name":"IOR.009",
			"pbrMetallicRoughness":{
				"metallicFactor":0,
				"roughnessFactor":0.10000000149011612
			}
		},
		{
			"doubleSided":true,
			"extensions":{
				"EXT_foundation_materials":{
					"shaderBlock":"principled"
				}
			},
			"name":"IOR.001",
			"pbrMetallicRoughness":{
				"metallicFactor":0,
				"roughnessFactor":0
			}
		},
		{
			"doubleSided":true,
			"extensions":{
				"EXT_foundation_materials":{
					"shaderBlock":"principled"
				}
			},
			"name":"IOR.016",
			"pbrMetallicRoughness":{
				"roughnessFactor":0.8999999761581421
			}
		},
		{
			"doubleSided":true,
			"extensions":{
				"EXT_foundation_materials":{
					"shaderBlock":"principled"
				}
			},
			"name":"IOR.017",
			"pbrMetallicRoughness":{
				"roughnessFactor":0.699999988079071
			}
		},
		{
			"doubleSided":true,
			"extensions":{
				"EXT_foundation_materials":{
					"shaderBlock":"principled"
				}
			},
			"name":"IOR.018",
			"pbrMetallicRoughness":{
				"roughnessFactor":0.5
			}
		},
		{
			"doubleSided":true,
			"extensions":{
				"EXT_foundation_materials":{
					"shaderBlock":"principled"
				}
			},
			"name":"IOR.019",
			"pbrMetallicRoughness":{
				"roughnessFactor":0.4000000059604645
			}
		},
		{
			"doubleSided":true,
			"extensions":{
				"EXT_foundation_materials":{
					"shaderBlock":"principled"
				}
			},
			"name":"IOR.020",
			"pbrMetallicRoughness":{
				"roughnessFactor":0.30000001192092896
			}
		},
		{
			"doubleSided":true,
			"extensions":{
				"EXT_foundation_materials":{
					"shaderBlock":"principled"
				}
			},
			"name":"IOR.021",
			"pbrMetallicRoughness":{
				"roughnessFactor":0.20000000298023224
			}
		},
		{
			"doubleSided":true,
			"extensions":{
				"EXT_foundation_materials":{
					"shaderBlock":"principled"
				}
			},
			"name":"IOR.022",
			"pbrMetallicRoughness":{
				"roughnessFactor":0.10000000149011612
			}
		},
		{
			"doubleSided":true,
			"extensions":{
				"EXT_foundation_materials":{
					"shaderBlock":"principled"
				}
			},
			"name":"IOR.023",
			"pbrMetallicRoughness":{
				"roughnessFactor":0
			}
		}
	],
	"meshes":[
		{
			"name":"Sphere",
			"primitives":[
				{
					"attributes":{
						"POSITION":0,
						"NORMAL":1,
						"TEXCOORD_0":2
					},
					"indices":3,
					"material":0
				}
			]
		},
		{
			"name":"Sphere.001",
			"primitives":[
				{
					"attributes":{
						"POSITION":4,
						"NORMAL":5,
						"TEXCOORD_0":6
					},
					"indices":3,
					"material":1
				}
			]
		},
		{
			"name":"Sphere.002",
			"primitives":[
				{
					"attributes":{
						"POSITION":7,
						"NORMAL":8,
						"TEXCOORD_0":9
					},
					"indices":3,
					"material":2
				}
			]
		},
		{
			"name":"Sphere.003",
			"primitives":[
				{
					"attributes":{
						"POSITION":10,
						"NORMAL":11,
						"TEXCOORD_0":12
					},
					"indices":3,
					"material":3
				}
			]
		},
		{
			"name":"Sphere.004",
			"primitives":[
				{
					"attributes":{
						"POSITION":13,
						"NORMAL":14,
						"TEXCOORD_0":15
					},
					"indices":3,
					"material":4
				}
			]
		},
		{
			"name":"Sphere.005",
			"primitives":[
				{
					"attributes":{
						"POSITION":16,
						"NORMAL":17,
						"TEXCOORD_0":18
					},
					"indices":3,
					"material":5
				}
			]
		},
		{
			"name":"Sphere.006",
			"primitives":[
				{
					"attributes":{
						"POSITION":19,
						"NORMAL":20,
						"TEXCOORD_0":21
					},
					"indices":3,
					"material":6
				}
			]
		},
		{
			"name":"Sphere.007",
			"primitives":[
				{
					"attributes":{
						"POSITION":22,
						"NORMAL":23,
						"TEXCOORD_0":24
					},
					"indices":3,
					"material":7
				}
			]
		},
		{
			"name":"Sphere.008",
			"primitives":[
				{
					"attributes":{
						"POSITION":25,
						"NORMAL":26,
						"TEXCOORD_0":27
					},
					"indices":3,
					"material":8
				}
			]
		},
		{
			"name":"Sphere.009",
			"primitives":[
				{
					"attributes":{
						"POSITION":28,
						"NORMAL":29,
						"TEXCOORD_0":30
					},
					"indices":3,
					"material":9
				}
			]
		},
		{
			"name":"Sphere.010",
			"primitives":[
				{
					"attributes":{
						"POSITION":31,
						"NORMAL":32,
						"TEXCOORD_0":33
					},
					"indices":3,
					"material":10
				}
			]
		},
		{
			"name":"Sphere.011",
			"primitives":[
				{
					"attributes":{
						"POSITION":34,
						"NORMAL":35,
						"TEXCOORD_0":36
					},
					"indices":3,
					"material":11
				}
			]
		},
		{
			"name":"Sphere.012",
			"primitives":[
				{
					"attributes":{
						"POSITION":37,
						"NORMAL":38,
						"TEXCOORD_0":39
					},
					"indices":3,
					"material":12
				}
			]
		},
		{
			"name":"Sphere.013",
			"primitives":[
				{
					"attributes":{
						"POSITION":40,
						"NORMAL":41,
						"TEXCOORD_0":42
					},
					"indices":3,
					"material":13
				}
			]
		},
		{
			"name":"Sphere.014",
			"primitives":[
				{
					"attributes":{
						"POSITION":43,
						"NORMAL":44,
						"TEXCOORD_0":45
					},
					"indices":3,
					"material":14
				}
			]
		},
		{
			"name":"Sphere.015",
			"primitives":[
				{
					"attributes":{
						"POSITION":46,
						"NORMAL":47,
						"TEXCOORD_0":48
					},
					"indices":3,
					"material":15
				}
			]
		},
		{
			"name":"Sphere.016",
			"primitives":[
				{
					"attributes":{
						"POSITION":49,
						"NORMAL":50,
						"TEXCOORD_0":51
					},
					"indices":3,
					"material":16
				}
			]
		},
		{
			"name":"Sphere.017",
			"primitives":[
				{
					"attributes":{
						"POSITION":52,
						"NORMAL":53,
						"TEXCOORD_0":54
					},
					"indices":3,
					"material":17
				}
			]
		},
		{
			"name":"Sphere.018",
			"primitives":[
				{
					"attributes":{
						"POSITION":55,
						"NORMAL":56,
						"TEXCOORD_0":57
					},
					"indices":3,
					"material":18
				}
			]
		},
		{
			"name":"Sphere.019",
			"primitives":[
				{
					"attributes":{
						"POSITION":58,
						"NORMAL":59,
						"TEXCOORD_0":60
					},
					"indices":3,
					"material":19
				}
			]
		},
		{
			"name":"Sphere.020",
			"primitives":[
				{
					"attributes":{
						"POSITION":61,
						"NORMAL":62,
						"TEXCOORD_0":63
					},
					"indices":3,
					"material":20
				}
			]
		},
		{
			"name":"Sphere.021",
			"primitives":[
				{
					"attributes":{
						"POSITION":64,
						"NORMAL":65,
						"TEXCOORD_0":66
					},
					"indices":3,
					"material":21
				}
			]
		},
		{
			"name":"Sphere.022",
			"primitives":[
				{
					"attributes":{
						"POSITION":67,
						"NORMAL":68,
						"TEXCOORD_0":69
					},
					"indices":3,
					"material":22
				}
			]
		},
		{
			"name":"Sphere.023",
			"primitives":[
				{
					"attributes":{
						"POSITION":70,
						"NORMAL":71,
						"TEXCOORD_0":72
					},
					"indices":3,
					"material":23
				}
			]
		}
	],
	"accessors":[
		{
			"bufferView":0,
			"componentType":5126,
			"count":559,
			"max":[
				1,
				1,
				0.9999994039535522
			],
			"min":[
				-0.9999990463256836,
				-1,
				-0.9999999403953552
			],
			"type":"VEC3"
		},
		{
			"bufferView":1,
			"componentType":5126,
			"count":559,
			"type":"VEC3"
		},
		{
			"bufferView":2,
			"componentType":5126,
			"count":559,
			"type":"VEC2"
		},
		{
			"bufferView":3,
			"componentType":5123,
			"count":2880,
			"type":"SCALAR"
		},
		{
			"bufferView":4,
			"componentType":5126,
			"count":559,
			"max":[
				0.9999995231628418,
				1,
				0.9999993443489075
			],
			"min":[
				-0.9999990463256836,
				-1,
				-1
			],
			"type":"VEC3"
		},
		{
			"bufferView":5,
			"componentType":5126,
			"count":559,
			"type":"VEC3"
		},
		{
			"bufferView":6,
			"componentType":5126,
			"count":559,
			"type":"VEC2"
		},
		{
			"bufferView":7,
			"componentType":5126,
			"count":559,
			"max":[
				0.9999997615814209,
				1,
				0.9999994039535522
			],
			"min":[
				-0.9999990463256836,
				-1,
				-0.9999999403953552
			],
			"type":"VEC3"
		},
		{
			"bufferView":8,
			"componentType":5126,
			"count":559,
			"type":"VEC3"
		},
		{
			"bufferView":9,
			"componentType":5126,
			"count":559,
			"type":"VEC2"
		},
		{
			"bufferView":10,
			"componentType":5126,
			"count":559,
			"max":[
				0.9999995827674866,
				1,
				0.9999992847442627
			],
			"min":[
				-0.9999991655349731,
				-1,
				-1
			],
			"type":"VEC3"
		},
		{
			"bufferView":11,
			"componentType":5126,
			"count":559,
			"type":"VEC3"
		},
		{
			"bufferView":12,
			"componentType":5126,
			"count":559,
			"type":"VEC2"
		},
		{
			"bufferView":13,
			"componentType":5126,
			"count":559,
			"max":[
				0.9999992847442627,
				1,
				0.9999994039535522
			],
			"min":[
				-0.9999995231628418,
				-1,
				-0.9999999403953552
			],
			"type":"VEC3"
		},
		{
			"bufferView":14,
			"componentType":5126,
			"count":559,
			"type":"VEC3"
		},
		{
			"bufferView":15,
			"componentType":5126,
			"count":559,
			"type":"VEC2"
		},
		{
			"bufferView":16,
			"componentType":5126,
			"count":559,
			"max":[
				0.9999995231628418,
				1,
				0.9999994039535522
			],
			"min":[
				-0.9999990463256836,
				-1,
				-0.9999999403953552
			],
			"type":"VEC3"
		},
		{
			"bufferView":17,
			"componentType":5126,
			"count":559,
			"type":"VEC3"
		},
		{
			"bufferView":18,
			"componentType":5126,
			"count":559,
			"type":"VEC2"
		},
		{
			"bufferView":19,
			"componentType":5126,
			"count":559,
			"max":[
				1,
				1,
				0.9999993443489075
			],
			"min":[
				-0.9999990463256836,
				-1,
				-1
			],
			"type":"VEC3"
		},
		{
			"bufferView":20,
			"componentType":5126,
			"count":559,
			"type":"VEC3"
		},
		{
			"bufferView":21,
			"componentType":5126,
			"count":559,
			"type":"VEC2"
		},
		{
			"bufferView":22,
			"componentType":5126,
			"count":559,
			"max":[
				1,
				1,
				0.9999994039535522
			],
			"min":[
				-0.9999990463256836,
				-1,
				-0.9999999403953552
			],
			"type":"VEC3"
		},
		{
			"bufferView":23,
			"componentType":5126,
			"count":559,
			"type":"VEC3"
		},
		{
			"bufferView":24,
			"componentType":5126,
			"count":559,
			"type":"VEC2"
		},
		{
			"bufferView":25,
			"componentType":5126,
			"count":559,
			"max":[
				1,
				1,
				0.9999994039535522
			],
			"min":[
				-0.9999990463256836,
				-1,
				-0.9999999403953552
			],
			"type":"VEC3"
		},
		{
			"bufferView":26,
			"componentType":5126,
			"count":559,
			"type":"VEC3"
		},
		{
			"bufferView":27,
			"componentType":5126,
			"count":559,
			"type":"VEC2"
		},
		{
			"bufferView":28,
			"componentType":5126,
			"count":559,
			"max":[
				0.9999995231628418,
				1,
				0.9999993443489075
			],
			"min":[
				-0.9999990463256836,
				-1,
				-1
			],
			"type":"VEC3"
		},
		{
			"bufferView":29,
			"componentType":5126,
			"count":559,
			"type":"VEC3"
		},
		{
			"bufferView":30,
			"componentType":5126,
			"count":559,
			"type":"VEC2"
		},
		{
			"bufferView":31,
			"componentType":5126,
			"count":559,
			"max":[
				0.9999997615814209,
				1,
				0.9999994039535522
			],
			"min":[
				-0.9999990463256836,
				-1,
				-0.9999999403953552
			],
			"type":"VEC3"
		},
		{
			"bufferView":32,
			"componentType":5126,
			"count":559,
			"type":"VEC3"
		},
		{
			"bufferView":33,
			"componentType":5126,
			"count":559,
			"type":"VEC2"
		},
		{
			"bufferView":34,
			"componentType":5126,
			"count":559,
			"max":[
				0.9999995827674866,
				1,
				0.9999992847442627
			],
			"min":[
				-0.9999991655349731,
				-1,
				-1
			],
			"type":"VEC3"
		},
		{
			"bufferView":35,
			"componentType":5126,
			"count":559,
			"type":"VEC3"
		},
		{
			"bufferView":36,
			"componentType":5126,
			"count":559,
			"type":"VEC2"
		},
		{
			"bufferView":37,
			"componentType":5126,
			"count":559,
			"max":[
				0.9999992847442627,
				1,
				0.9999994039535522
			],
			"min":[
				-0.9999995231628418,
				-1,
				-0.9999999403953552
			],
			"type":"VEC3"
		},
		{
			"bufferView":38,
			"componentType":5126,
			"count":559,
			"type":"VEC3"
		},
		{
			"bufferView":39,
			"componentType":5126,
			"count":559,
			"type":"VEC2"
		},
		{
			"bufferView":40,
			"componentType":5126,
			"count":559,
			"max":[
				0.9999995231628418,
				1,
				0.9999994039535522
			],
			"min":[
				-0.9999990463256836,
				-1,
				-0.9999999403953552
			],
			"type":"VEC3"
		},
		{
			"bufferView":41,
			"componentType":5126,
			"count":559,
			"type":"VEC3"
		},
		{
			"bufferView":42,
			"componentType":5126,
			"count":559,
			"type":"VEC2"
		},
		{
			"bufferView":43,
			"componentType":5126,
			"count":559,
			"max":[
				1,
				1,
				0.9999993443489075
			],
			"min":[
				-0.9999990463256836,
				-1,
				-1
			],
			"type":"VEC3"
		},
		{
			"bufferView":44,
			"componentType":5126,
			"count":559,
			"type":"VEC3"
		},
		{
			"bufferView":45,
			"componentType":5126,
			"count":559,
			"type":"VEC2"
		},
		{
			"bufferView":46,
			"componentType":5126,
			"count":559,
			"max":[
				1,
				1,
				0.9999994039535522
			],
			"min":[
				-0.9999990463256836,
				-1,
				-0.9999999403953552
			],
			"type":"VEC3"
		},
		{
			"bufferView":47,
			"componentType":5126,
			"count":559,
			"type":"VEC3"
		},
		{
			"bufferView":48,
			"componentType":5126,
			"count":559,
			"type":"VEC2"
		},
		{
			"bufferView":49,
			"componentType":5126,
			"count":559,
			"max":[
				1,
				1,
				0.9999994039535522
			],
			"min":[
				-0.9999990463256836,
				-1,
				-0.9999999403953552
			],
			"type":"VEC3"
		},
		{
			"bufferView":50,
			"componentType":5126,
			"count":559,
			"type":"VEC3"
		},
		{
			"bufferView":51,
			"componentType":5126,
			"count":559,
			"type":"VEC2"
		},
		{
			"bufferView":52,
			"componentType":5126,
			"count":559,
			"max":[
				0.9999995231628418,
				1,
				0.9999993443489075
			],
			"min":[
				-0.9999990463256836,
				-1,
				-1
			],
			"type":"VEC3"
		},
		{
			"bufferView":53,
			"componentType":5126,
			"count":559,
			"type":"VEC3"
		},
		{
			"bufferView":54,
			"componentType":5126,
			"count":559,
			"type":"VEC2"
		},
		{
			"bufferView":55,
			"componentType":5126,
			"count":559,
			"max":[
				0.9999997615814209,
				1,
				0.9999994039535522
			],
			"min":[
				-0.9999990463256836,
				-1,
				-0.9999999403953552
			],
			"type":"VEC3"
		},
		{
			"bufferView":56,
			"componentType":5126,
			"count":559,
			"type":"VEC3"
		},
		{
			"bufferView":57,
			"componentType":5126,
			"count":559,
			"type":"VEC2"
		},
		{
			"bufferView":58,
			"componentType":5126,
			"count":559,
			"max":[
				0.9999995827674866,
				1,
				0.9999992847442627
			],
			"min":[
				-0.9999991655349731,
				-1,
				-1
			],
			"type":"VEC3"
		},
		{
			"bufferView":59,
			"componentType":5126,
			"count":559,
			"type":"VEC3"
		},
		{
			"bufferView":60,
			"componentType":5126,
			"count":559,
			"type":"VEC2"
		},
		{
			"bufferView":61,
			"componentType":5126,
			"count":559,
			"max":[
				0.9999992847442627,
				1,
				0.9999994039535522
			],
			"min":[
				-0.9999995231628418,
				-1,
				-0.9999999403953552
			],
			"type":"VEC3"
		},
		{
			"bufferView":62,
			"componentType":5126,
			"count":559,
			"type":"VEC3"
		},
		{
			"bufferView":63,
			"componentType":5126,
			"count":559,
			"type":"VEC2"
		},
		{
			"bufferView":64,
			"componentType":5126,
			"count":559,
			"max":[
				0.9999995231628418,
				1,
				0.9999994039535522
			],
			"min":[
				-0.9999990463256836,
				-1,
				-0.9999999403953552
			],
			"type":"VEC3"
		},
		{
			"bufferView":65,
			"componentType":5126,
			"count":559,
			"type":"VEC3"
		},
		{
			"bufferView":66,
			"componentType":5126,
			"count":559,
			"type":"VEC2"
		},
		{
			"bufferView":67,
			"componentType":5126,
			"count":559,
			"max":[
				1,
				1,
				0.9999993443489075
			],
			"min":[
				-0.9999990463256836,
				-1,
				-1
			],
			"type":"VEC3"
		},
		{
			"bufferView":68,
			"componentType":5126,
			"count":559,
			"type":"VEC3"
		},
		{
			"bufferView":69,
			"componentType":5126,
			"count":559,
			"type":"VEC2"
		},
		{
			"bufferView":70,
			"componentType":5126,
			"count":559,
			"max":[
				1,
				1,
				0.9999994039535522
			],
			"min":[
				-0.9999990463256836,
				-1,
				-0.9999999403953552
			],
			"type":"VEC3"
		},
		{
			"bufferView":71,
			"componentType":5126,
			"count":559,
			"type":"VEC3"
		},
		{
			"bufferView":72,
			"componentType":5126,
			"count":559,
			"type":"VEC2"
		}
	],
	"bufferViews":[
		{
			"buffer":0,
			"byteLength":6708,
			"byteOffset":0,
			"target":34962
		},
		{
			"buffer":0,
			"byteLength":6708,
			"byteOffset":6708,
			"target":34962
		},
		{
			"buffer":0,
			"byteLength":4472,
			"byteOffset":13416,
			"target":34962
		},
		{
			"buffer":0,
			"byteLength":5760,
			"byteOffset":17888,
			"target":34963
		},
		{
			"buffer":0,
			"byteLength":6708,
			"byteOffset":23648,
			"target":34962
		},
		{
			"buffer":0,
			"byteLength":6708,
			"byteOffset":30356,
			"target":34962
		},
		{
			"buffer":0,
			"byteLength":4472,
			"byteOffset":37064,
			"target":34962
		},
		{
			"buffer":0,
			"byteLength":6708,
			"byteOffset":41536,
			"target":34962
		},
		{
			"buffer":0,
			"byteLength":6708,
			"byteOffset":48244,
			"target":34962
		},
		{
			"buffer":0,
			"byteLength":4472,
			"byteOffset":54952,
			"target":34962
		},
		{
			"buffer":0,
			"byteLength":6708,
			"byteOffset":59424,
			"target":34962
		},
		{
			"buffer":0,
			"byteLength":6708,
			"byteOffset":66132,
			"target":34962
		},
		{
			"buffer":0,
			"byteLength":4472,
			"byteOffset":72840,
			"target":34962
		},
		{
			"buffer":0,
			"byteLength":6708,
			"byteOffset":77312,
			"target":34962
		},
		{
			"buffer":0,
			"byteLength":6708,
			"byteOffset":84020,
			"target":34962
		},
		{
			"buffer":0,
			"byteLength":4472,
			"byteOffset":90728,
			"target":34962
		},
		{
			"buffer":0,
			"byteLength":6708,
			"byteOffset":95200,
			"target":34962
		},
		{
			"buffer":0,
			"byteLength":6708,
			"byteOffset":101908,
			"target":34962
		},
		{
			"buffer":0,
			"byteLength":4472,
			"byteOffset":108616,
			"target":34962
		},
		{
			"buffer":0,
			"byteLength":6708,
			"byteOffset":113088,
			"target":34962
		},
		{
			"buffer":0,
			"byteLength":6708,
			"byteOffset":119796,
			"target":34962
		},
		{
			"buffer":0,
			"byteLength":4472,
			"byteOffset":126504,
			"target":34962
		},
		{
			"buffer":0,
			"byteLength":6708,
			"byteOffset":130976,
			"target":34962
		},
		{
			"buffer":0,
			"byteLength":6708,
			"byteOffset":137684,
			"target":34962
		},
		{
			"buffer":0,
			"byteLength":4472,
			"byteOffset":144392,
			"target":34962
		},
		{
			"buffer":0,
			"byteLength":6708,
			"byteOffset":148864,
			"target":34962
		},
		{
			"buffer":0,
			"byteLength":6708,
			"byteOffset":155572,
			"target":34962
		},
		{
			"buffer":0,
			"byteLength":4472,
			"byteOffset":162280,
			"target":34962
		},
		{
			"buffer":0,
			"byteLength":6708,
			"byteOffset":166752,
			"target":34962
		},
		{
			"buffer":0,
			"byteLength":6708,
			"byteOffset":173460,
			"target":34962
		},
		{
			"buffer":0,
			"byteLength":4472,
			"byteOffset":180168,
			"target":34962
		},
		{
			"buffer":0,
			"byteLength":6708,
			"byteOffset":184640,
			"target":34962
		},
		{
			"buffer":0,
			"byteLength":6708,
			"byteOffset":191348,
			"target":34962
		},
		{
			"buffer":0,
			"byteLength":4472,
			"byteOffset":198056,
			"target":34962
		},
		{
			"buffer":0,
			"byteLength":6708,
			"byteOffset":202528,
			"target":34962
		},
		{
			"buffer":0,
			"byteLength":6708,
			"byteOffset":209236,
			"target":34962
		},
		{
			"buffer":0,
			"byteLength":4472,
			"byteOffset":215944,
			"target":34962
		},
		{
			"buffer":0,
			"byteLength":6708,
			"byteOffset":220416,
			"target":34962
		},
		{
			"buffer":0,
			"byteLength":6708,
			"byteOffset":227124,
			"target":34962
		},
		{
			"buffer":0,
			"byteLength":4472,
			"byteOffset":233832,
			"target":34962
		},
		{
			"buffer":0,
			"byteLength":6708,
			"byteOffset":238304,
			"target":34962
		},
		{
			"buffer":0,
			"byteLength":6708,
			"byteOffset":245012,
			"target":34962
		},
		{
			"buffer":0,
			"byteLength":4472,
			"byteOffset":251720,
			"target":34962
		},
		{
			"buffer":0,
			"byteLength":6708,
			"byteOffset":256192,
			"target":34962
		},
		{
			"buffer":0,
			"byteLength":6708,
			"byteOffset":262900,
			"target":34962
		},
		{
			"buffer":0,
			"byteLength":4472,
			"byteOffset":269608,
			"target":34962
		},
		{
			"buffer":0,
			"byteLength":6708,
			"byteOffset":274080,
			"target":34962
		},
		{
			"buffer":0,
			"byteLength":6708,
			"byteOffset":280788,
			"target":34962
		},
		{
			"buffer":0,
			"byteLength":4472,
			"byteOffset":287496,
			"target":34962
		},
		{
			"buffer":0,
			"byteLength":6708,
			"byteOffset":291968,
			"target":34962
		},
		{
			"buffer":0,
			"byteLength":6708,
			"byteOffset":298676,
			"target":34962
		},
		{
			"buffer":0,
			"byteLength":4472,
			"byteOffset":305384,
			"target":34962
		},
		{
			"buffer":0,
			"byteLength":6708,
			"byteOffset":309856,
			"target":34962
		},
		{
			"buffer":0,
			"byteLength":6708,
			"byteOffset":316564,
			"target":34962
		},
		{
			"buffer":0,
			"byteLength":4472,
			"byteOffset":323272,
			"target":34962
		},
		{
			"buffer":0,
			"byteLength":6708,
			"byteOffset":327744,
			"target":34962
		},
		{
			"buffer":0,
			"byteLength":6708,
			"byteOffset":334452,
			"target":34962
		},
		{
			"buffer":0,
			"byteLength":4472,
			"byteOffset":341160,
			"target":34962
		},
		{
			"buffer":0,
			"byteLength":6708,
			"byteOffset":345632,
			"target":34962
		},
		{
			"buffer":0,
			"byteLength":6708,
			"byteOffset":352340,
			"target":34962
		},
		{
			"buffer":0,
			"byteLength":4472,
			"byteOffset":359048,
			"target":34962
		},
		{
			"buffer":0,
			"byteLength":6708,
			"byteOffset":363520,
			"target":34962
		},
		{
			"buffer":0,
			"byteLength":6708,
			"byteOffset":370228,
			"target":34962
		},
		{
			"buffer":0,
			"byteLength":4472,
			"byteOffset":376936,
			"target":34962
		},
		{
			"buffer":0,
			"byteLength":6708,
			"byteOffset":381408,
			"target":34962
		},
		{
			"buffer":0,
			"byteLength":6708,
			"byteOffset":388116,
			"target":34962
		},
		{
			"buffer":0,
			"byteLength":4472,
			"byteOffset":394824,
			"target":34962
		},
		{
			"buffer":0,
			"byteLength":6708,
			"byteOffset":399296,
			"target":34962
		},
		{
			"buffer":0,
			"byteLength":6708,
			"byteOffset":406004,
			"target":34962
		},
		{
			"buffer":0,
			"byteLength":4472,
			"byteOffset":412712,
			"target":34962
		},
		{
			"buffer":0,
			"byteLength":6708,
			"byteOffset":417184,
			"target":34962
		},
		{
			"buffer":0,
			"byteLength":6708,
			"byteOffset":423892,
			"target":34962
		},
		{
			"buffer":0,
			"byteLength":4472,
			"byteOffset":430600,
			"target":34962
		}
	],
	"buffers":[
		{
			"byteLength":435072,
			"uri":"white-furnace.bin"
		}
	]
}
