{
	"asset":{
		"generator":"Khronos glTF Blender I/O v5.1.18",
		"version":"2.0"
	},
	"extensionsUsed":[
		"KHR_materials_transmission",
		"KHR_materials_emissive_strength",
		"KHR_materials_specular",
		"KHR_materials_ior"
	],
	"scene":0,
	"scenes":[
		{
			"name":"Scene",
			"nodes":[
				0,
				1,
				2,
				3,
				4,
				5
			]
		}
	],
	"nodes":[
		{
			"mesh":0,
			"name":"testObj",
			"rotation":[
				0.7071068286895752,
				0,
				0,
				0.7071068286895752
			]
		},
		{
			"mesh":1,
			"name":"testObj.001",
			"rotation":[
				0.7071068286895752,
				0,
				0,
				0.7071068286895752
			]
		},
		{
			"mesh":2,
			"name":"testObj.002",
			"rotation":[
				0.7071068286895752,
				0,
				0,
				0.7071068286895752
			]
		},
		{
			"mesh":3,
			"name":"testObj.003",
			"rotation":[
				0.7071068286895752,
				0,
				0,
				0.7071068286895752
			]
		},
		{
			"mesh":4,
			"name":"testObj.004",
			"rotation":[
				0.7071068286895752,
				0,
				0,
				0.7071068286895752
			],
			"scale":[
				0.30000001192092896,
				1,
				1
			]
		},
		{
			"camera":0,
			"name":"Camera",
			"rotation":[
				-0.06557843089103699,
				-0.930542528629303,
				-0.20691974461078644,
				0.2949141561985016
			],
			"translation":[
				-5.437389850616455,
				4.301695823669434,
				-7.76473331451416
			]
		}
	],
	"cameras":[
		{
			"name":"Camera.001",
			"perspective":{
				"aspectRatio":1.7777777777777777,
				"yfov":0.16835126306094317,
				"zfar":1000,
				"znear":0.10000000149011612
			},
			"type":"perspective"
		}
	],
	"materials":[
		{
			"doubleSided":true,
			"extensions":{
				"KHR_materials_transmission":{
					"transmissionFactor":1
				},
				"KHR_materials_specular":{
					"specularFactor":0.20000000298023224
				},
				"KHR_materials_ior":{
					"ior":1.0199999809265137
				}
			},
			"name":"OuterMat",
			"pbrMetallicRoughness":{
				"baseColorFactor":[
					0.38743099570274353,
					0.918028712272644,
					1,
					1
				],
				"metallicFactor":0,
				"roughnessFactor":0
			}
		},
		{
			"doubleSided":true,
			"extensions":{
				"KHR_materials_specular":{
					"specularFactor":0
				}
			},
			"name":"BackGroundMat",
			"pbrMetallicRoughness":{
				"baseColorTexture":{
					"index":0
				},
				"metallicFactor":0
			}
		},
		{
			"doubleSided":true,
			"extensions":{
				"KHR_materials_specular":{
					"specularFactor":0.6000000238418579
				}
			},
			"name":"InnerMat",
			"pbrMetallicRoughness":{
				"baseColorFactor":[
					0.20000000298023224,
					0.20000000298023224,
					0.20000000298023224,
					1
				],
				"roughnessFactor":0.23748037219047546
			}
		},
		{
			"doubleSided":true,
			"name":"LTELogo",
			"pbrMetallicRoughness":{
				"baseColorFactor":[
					0.25,
					0.25,
					0.25,
					1
				],
				"metallicFactor":0.10000000149011612,
				"roughnessFactor":0.5527864098548889
			}
		},
		{
			"doubleSided":true,
			"emissiveFactor":[
				1,
				1,
				1
			],
			"extensions":{
				"KHR_materials_emissive_strength":{
					"emissiveStrength":50
				},
				"KHR_materials_specular":{
					"specularFactor":0
				}
			},
			"name":"Material.001",
			"pbrMetallicRoughness":{
				"metallicFactor":0,
				"roughnessFactor":0
			}
		}
	],
	"meshes":[
		{
			"name":"testObj",
			"primitives":[
				{
					"attributes":{
						"POSITION":0,
						"NORMAL":1,
						"TEXCOORD_0":2
					},
					"indices":3,
					"material":0
				}
			]
		},
		{
			"name":"testObj.001",
			"primitives":[
				{
					"attributes":{
						"POSITION":4,
						"NORMAL":5,
						"TEXCOORD_0":6
					},
					"indices":7,
					"material":1
				}
			]
		},
		{
			"name":"testObj.002",
			"primitives":[
				{
					"attributes":{
						"POSITION":8,
						"NORMAL":9,
						"TEXCOORD_0":10
					},
					"indices":11,
					"material":2
				}
			]
		},
		{
			"name":"testObj.003",
			"primitives":[
				{
					"attributes":{
						"POSITION":12,
						"NORMAL":13,
						"TEXCOORD_0":14
					},
					"indices":15,
					"material":3
				}
			]
		},
		{
			"name":"testObj.004",
			"primitives":[
				{
					"attributes":{
						"POSITION":16,
						"NORMAL":17,
						"TEXCOORD_0":18
					},
					"indices":19,
					"material":4
				}
			]
		}
	],
	"textures":[
		{
			"sampler":0,
			"source":0
		}
	],
	"images":[
		{
			"mimeType":"image/png",
			"name":"checker",
			"uri":"checker.png"
		}
	],
	"accessors":[
		{
			"bufferView":0,
			"componentType":5126,
			"count":24624,
			"max":[
				0.5503578782081604,
				0.5504051446914673,
				0.5072821378707886
			],
			"min":[
				-0.5503577589988708,
				-0.46551910042762756,
				-0.5277513265609741
			],
			"type":"VEC3"
		},
		{
			"bufferView":1,
			"componentType":5126,
			"count":24624,
			"type":"VEC3"
		},
		{
			"bufferView":2,
			"componentType":5126,
			"count":24624,
			"type":"VEC2"
		},
		{
			"bufferView":3,
			"componentType":5123,
			"count":143424,
			"type":"SCALAR"
		},
		{
			"bufferView":4,
			"componentType":5126,
			"count":121,
			"max":[
				9.375,
				10.567867279052734,
				0.5
			],
			"min":[
				-9.375,
				-3.75,
				-6.282658100128174
			],
			"type":"VEC3"
		},
		{
			"bufferView":5,
			"componentType":5126,
			"count":121,
			"type":"VEC3"
		},
		{
			"bufferView":6,
			"componentType":5126,
			"count":121,
			"type":"VEC2"
		},
		{
			"bufferView":7,
			"componentType":5123,
			"count":600,
			"type":"SCALAR"
		},
		{
			"bufferView":8,
			"componentType":5126,
			"count":2457,
			"max":[
				0.35624998807907104,
				0.35624998807907104,
				0.2961620092391968
			],
			"min":[
				-0.35624998807907104,
				-0.35624998807907104,
				-0.4163370132446289
			],
			"type":"VEC3"
		},
		{
			"bufferView":9,
			"componentType":5126,
			"count":2457,
			"type":"VEC3"
		},
		{
			"bufferView":10,
			"componentType":5126,
			"count":2457,
			"type":"VEC2"
		},
		{
			"bufferView":11,
			"componentType":5123,
			"count":13332,
			"type":"SCALAR"
		},
		{
			"bufferView":12,
			"componentType":5126,
			"count":1834,
			"max":[
				-0.46599501371383667,
				-0.31646299362182617,
				0.5
			],
			"min":[
				-1.2495830059051514,
				-0.5390849709510803,
				0.4646199941635132
			],
			"type":"VEC3"
		},
		{
			"bufferView":13,
			"componentType":5126,
			"count":1834,
			"type":"VEC3"
		},
		{
			"bufferView":14,
			"componentType":5126,
			"count":1834,
			"type":"VEC2"
		},
		{
			"bufferView":15,
			"componentType":5123,
			"count":10020,
			"type":"SCALAR"
		},
		{
			"bufferView":16,
			"componentType":5126,
			"count":4,
			"max":[
				12.75,
				12.746438980102539,
				-11.80471134185791
			],
			"min":[
				-12.75,
				-12.746438980102539,
				-12.406874656677246
			],
			"type":"VEC3"
		},
		{
			"bufferView":17,
			"componentType":5126,
			"count":4,
			"type":"VEC3"
		},
		{
			"bufferView":18,
			"componentType":5126,
			"count":4,
			"type":"VEC2"
		},
		{
			"bufferView":19,
			"componentType":5123,
			"count":6,
			"type":"SCALAR"
		}
	],
	"bufferViews":[
		{
			"buffer":0,
			"byteLength":295488,
			"byteOffset":0,
			"target":34962
		},
		{
			"buffer":0,
			"byteLength":295488,
			"byteOffset":295488,
			"target":34962
		},
		{
			"buffer":0,
			"byteLength":196992,
			"byteOffset":590976,
			"target":34962
		},
		{
			"buffer":0,
			"byteLength":286848,
			"byteOffset":787968,
			"target":34963
		},
		{
			"buffer":0,
			"byteLength":1452,
			"byteOffset":1074816,
			"target":34962
		},
		{
			"buffer":0,
			"byteLength":1452,
			"byteOffset":1076268,
			"target":34962
		},
		{
			"buffer":0,
			"byteLength":968,
			"byteOffset":1077720,
			"target":34962
		},
		{
			"buffer":0,
			"byteLength":1200,
			"byteOffset":1078688,
			"target":34963
		},
		{
			"buffer":0,
			"byteLength":29484,
			"byteOffset":1079888,
			"target":34962
		},
		{
			"buffer":0,
			"byteLength":29484,
			"byteOffset":1109372,
			"target":34962
		},
		{
			"buffer":0,
			"byteLength":19656,
			"byteOffset":1138856,
			"target":34962
		},
		{
			"buffer":0,
			"byteLength":26664,
			"byteOffset":1158512,
			"target":34963
		},
		{
			"buffer":0,
			"byteLength":22008,
			"byteOffset":1185176,
			"target":34962
		},
		{
			"buffer":0,
			"byteLength":22008,
			"byteOffset":1207184,
			"target":34962
		},
		{
			"buffer":0,
			"byteLength":14672,
			"byteOffset":1229192,
			"target":34962
		},
		{
			"buffer":0,
			"byteLength":20040,
			"byteOffset":1243864,
			"target":34963
		},
		{
			"buffer":0,
			"byteLength":48,
			"byteOffset":1263904,
			"target":34962
		},
		{
			"buffer":0,
			"byteLength":48,
			"byteOffset":1263952,
			"target":34962
		},
		{
			"buffer":0,
			"byteLength":32,
			"byteOffset":1264000,
			"target":34962
		},
		{
			"buffer":0,
			"byteLength":12,
			"byteOffset":1264032,
			"target":34963
		}
	],
	"samplers":[
		{
			"magFilter":9729,
			"minFilter":9987
		}
	],
	"buffers":[
		{
			"byteLength":1264044,
			"uri":"mori-knob.bin"
		}
	]
}
