{
	"asset":{
		"generator":"Khronos glTF Blender I/O v5.2.23 for Foundation",
		"version":"2.0"
	},
	"extensionsUsed":[
		"EXT_foundation_materials",
		"EXT_foundation_curves"
	],
	"extensionsRequired":[
		"EXT_foundation_curves"
	],
	"extensions":{
		"EXT_foundation_curves":{
			"curves":[
				{
					"name":"curly hair",
					"basis":"bezier",
					"points":0,
					"curveVertexCounts":1,
					"material":0
				}
			]
		}
	},
	"scene":0,
	"scenes":[
		{
			"name":"hairstyles main",
			"nodes":[
				0,
				1,
				2,
				3
			]
		},
		{
			"name":"head",
			"nodes":[
				4,
				5
			]
		}
	],
	"nodes":[
		{
			"camera":0,
			"name":"Camera",
			"rotation":[
				0.03651969134807587,
				-0.4889526665210724,
				0.02049446851015091,
				0.8713045716285706
			],
			"translation":[
				-8.356383323669434,
				-0.43487638235092163,
				5.14539098739624
			]
		},
		{
			"extensions":{
				"EXT_foundation_curves":{
					"curve":0
				}
			},
			"name":"curly hair",
			"translation":[
				-0.0520806685090065,
				-15.155477523803711,
				-0.5232492685317993
			]
		},
		{
			"mesh":0,
			"name":"eyes.001",
			"scale":[
				0.12901143729686737,
				0.12901140749454498,
				0.12716221809387207
			],
			"translation":[
				0.2537970244884491,
				0.1456460952758789,
				0.8147263526916504
			]
		},
		{
			"mesh":1,
			"name":"head.002",
			"translation":[
				-0.0520806685090065,
				-15.155477523803711,
				-0.5232492685317993
			]
		},
		{
			"mesh":0,
			"name":"eyes",
			"scale":[
				0.12901143729686737,
				0.12901140749454498,
				0.12716221809387207
			],
			"translation":[
				0.305877685546875,
				15.30112361907959,
				1.3379756212234497
			]
		},
		{
			"mesh":1,
			"name":"head"
		}
	],
	"cameras":[
		{
			"name":"Camera",
			"perspective":{
				"aspectRatio":1.7777777777777777,
				"yfov":0.16164709401156996,
				"zfar":1000,
				"znear":0.10000000149011612
			},
			"type":"perspective"
		}
	],
	"materials":[
		{
			"doubleSided":true,
			"extensions":{
				"EXT_foundation_materials":{
					"shaderBlock":"hair",
					"model":"chiang",
					"betaM":0.5,
					"betaN":0.5,
					"alpha":0.03490658476948738,
					"ior":1.5499999523162842
				}
			},
			"name":"Blond hair",
			"pbrMetallicRoughness":{
				"baseColorFactor":[
					0.21402913331985474,
					0.050877008587121964,
					0,
					1
				],
				"metallicFactor":0,
				"roughnessFactor":0.5
			}
		},
		{
			"doubleSided":true,
			"extensions":{
				"EXT_foundation_materials":{
					"shaderBlock":"principled"
				}
			},
			"name":"Head",
			"pbrMetallicRoughness":{
				"baseColorFactor":[
					0.15232548117637634,
					0.15232548117637634,
					0.15232548117637634,
					1
				],
				"metallicFactor":0,
				"roughnessFactor":0.550000011920929
			}
		}
	],
	"meshes":[
		{
			"name":"eyes",
			"primitives":[
				{
					"attributes":{
						"POSITION":2,
						"NORMAL":3,
						"TEXCOORD_0":4
					},
					"indices":5,
					"material":1
				}
			]
		},
		{
			"name":"female head",
			"primitives":[
				{
					"attributes":{
						"POSITION":6,
						"NORMAL":7,
						"TEXCOORD_0":8,
						"COLOR_0":9,
						"COLOR_1":10
					},
					"indices":11,
					"material":1
				}
			]
		}
	],
	"accessors":[
		{
			"bufferView":0,
			"componentType":5126,
			"count":1502006,
			"type":"VEC4"
		},
		{
			"bufferView":1,
			"componentType":5125,
			"count":22418,
			"type":"SCALAR"
		},
		{
			"bufferView":2,
			"componentType":5126,
			"count":1028,
			"max":[
				1.0240814685821533,
				1.0240815877914429,
				1.0240812301635742
			],
			"min":[
				-5.765951156616211,
				-1.0240812301635742,
				-1.053865909576416
			],
			"type":"VEC3"
		},
		{
			"bufferView":3,
			"componentType":5126,
			"count":1028,
			"type":"VEC3"
		},
		{
			"bufferView":4,
			"componentType":5126,
			"count":1028,
			"type":"VEC2"
		},
		{
			"bufferView":5,
			"componentType":5123,
			"count":6144,
			"type":"SCALAR"
		},
		{
			"bufferView":6,
			"componentType":5126,
			"count":53601,
			"max":[
				0.8793157935142517,
				16.410877227783203,
				1.756827473640442
			],
			"min":[
				-0.8784418106079102,
				13.19823169708252,
				-0.4950631260871887
			],
			"type":"VEC3"
		},
		{
			"bufferView":7,
			"componentType":5126,
			"count":53601,
			"type":"VEC3"
		},
		{
			"bufferView":8,
			"componentType":5126,
			"count":53601,
			"type":"VEC2"
		},
		{
			"bufferView":9,
			"componentType":5121,
			"count":53601,
			"normalized":true,
			"type":"VEC4"
		},
		{
			"bufferView":10,
			"componentType":5123,
			"count":53601,
			"normalized":true,
			"type":"VEC4"
		},
		{
			"bufferView":11,
			"componentType":5123,
			"count":306912,
			"type":"SCALAR"
		}
	],
	"bufferViews":[
		{
			"buffer":0,
			"byteLength":24032096,
			"byteOffset":0
		},
		{
			"buffer":0,
			"byteLength":89672,
			"byteOffset":24032096
		},
		{
			"buffer":0,
			"byteLength":12336,
			"byteOffset":24121768,
			"target":34962
		},
		{
			"buffer":0,
			"byteLength":12336,
			"byteOffset":24134104,
			"target":34962
		},
		{
			"buffer":0,
			"byteLength":8224,
			"byteOffset":24146440,
			"target":34962
		},
		{
			"buffer":0,
			"byteLength":12288,
			"byteOffset":24154664,
			"target":34963
		},
		{
			"buffer":0,
			"byteLength":643212,
			"byteOffset":24166952,
			"target":34962
		},
		{
			"buffer":0,
			"byteLength":643212,
			"byteOffset":24810164,
			"target":34962
		},
		{
			"buffer":0,
			"byteLength":428808,
			"byteOffset":25453376,
			"target":34962
		},
		{
			"buffer":0,
			"byteLength":214404,
			"byteOffset":25882184,
			"target":34962
		},
		{
			"buffer":0,
			"byteLength":428808,
			"byteOffset":26096588,
			"target":34962
		},
		{
			"buffer":0,
			"byteLength":613824,
			"byteOffset":26525396,
			"target":34963
		}
	],
	"buffers":[
		{
			"byteLength":27139220,
			"uri":"groom.bin"
		}
	]
}
